<svg width="22" height="23" viewBox="0 0 22 23" fill="none" xmlns="http://www.w3.org/2000/svg">
<path fill-rule="evenodd" clip-rule="evenodd" d="M5.07243 21.0389L5.47051 21.2778C7.15129 22.2715 9.0785 22.7934 11.0436 22.7997H11.0499C17.0843 22.7997 22.0003 17.9134 22.0003 11.9014C22.0003 8.98975 20.8629 6.25417 18.7967 4.19148C16.7305 2.1288 13.9755 0.996832 11.0499 0.996832C5.01557 0.990544 0.0996094 5.87685 0.0996094 11.8888C0.0996094 13.9452 0.674612 15.9513 1.77407 17.687L2.03313 18.1021L0.92736 22.1205L5.07243 21.0389ZM7.39622 6.40499C7.60831 6.41069 7.84333 6.4221 8.06688 6.91843C8.21012 7.23764 8.44809 7.81781 8.64755 8.30407C8.81525 8.71292 8.95573 9.05539 8.98976 9.12054C9.06428 9.26887 9.11014 9.44002 9.01269 9.63969C9.00118 9.66327 8.99031 9.68582 8.97984 9.70754C8.9017 9.86965 8.84605 9.98509 8.71462 10.136C8.66082 10.1978 8.60479 10.2655 8.54894 10.333C8.45006 10.4525 8.35176 10.5713 8.26751 10.6552C8.11847 10.8035 7.9637 10.9632 8.13567 11.2599C8.30763 11.5565 8.90951 12.5321 9.798 13.3194C10.7532 14.1697 11.5838 14.528 12.0037 14.7091C12.0852 14.7443 12.1513 14.7728 12.1998 14.797C12.4979 14.9453 12.6756 14.9225 12.8475 14.7228C13.0195 14.5231 13.5927 13.8556 13.7933 13.559C13.9882 13.2623 14.1889 13.3137 14.464 13.4107C14.7391 13.5133 16.2066 14.2322 16.5047 14.3805C16.5634 14.4097 16.6183 14.4361 16.6693 14.4605C16.8769 14.56 17.018 14.6277 17.0779 14.7285C17.1524 14.854 17.1524 15.4473 16.9059 16.1433C16.6537 16.8393 15.4327 17.5068 14.8882 17.5581C14.8361 17.5631 14.7843 17.5693 14.7309 17.5758C14.2266 17.6368 13.5865 17.7142 11.3056 16.8165C8.49547 15.7116 6.64039 12.9702 6.26497 12.4154C6.23528 12.3715 6.21485 12.3413 6.20392 12.3267L6.19758 12.3182C6.02693 12.0899 4.98297 10.693 4.98297 9.25175C4.98297 7.87295 5.66226 7.15509 5.97205 6.8277C5.99168 6.80696 6.00983 6.78778 6.02623 6.7701C6.30137 6.47345 6.62237 6.39928 6.823 6.39928C7.02363 6.39928 7.22425 6.39928 7.39622 6.40499Z" fill="black"/>
</svg>
