<svg width="322" height="69" viewBox="0 0 322 69" fill="none" xmlns="http://www.w3.org/2000/svg">
<path d="M17.4284 22.9969C17.4472 23.0344 17.5883 23.166 17.8515 23.3914C18.1148 23.5981 18.4815 23.8329 18.9517 24.096C19.4406 24.359 20.033 24.5939 20.7288 24.8005C21.4247 25.0072 22.2145 25.1106 23.0984 25.1106C24.5841 25.1106 25.9851 24.8287 27.3015 24.2651C28.6179 23.7014 29.8309 22.9593 30.9405 22.0387C32.0688 21.118 33.0749 20.0659 33.9588 18.8822C34.8615 17.6986 35.6231 16.4867 36.2437 15.2467C36.8643 14.0067 37.3439 12.7854 37.6824 11.583C38.0209 10.3805 38.1902 9.3002 38.1902 8.342C38.1902 7.19592 38.0209 6.20014 37.6824 5.35466C37.3439 4.50919 36.8831 3.81402 36.3002 3.26916C35.736 2.7243 35.059 2.32035 34.2691 2.05732C33.4981 1.79428 32.6612 1.66276 31.7585 1.66276C29.972 1.66276 28.1948 1.98216 26.427 2.62097C24.6781 3.24098 22.9762 4.09585 21.3212 5.18557C19.6663 6.27529 18.0772 7.56229 16.5539 9.04656C15.0306 10.512 13.6108 12.0903 12.2944 13.7812C10.978 15.4722 9.78379 17.2383 8.71185 19.0795C7.63991 20.902 6.71842 22.715 5.94738 24.5187C5.19514 26.3224 4.61216 28.0791 4.19843 29.7888C3.7847 31.4798 3.57783 33.0392 3.57783 34.4671C3.57783 36.1205 3.8129 37.6799 4.28305 39.1454C4.77201 40.6109 5.49604 41.8885 6.45514 42.9782C7.41424 44.0679 8.60842 44.9228 10.0377 45.5428C11.4857 46.1816 13.1689 46.501 15.0871 46.501C16.7984 46.501 18.5756 46.238 20.4185 45.7119C22.2615 45.1858 24.0951 44.3404 25.9193 43.1755C27.7623 42.0106 29.577 40.5076 31.3636 38.6663C33.1502 36.8063 34.8615 34.5517 36.4976 31.9025L37.5131 32.6916C35.7454 35.5662 33.9024 37.9805 31.9842 39.9345C30.066 41.8885 28.1478 43.4573 26.2296 44.641C24.3114 45.8434 22.4214 46.6983 20.5596 47.2056C18.6978 47.7317 16.93 47.9947 15.2563 47.9947C12.8492 47.9947 10.7241 47.5626 8.88111 46.6983C7.03812 45.8528 5.49604 44.7349 4.25484 43.3446C3.01365 41.9543 2.07335 40.376 1.43395 38.6099C0.813357 36.8251 0.503059 35.012 0.503059 33.1707C0.503059 31.5925 0.719327 29.911 1.15186 28.1261C1.60321 26.3412 2.23321 24.5281 3.04186 22.6869C3.85052 20.8456 4.81902 19.0044 5.94738 17.1631C7.09454 15.3219 8.36394 13.5651 9.75558 11.893C11.166 10.202 12.6893 8.63322 14.3254 7.18652C15.9615 5.73982 17.6729 4.4904 19.4594 3.43826C21.2648 2.36732 23.1172 1.53125 25.0166 0.93002C26.9348 0.310007 28.8812 0 30.8558 0C32.097 0 33.2818 0.178489 34.4102 0.535466C35.5573 0.873656 36.5634 1.41852 37.4285 2.17005C38.2936 2.92158 38.98 3.88918 39.4878 5.07284C39.9955 6.23771 40.2494 7.64683 40.2494 9.3002C40.2494 10.4087 40.0802 11.6112 39.7417 12.9076C39.4031 14.2039 38.9048 15.5097 38.2466 16.8249C37.6072 18.1213 36.8173 19.3801 35.877 20.6014C34.9555 21.8226 33.9024 22.9029 32.7176 23.8423C31.5517 24.763 30.2541 25.5051 28.8248 26.0688C27.4144 26.6324 25.9099 26.9142 24.3114 26.9142C22.6 26.9142 21.105 26.6324 19.8262 26.0688C18.5662 25.4863 17.4848 24.7724 16.5821 23.9269L17.4284 22.9969Z" fill="url(#paint0_linear_180_777)"/>
<path d="M58.9237 23.6732C58.6792 24.1617 58.3313 24.8005 57.88 25.5897C57.4474 26.3788 56.9773 27.2524 56.4695 28.2106C55.9618 29.15 55.4446 30.1364 54.918 31.1698C54.4103 32.2031 53.9401 33.2177 53.5076 34.2135C53.0939 35.1905 52.746 36.1205 52.4639 37.0035C52.2006 37.8678 52.0689 38.6005 52.0689 39.2018C52.0689 39.803 52.1818 40.1975 52.4075 40.3854C52.6519 40.5545 52.9622 40.6391 53.3383 40.6391C53.8837 40.6391 54.4385 40.4794 55.0027 40.16C55.5857 39.8406 56.1498 39.4272 56.6952 38.9199C57.2594 38.4127 57.8048 37.8396 58.3313 37.2008C58.8579 36.562 59.3468 35.9232 59.7982 35.2844C60.2683 34.6268 60.6915 34.0068 61.0676 33.4244C61.4437 32.8231 61.7634 32.3159 62.0267 31.9025L63.0422 32.6916C62.7225 33.2929 62.3464 33.941 61.9139 34.6362C61.4813 35.3314 61.0018 36.0359 60.4752 36.7499C59.9674 37.4451 59.4127 38.1214 58.8109 38.779C58.2091 39.4366 57.5697 40.0191 56.8927 40.5263C56.2345 41.0336 55.5386 41.4376 54.8052 41.7382C54.0718 42.0388 53.3195 42.1891 52.5485 42.1891C51.4201 42.1891 50.5927 41.8509 50.0661 41.1745C49.5395 40.4982 49.2763 39.6245 49.2763 38.5536C49.2763 38.4784 49.2763 38.3187 49.2763 38.0745C49.2951 37.8114 49.3233 37.6048 49.3609 37.4545C48.4206 38.6381 47.5179 39.6151 46.6528 40.3854C45.8066 41.1558 44.9791 41.7664 44.1705 42.2173C43.3806 42.6682 42.6096 42.9782 41.8573 43.1473C41.1239 43.3352 40.4187 43.4291 39.7417 43.4291C39.027 43.4291 38.35 43.307 37.7106 43.0628C37.09 42.8373 36.5446 42.4991 36.0745 42.0482C35.5855 41.5973 35.2094 41.043 34.9461 40.3854C34.664 39.7278 34.523 38.9669 34.523 38.1027C34.523 37.0317 34.7675 35.8105 35.2564 34.4389C35.7266 33.0486 36.5729 31.5549 37.7952 29.9579C38.8296 28.5864 39.9015 27.4309 41.0111 26.4915C42.1394 25.5521 43.2396 24.8005 44.3115 24.2369C45.4022 23.6545 46.4366 23.2411 47.4145 22.9969C48.3924 22.7526 49.2669 22.6305 50.0379 22.6305C51.7681 22.6305 53.0751 22.9217 53.9589 23.5042C54.8428 24.0678 55.3788 24.9415 55.5668 26.1251C55.943 25.6554 56.3379 25.1857 56.7516 24.716C57.1654 24.2463 57.5885 23.7672 58.021 23.2787L58.9237 23.6732ZM50.2636 34.3826C50.5081 33.988 50.8089 33.4901 51.1663 32.8889C51.5236 32.2689 51.8997 31.6395 52.2946 31.0007C52.6895 30.3431 53.0751 29.7137 53.4512 29.1125C53.8273 28.5112 54.1564 28.0039 54.4385 27.5906C54.4385 27.4215 54.4103 27.1491 54.3539 26.7733C54.3163 26.3975 54.194 26.0218 53.9872 25.646C53.7803 25.2515 53.4512 24.9133 52.9998 24.6314C52.5485 24.3496 51.9185 24.2087 51.1098 24.2087C50.5269 24.2087 49.8687 24.3027 49.1352 24.4905C48.4206 24.6596 47.6496 24.9602 46.8221 25.3924C46.0134 25.8057 45.1766 26.36 44.3115 27.0551C43.4464 27.7503 42.5813 28.6146 41.7163 29.6479C40.4187 31.2074 39.4125 32.7762 38.6979 34.3544C38.0021 35.9138 37.6542 37.3229 37.6542 38.5818C37.6542 39.6527 37.8987 40.4794 38.3876 41.0618C38.8766 41.6442 39.5724 41.9355 40.4751 41.9355C41.5094 41.9355 42.4779 41.71 43.3806 41.2591C44.2833 40.7894 45.1296 40.1882 45.9194 39.4554C46.7093 38.7227 47.4615 37.9148 48.1761 37.0317C48.8907 36.1299 49.5866 35.2468 50.2636 34.3826Z" fill="url(#paint1_linear_180_777)"/>
<path d="M79.8547 32.6916C79.5726 33.105 79.2341 33.6686 78.8392 34.3826C78.4631 35.0777 78.0211 35.8387 77.5134 36.6654C77.0056 37.4732 76.4414 38.2999 75.8208 39.1454C75.2191 39.9909 74.5514 40.7518 73.818 41.4282C73.1034 42.1046 72.3229 42.6588 71.4767 43.0909C70.6304 43.5231 69.7277 43.7391 68.7686 43.7391C68.2421 43.7391 67.7437 43.6546 67.2735 43.4855C66.8034 43.3352 66.3897 43.0909 66.0324 42.7528C65.675 42.4146 65.393 42.0012 65.1861 41.5127C64.9792 41.0054 64.8758 40.4136 64.8758 39.7372C64.8758 38.8166 65.0544 37.8584 65.4118 36.8626C65.7879 35.8481 66.2204 34.8711 66.7094 33.9317C67.1983 32.9922 67.6873 32.1374 68.1762 31.3671C68.6652 30.5779 69.0225 29.9485 69.2482 29.4788C69.4738 29.0091 69.5867 28.6052 69.5867 28.267C69.5867 28.0227 69.5021 27.8067 69.3328 27.6188C69.1824 27.4309 68.9849 27.2524 68.7404 27.0833C68.5147 26.8954 68.2703 26.7076 68.007 26.5197C67.7625 26.313 67.5556 26.0688 67.3864 25.7869C66.9162 26.5385 66.4367 27.2994 65.9477 28.0697C65.5152 28.7273 65.045 29.4694 64.5373 30.2961C64.0295 31.104 63.5406 31.9025 63.0704 32.6916L62.0549 31.9025L68.0916 22.4614L68.9097 22.8841C68.8721 22.9969 68.8062 23.1754 68.7122 23.4196C68.637 23.6639 68.5994 23.9269 68.5994 24.2087C68.5994 24.4154 68.6276 24.6221 68.684 24.8287C68.7592 25.0166 68.9003 25.1951 69.1071 25.3642C69.8594 26.0406 70.4518 26.5666 70.8843 26.9424C71.3168 27.2994 71.6271 27.5906 71.8152 27.8161C72.022 28.0227 72.1443 28.2012 72.1819 28.3515C72.2383 28.483 72.2665 28.6615 72.2665 28.887C72.2665 29.1125 72.2289 29.3849 72.1537 29.7043C72.0785 30.0237 71.9468 30.4088 71.7588 30.8598C71.5895 31.3107 71.345 31.8462 71.0253 32.4662C70.7244 33.0674 70.3389 33.772 69.8688 34.5798C69.5867 35.0683 69.3046 35.5662 69.0225 36.0735C68.7592 36.562 68.5147 37.0599 68.2891 37.5672C68.0822 38.0745 67.9129 38.5818 67.7813 39.089C67.6497 39.5963 67.5838 40.0848 67.5838 40.5545C67.5838 40.9115 67.6309 41.2027 67.7249 41.4282C67.8377 41.6349 67.9788 41.7946 68.148 41.9073C68.3173 42.02 68.4959 42.0952 68.684 42.1327C68.8909 42.1703 69.0883 42.1891 69.2764 42.1891C69.897 42.1891 70.5082 42.0106 71.11 41.6536C71.7306 41.2779 72.3323 40.7988 72.9153 40.2163C73.5171 39.6339 74.0907 38.9763 74.6361 38.2436C75.2002 37.492 75.7362 36.7311 76.244 35.9608C76.7517 35.1905 77.2219 34.4577 77.6544 33.7626C78.087 33.0486 78.4725 32.4286 78.811 31.9025L79.8547 32.6916Z" fill="url(#paint2_linear_180_777)"/>
<path d="M94.7208 34.7489C94.796 34.7677 94.8713 34.7771 94.9465 34.7771C95.0217 34.7771 95.1063 34.7771 95.2004 34.7771C95.7269 34.7771 96.2065 34.7302 96.639 34.6362C97.0716 34.5235 97.4665 34.3544 97.8238 34.1289C98.1999 33.9035 98.5572 33.6123 98.8957 33.2553C99.2342 32.8795 99.5633 32.4286 99.883 31.9025L100.899 32.6916C99.9959 33.9692 99.065 34.8617 98.1059 35.369C97.1468 35.8762 96.1313 36.1299 95.0593 36.1299C94.6644 36.1299 94.3165 36.0923 94.0156 36.0172C93.2069 37.3699 92.3419 38.5254 91.4204 39.4836C90.4989 40.423 89.5586 41.1933 88.5995 41.7946C87.6404 42.3958 86.6907 42.8279 85.7504 43.0909C84.8101 43.3728 83.9356 43.5137 83.127 43.5137C82.2995 43.5137 81.5285 43.3634 80.8138 43.0628C80.118 42.7809 79.5162 42.3676 79.0085 41.8227C78.5007 41.2779 78.1058 40.6297 77.8237 39.8781C77.5416 39.1266 77.4005 38.2811 77.4005 37.3417C77.4005 36.4023 77.551 35.4441 77.8519 34.4671C78.1528 33.4901 78.5571 32.5225 79.0649 31.5643C79.5914 30.6061 80.2026 29.6855 80.8985 28.8025C81.5943 27.9006 82.3465 27.0645 83.1552 26.2942C83.9638 25.5239 84.8007 24.8287 85.6658 24.2087C86.5308 23.5887 87.3959 23.0814 88.261 22.6869L89.1637 23.8705C88.1669 24.5845 87.1514 25.4863 86.1171 26.576C85.1016 27.6658 84.1707 28.8588 83.3244 30.1552C82.497 31.4516 81.8105 32.8044 81.2652 34.2135C80.7386 35.6038 80.4753 36.9566 80.4753 38.2717C80.4753 39.4554 80.7386 40.376 81.2652 41.0336C81.7917 41.6724 82.591 41.9918 83.6629 41.9918C84.4904 41.9918 85.3084 41.8227 86.1171 41.4845C86.9258 41.1464 87.7156 40.686 88.4866 40.1036C89.2577 39.5212 90.0005 38.8354 90.7151 38.0463C91.4298 37.2384 92.1068 36.3835 92.7462 35.4817C92.2008 35.1623 91.7213 34.7396 91.3075 34.2135C90.8938 33.6686 90.5459 33.058 90.2638 32.3816C89.9817 31.6865 89.7654 30.9443 89.615 30.1552C89.4834 29.3661 89.4175 28.5582 89.4175 27.7315C89.4175 26.9048 89.521 26.1251 89.7278 25.3924C89.9347 24.6596 90.2168 24.0208 90.5741 23.476C90.9502 22.9123 91.3828 22.4708 91.8717 22.1514C92.3607 21.832 92.8966 21.6723 93.4796 21.6723C94.0062 21.6723 94.4763 21.8132 94.8901 22.095C95.3038 22.3581 95.6517 22.7338 95.9338 23.2223C96.2159 23.692 96.4322 24.2557 96.5826 24.9133C96.7331 25.5709 96.8083 26.2754 96.8083 27.027C96.8083 27.5906 96.7613 28.2106 96.6672 28.887C96.5732 29.5634 96.4322 30.2491 96.2441 30.9443C96.0748 31.6207 95.8586 32.2971 95.5953 32.9734C95.3508 33.631 95.0593 34.2229 94.7208 34.7489ZM90.8844 27.7315C90.8844 28.2764 90.9314 28.8682 91.0255 29.507C91.1195 30.1458 91.2699 30.7658 91.4768 31.3671C91.6837 31.9683 91.9469 32.5319 92.2666 33.058C92.5863 33.5653 92.9813 33.9692 93.4514 34.2698C93.7899 33.6123 94.072 32.9453 94.2977 32.2689C94.5422 31.5737 94.7396 30.9067 94.8901 30.2679C95.0593 29.6291 95.1722 29.0373 95.2286 28.4924C95.3038 27.9288 95.3414 27.4403 95.3414 27.027C95.3414 26.4633 95.2944 25.9466 95.2004 25.4769C95.1063 25.0072 94.9747 24.6033 94.8054 24.2651C94.655 23.9081 94.4575 23.6357 94.2131 23.4478C93.9874 23.2411 93.7335 23.1378 93.4514 23.1378C93.0753 23.1378 92.7274 23.2693 92.4077 23.5323C92.088 23.7766 91.8153 24.1148 91.5896 24.5469C91.364 24.9602 91.1853 25.4487 91.0537 26.0124C90.9408 26.5572 90.8844 27.1303 90.8844 27.7315Z" fill="url(#paint3_linear_180_777)"/>
<path d="M120.335 1.40912C120.993 1.40912 121.538 1.56882 121.971 1.88822C122.422 2.20762 122.648 2.79006 122.648 3.63553C122.648 4.21797 122.525 4.91314 122.281 5.72103C122.055 6.52893 121.736 7.41198 121.322 8.37018C120.927 9.3096 120.457 10.3054 119.911 11.3575C119.366 12.3909 118.774 13.4242 118.134 14.4576C117.514 15.4909 116.855 16.4961 116.16 17.4731C115.483 18.4501 114.806 19.3519 114.129 20.1786C112.775 21.8508 111.599 23.2599 110.602 24.406C109.625 25.5521 108.778 26.5291 108.064 27.337C107.349 28.1261 106.747 28.7743 106.258 29.2816C105.769 29.77 105.337 30.1928 104.961 30.5498C104.585 30.9067 104.237 31.2355 103.917 31.5361C103.597 31.818 103.268 32.1374 102.93 32.4944C102.779 33.2083 102.704 33.8941 102.704 34.5517C102.723 35.1905 102.732 35.7823 102.732 36.3272C102.732 37.9617 102.995 39.1736 103.522 39.9627C104.049 40.7518 104.791 41.1464 105.751 41.1464C106.39 41.1464 107.029 40.9867 107.669 40.6673C108.327 40.3291 108.976 39.8969 109.615 39.3709C110.255 38.8448 110.875 38.253 111.477 37.5954C112.079 36.919 112.643 36.2426 113.169 35.5662C113.715 34.8711 114.204 34.2041 114.636 33.5653C115.069 32.9265 115.445 32.3722 115.765 31.9025L116.808 32.6916C116.752 32.7668 116.564 33.0674 116.244 33.5935C115.943 34.1007 115.539 34.7208 115.031 35.4535C114.523 36.1862 113.922 36.9754 113.226 37.8208C112.53 38.6475 111.778 39.4178 110.969 40.1318C110.16 40.8457 109.305 41.4376 108.402 41.9073C107.518 42.377 106.616 42.6118 105.694 42.6118C104.923 42.6118 104.18 42.4709 103.466 42.1891C102.77 41.8885 102.149 41.4282 101.604 40.8082C101.077 40.1694 100.645 39.3615 100.306 38.3845C99.9865 37.4075 99.8266 36.2332 99.8266 34.8617C99.8266 33.1519 100.024 31.3671 100.419 29.507C100.833 27.6282 101.388 25.7494 102.083 23.8705C102.779 21.9729 103.597 20.1035 104.538 18.2622C105.478 16.421 106.475 14.6737 107.528 13.0203C108.6 11.3481 109.709 9.80749 110.856 8.39837C112.022 6.97046 113.16 5.73982 114.27 4.70647C115.398 3.67311 116.479 2.86521 117.514 2.28278C118.548 1.70034 119.488 1.40912 120.335 1.40912ZM103.437 29.9861C105.036 28.3327 106.578 26.6606 108.064 24.9696C109.568 23.2599 110.969 21.5784 112.267 19.925C113.583 18.2528 114.787 16.637 115.878 15.0776C116.968 13.4994 117.899 12.0151 118.67 10.6248C119.441 9.23445 120.043 7.96624 120.476 6.82015C120.908 5.67406 121.124 4.68768 121.124 3.86099C121.124 3.71069 121.049 3.51341 120.899 3.26916C120.748 3.00613 120.57 2.87461 120.363 2.87461C119.78 2.87461 119.009 3.25977 118.05 4.03009C117.09 4.80041 116.047 5.85255 114.918 7.18652C113.809 8.5017 112.652 10.0423 111.449 11.8084C110.264 13.5745 109.145 15.4628 108.092 17.4731C107.039 19.4835 106.098 21.5596 105.271 23.7014C104.443 25.8433 103.832 27.9382 103.437 29.9861Z" fill="url(#paint4_linear_180_777)"/>
<path d="M207.303 52.1375C207.246 52.1751 206.992 52.3066 206.541 52.5321C206.09 52.7575 205.497 53.0018 204.764 53.2648C204.03 53.5278 203.193 53.7627 202.253 53.9694C201.313 54.1948 200.335 54.3076 199.319 54.3076C197.665 54.3076 196.179 54.0163 194.862 53.4339C193.546 52.8515 192.427 52.0248 191.506 50.9538C190.603 49.9017 189.907 48.6241 189.418 47.121C188.929 45.6368 188.685 43.9834 188.685 42.1609C188.685 40.4136 188.901 38.4972 189.333 36.4117C189.766 34.3074 190.33 32.1468 191.026 29.9297C191.722 27.7127 192.502 25.4957 193.367 23.2787C194.251 21.0617 195.135 18.9574 196.019 16.9658C196.922 14.9555 197.777 13.1236 198.586 11.4703C199.395 9.79809 200.09 8.40776 200.673 7.29925C199.62 8.5017 198.417 9.89204 197.063 11.4703C195.709 13.0297 194.261 14.7488 192.719 16.6276C191.195 18.4877 189.606 20.4792 187.951 22.6023C186.296 24.7066 184.623 26.9048 182.93 29.197C181.256 31.4704 179.592 33.8095 177.937 36.2144C176.282 38.6005 174.702 41.0054 173.198 43.4291L171.844 42.9782C172.126 39.9157 172.587 36.8814 173.226 33.8753C173.884 30.8504 174.618 27.9476 175.427 25.1669C176.254 22.3675 177.119 19.7465 178.022 17.304C178.943 14.8427 179.818 12.6445 180.645 10.7093C179.385 12.4378 178.125 14.3167 176.865 16.3458C175.624 18.3562 174.364 20.4323 173.085 22.5741C171.806 24.6972 170.49 26.8391 169.136 28.9997C167.782 31.1416 166.371 33.2083 164.905 35.1999C163.438 37.1726 161.886 39.0233 160.25 40.7518C158.633 42.4615 156.903 43.9458 155.06 45.2046C153.236 46.4822 151.28 47.4874 149.192 48.2201C147.124 48.9529 144.904 49.3193 142.535 49.3193C140.711 49.3193 139.056 49.0468 137.57 48.502C136.084 47.9571 134.806 47.2056 133.734 46.2474C132.681 45.308 131.872 44.1995 131.308 42.9219C130.725 41.6442 130.433 40.2633 130.433 38.779C130.433 37.3323 130.668 36.0265 131.139 34.8617C131.59 33.678 132.201 32.6353 132.972 31.7334C133.743 30.8128 134.636 30.0237 135.652 29.3661C136.686 28.6897 137.768 28.1355 138.896 27.7033C140.024 27.2712 141.162 26.9518 142.309 26.7451C143.475 26.5385 144.585 26.4351 145.638 26.4351C147.819 26.4351 149.907 26.6982 151.9 27.2242C153.894 27.7315 155.812 28.6427 157.655 29.9579L156.668 31.057C156.649 31.0383 156.404 30.8692 155.934 30.5498C155.464 30.2116 154.787 29.8452 153.903 29.4506C153.019 29.0561 151.919 28.6991 150.603 28.3797C149.305 28.0603 147.819 27.9006 146.146 27.9006C144.528 27.9006 142.958 28.1167 141.435 28.5488C139.93 28.9809 138.595 29.6385 137.429 30.5216C136.282 31.3858 135.36 32.485 134.665 33.8189C133.969 35.1341 133.621 36.6841 133.621 38.469C133.621 39.7466 133.865 40.9303 134.354 42.02C134.862 43.1097 135.558 44.0491 136.442 44.8383C137.326 45.6462 138.388 46.2756 139.629 46.7265C140.871 47.1774 142.243 47.4029 143.748 47.4029C146.005 47.4029 148.167 46.9238 150.236 45.9656C152.305 45.0074 154.298 43.711 156.216 42.0764C158.134 40.4418 159.977 38.5348 161.745 36.3553C163.532 34.1759 165.243 31.8743 166.879 29.4506C168.534 27.027 170.133 24.5375 171.675 21.9823C173.217 19.4271 174.712 16.9658 176.16 14.5985C177.608 12.2124 179.018 9.98598 180.391 7.91926C181.764 5.83376 183.109 4.03948 184.425 2.53642L185.695 3.29735C184.867 5.81498 184.152 8.03199 183.551 9.9484C182.949 11.846 182.422 13.5182 181.971 14.9649C181.538 16.4116 181.162 17.661 180.843 18.7131C180.542 19.7653 180.278 20.7047 180.053 21.5314C179.827 22.3581 179.62 23.1096 179.432 23.786C179.263 24.4436 179.084 25.1012 178.896 25.7587C178.727 26.4163 178.529 27.1115 178.304 27.8442C178.078 28.577 177.805 29.4319 177.486 30.4088C177.166 31.3671 176.79 32.485 176.357 33.7626C175.925 35.0214 175.398 36.515 174.778 38.2436C176.357 35.8575 177.975 33.5089 179.63 31.198C181.303 28.887 182.968 26.6512 184.623 24.4905C186.278 22.3299 187.895 20.2632 189.475 18.2904C191.073 16.3176 192.578 14.4858 193.988 12.7948C195.417 11.1039 196.724 9.57263 197.909 8.20109C199.113 6.81076 200.156 5.62709 201.04 4.6501C201.924 3.67311 202.61 2.91219 203.099 2.36732C203.607 1.82246 203.87 1.54064 203.889 1.52185L205.074 2.39551C203.965 5.1386 202.864 7.89108 201.774 10.653C200.683 13.3961 199.63 16.0734 198.614 18.685C197.618 21.2965 196.687 23.8142 195.822 26.2378C194.956 28.6615 194.204 30.9349 193.565 33.058C192.925 35.1623 192.418 37.0881 192.042 38.8354C191.684 40.5639 191.506 42.0482 191.506 43.2882C191.506 44.7537 191.675 46.0783 192.013 47.2619C192.371 48.4456 192.878 49.4508 193.537 50.2775C194.195 51.1042 195.003 51.7336 195.963 52.1657C196.941 52.6166 198.041 52.8421 199.263 52.8421C200.185 52.8421 201.078 52.7387 201.943 52.5321C202.827 52.3254 203.607 52.0999 204.284 51.8557C204.961 51.6114 205.507 51.386 205.92 51.1793C206.334 50.9726 206.55 50.8693 206.569 50.8693L207.303 52.1375Z" fill="url(#paint5_linear_180_777)"/>
<path d="M210.349 23.6732C209.277 25.3078 208.365 26.8673 207.613 28.3515C206.861 29.817 206.24 31.1792 205.751 32.438C205.262 33.6968 204.905 34.8429 204.679 35.8762C204.453 36.9096 204.341 37.802 204.341 38.5536C204.341 40.2821 204.839 41.1464 205.836 41.1464C206.438 41.1464 207.124 40.8457 207.895 40.2445C208.685 39.6433 209.484 38.8448 210.293 37.849C211.101 36.8532 211.891 35.7071 212.662 34.4108C213.433 33.1144 214.11 31.771 214.693 30.3807L214.722 30.4088C215.267 29.0561 215.859 27.7315 216.499 26.4351C217.157 25.1387 217.824 23.9551 218.502 22.8841L219.771 23.6732C219.451 24.5563 219.066 25.6272 218.614 26.886C218.163 28.1449 217.73 29.4694 217.317 30.8598C216.922 32.2313 216.574 33.6029 216.273 34.9744C215.991 36.346 215.85 37.586 215.85 38.6945C215.85 39.0139 215.859 39.3239 215.878 39.6245C215.916 39.9063 215.972 40.16 216.047 40.3854C216.123 40.6109 216.235 40.7894 216.386 40.9209C216.536 41.0524 216.724 41.1182 216.95 41.1182C217.589 41.1182 218.313 40.8363 219.122 40.2727C219.95 39.7091 220.768 38.9857 221.576 38.1027C222.404 37.2008 223.184 36.2144 223.918 35.1435C224.67 34.0538 225.3 33.0016 225.808 31.9871C225.055 30.5967 224.679 29.0185 224.679 27.2524C224.679 26.2754 224.764 25.4487 224.933 24.7724C225.121 24.096 225.347 23.5511 225.61 23.1378C225.873 22.7057 226.165 22.405 226.485 22.2359C226.804 22.0481 227.096 21.9541 227.359 21.9541C227.848 21.9541 228.271 22.1984 228.629 22.6869C229.005 23.1754 229.193 24.049 229.193 25.3078C229.193 26.2097 229.033 27.243 228.713 28.4079C228.393 29.554 227.951 30.747 227.387 31.9871C227.726 32.4756 228.14 32.8701 228.629 33.1707C229.117 33.4713 229.691 33.631 230.349 33.6498L230.095 35.0026C229.418 34.965 228.798 34.8053 228.234 34.5235C227.669 34.2229 227.171 33.8283 226.739 33.3398C226.118 34.5235 225.394 35.679 224.566 36.8063C223.758 37.9148 222.883 38.9012 221.943 39.7654C221.022 40.6297 220.053 41.3248 219.037 41.8509C218.022 42.377 216.997 42.64 215.963 42.64C215.53 42.64 215.116 42.5555 214.722 42.3864C214.345 42.2173 214.007 41.9636 213.706 41.6255C213.405 41.2873 213.17 40.8551 213.001 40.3291C212.832 39.803 212.747 39.183 212.747 38.469C212.747 38.206 212.756 37.9242 212.775 37.6236C212.794 37.3229 212.832 37.0129 212.888 36.6935C212.343 37.539 211.778 38.3281 211.195 39.0609C210.631 39.7936 210.048 40.423 209.446 40.9491C208.845 41.4752 208.215 41.8885 207.556 42.1891C206.917 42.4897 206.259 42.64 205.582 42.64C204.848 42.64 204.218 42.5179 203.692 42.2737C203.165 42.0106 202.733 41.6536 202.394 41.2027C202.056 40.733 201.811 40.1882 201.661 39.5681C201.492 38.9481 201.407 38.2717 201.407 37.539C201.407 36.2426 201.623 34.918 202.056 33.5653C202.469 32.2125 203.034 30.888 203.748 29.5916C204.463 28.2952 205.281 27.0739 206.202 25.9278C207.143 24.7818 208.121 23.7672 209.136 22.8841L210.349 23.6732ZM226.597 30.2679C226.955 29.4225 227.227 28.5676 227.416 27.7033C227.604 26.8391 227.698 25.9936 227.698 25.1669C227.698 24.5469 227.651 24.1054 227.557 23.8423C227.463 23.5793 227.387 23.429 227.331 23.3914C227.312 23.3914 227.237 23.4478 227.105 23.5605C226.992 23.6545 226.861 23.8423 226.71 24.1242C226.56 24.406 226.419 24.8005 226.287 25.3078C226.174 25.7963 226.118 26.4351 226.118 27.2242C226.118 27.7691 226.156 28.3046 226.231 28.8306C226.325 29.3567 226.447 29.8358 226.597 30.2679Z" fill="url(#paint6_linear_180_777)"/>
<path d="M233.227 35.989C233.189 36.2144 233.161 36.4399 233.142 36.6654C233.123 36.8908 233.114 37.1163 233.114 37.3417C233.114 38.0181 233.208 38.6663 233.396 39.2863C233.603 39.8875 233.894 40.423 234.27 40.8927C234.665 41.3436 235.145 41.7006 235.709 41.9636C236.292 42.2267 236.95 42.3582 237.684 42.3582C240.147 42.3582 242.526 41.5221 244.82 39.85C247.115 38.1778 249.4 35.5287 251.675 31.9025L252.634 32.748C251.393 34.8147 250.133 36.562 248.854 37.9899C247.576 39.399 246.297 40.5451 245.018 41.4282C243.758 42.3112 242.517 42.95 241.294 43.3446C240.072 43.7391 238.906 43.9364 237.796 43.9364C236.988 43.9364 236.132 43.8237 235.229 43.5982C234.327 43.3728 233.49 42.997 232.719 42.4709C231.967 41.9449 231.346 41.2403 230.857 40.3573C230.349 39.4742 230.095 38.3751 230.095 37.0599C230.095 35.6508 230.34 34.298 230.829 33.0016C231.299 31.6865 231.92 30.4652 232.691 29.3379C233.462 28.2106 234.346 27.1867 235.342 26.266C236.339 25.3266 237.345 24.5281 238.361 23.8705C239.395 23.2129 240.401 22.7057 241.379 22.3487C242.357 21.9729 243.222 21.785 243.974 21.785C244.463 21.785 244.961 21.8602 245.469 22.0105C245.977 22.1608 246.428 22.3956 246.823 22.715C247.237 23.0344 247.566 23.4572 247.811 23.9833C248.074 24.5093 248.205 25.1387 248.205 25.8715C248.205 26.8673 247.97 27.8067 247.5 28.6897C247.049 29.554 246.438 30.3619 245.667 31.1134C244.896 31.8462 244.002 32.5131 242.987 33.1144C241.971 33.6968 240.909 34.1947 239.799 34.608C238.69 35.0214 237.571 35.3502 236.442 35.5944C235.314 35.8387 234.242 35.9702 233.227 35.989ZM233.452 34.7771C234.712 34.6456 235.897 34.3826 237.007 33.988C238.116 33.5935 239.132 33.1144 240.053 32.5507C240.975 31.9683 241.793 31.3389 242.507 30.6625C243.241 29.9861 243.852 29.3003 244.341 28.6052C244.83 27.91 245.206 27.243 245.469 26.6042C245.733 25.9654 245.864 25.3924 245.864 24.8851C245.864 24.3778 245.723 23.9739 245.441 23.6732C245.178 23.3726 244.858 23.2223 244.482 23.2223C243.654 23.2223 242.724 23.5229 241.689 24.1242C240.655 24.7066 239.621 25.5239 238.586 26.576C237.552 27.6094 236.574 28.8306 235.653 30.2398C234.75 31.6489 234.016 33.1613 233.452 34.7771Z" fill="url(#paint7_linear_180_777)"/>
<path d="M267.754 29.6197C267.04 29.4506 266.419 29.2158 265.892 28.9152C265.385 28.5958 264.971 28.2388 264.651 27.8442C264.332 27.4497 264.097 27.0364 263.946 26.6042C263.796 26.1533 263.72 25.7118 263.72 25.2796C263.72 24.3402 263.984 23.6169 264.51 23.1096C265.037 22.5835 265.695 22.3205 266.485 22.3205C267.011 22.3205 267.463 22.4614 267.839 22.7432C268.215 23.0063 268.525 23.3632 268.77 23.8142C269.014 24.2651 269.193 24.7912 269.306 25.3924C269.419 25.9748 269.475 26.5854 269.475 27.2242C269.475 27.6564 269.456 28.0885 269.419 28.5206C269.381 28.934 269.315 29.3567 269.221 29.7888C268.77 31.818 268.102 33.6592 267.218 35.3126C266.353 36.9472 265.366 38.3563 264.256 39.54C263.166 40.7048 262 41.6067 260.758 42.2455C259.517 42.8655 258.304 43.1755 257.12 43.1755C256.311 43.1755 255.54 43.0628 254.806 42.8373C254.092 42.6118 253.452 42.2361 252.888 41.71C252.343 41.1839 251.91 40.4982 251.591 39.6527C251.271 38.7884 251.111 37.7269 251.111 36.4681C251.111 34.9086 251.412 33.0486 252.014 30.888C252.634 28.7273 253.678 26.1909 255.145 23.2787C257.251 19.2016 259.367 15.5473 261.492 12.3157C262.395 10.9442 263.344 9.60082 264.341 8.28564C265.338 6.97046 266.334 5.79619 267.331 4.76283C268.347 3.72948 269.343 2.90279 270.321 2.28278C271.318 1.64398 272.258 1.32457 273.142 1.32457C273.255 1.32457 273.452 1.34336 273.735 1.38094C274.035 1.41852 274.336 1.52185 274.637 1.69095C274.938 1.84125 275.201 2.0855 275.427 2.42369C275.672 2.74309 275.794 3.19401 275.794 3.77645C275.794 4.47161 275.606 5.35466 275.23 6.4256C274.872 7.47774 274.327 8.65201 273.594 9.9484C272.879 11.226 271.986 12.5975 270.914 14.063C269.861 15.5097 268.638 16.9658 267.247 18.4313C265.874 19.8968 264.341 21.3341 262.648 22.7432C260.975 24.1523 259.151 25.4675 257.176 26.6888C256.518 28.1167 255.963 29.4131 255.512 30.5779C255.079 31.724 254.731 32.7668 254.468 33.7062C254.205 34.6268 254.017 35.4441 253.904 36.1581C253.791 36.872 253.734 37.492 253.734 38.0181C253.734 38.7509 253.828 39.3615 254.017 39.85C254.223 40.3197 254.496 40.6954 254.835 40.9773C255.173 41.2403 255.559 41.4282 255.991 41.5409C256.424 41.6536 256.875 41.71 257.345 41.71C258.229 41.71 259.085 41.4845 259.912 41.0336C260.758 40.5827 261.558 40.0003 262.31 39.2863C263.062 38.5536 263.749 37.7363 264.369 36.8344C265.009 35.9326 265.563 35.0402 266.034 34.1571C266.504 33.2553 266.889 32.4098 267.19 31.6207C267.491 30.8128 267.679 30.1458 267.754 29.6197ZM258.361 24.1242C260.091 22.9405 261.68 21.6911 263.128 20.3759C264.595 19.0607 265.921 17.7455 267.105 16.4304C268.29 15.0964 269.334 13.8 270.237 12.5412C271.139 11.2636 271.892 10.0705 272.493 8.96202C273.095 7.85351 273.547 6.86712 273.847 6.00286C274.167 5.11981 274.327 4.40585 274.327 3.86099C274.327 3.3725 274.148 3.12825 273.791 3.12825C273.114 3.12825 272.296 3.49462 271.337 4.22737C270.397 4.96011 269.296 6.15317 268.036 7.80653C266.795 9.4599 265.366 11.6206 263.749 14.2885C262.15 16.9564 260.354 20.235 258.361 24.1242ZM267.952 28.1543C267.971 27.9852 267.98 27.8161 267.98 27.647C267.999 27.4779 268.008 27.3182 268.008 27.1679C268.008 26.1533 267.876 25.336 267.613 24.716C267.35 24.096 266.974 23.786 266.485 23.786C266.372 23.786 266.24 23.8048 266.09 23.8423C265.958 23.8611 265.817 23.9269 265.667 24.0396C265.535 24.1336 265.422 24.2745 265.328 24.4624C265.234 24.6502 265.187 24.8945 265.187 25.1951C265.187 25.9654 265.451 26.6042 265.977 27.1115C266.522 27.6 267.181 27.9476 267.952 28.1543Z" fill="url(#paint8_linear_180_777)"/>
<path d="M274.129 35.989C274.092 36.2144 274.064 36.4399 274.045 36.6654C274.026 36.8908 274.017 37.1163 274.017 37.3417C274.017 38.0181 274.111 38.6663 274.299 39.2863C274.506 39.8875 274.797 40.423 275.173 40.8927C275.568 41.3436 276.048 41.7006 276.612 41.9636C277.195 42.2267 277.853 42.3582 278.586 42.3582C281.05 42.3582 283.429 41.5221 285.723 39.85C288.018 38.1778 290.303 35.5287 292.578 31.9025L293.537 32.748C292.296 34.8147 291.036 36.562 289.757 37.9899C288.478 39.399 287.2 40.5451 285.921 41.4282C284.661 42.3112 283.42 42.95 282.197 43.3446C280.975 43.7391 279.809 43.9364 278.699 43.9364C277.891 43.9364 277.035 43.8237 276.132 43.5982C275.23 43.3728 274.393 42.997 273.622 42.4709C272.869 41.9449 272.249 41.2403 271.76 40.3573C271.252 39.4742 270.998 38.3751 270.998 37.0599C270.998 35.6508 271.243 34.298 271.732 33.0016C272.202 31.6865 272.822 30.4652 273.594 29.3379C274.365 28.2106 275.248 27.1867 276.245 26.266C277.242 25.3266 278.248 24.5281 279.263 23.8705C280.298 23.2129 281.304 22.7057 282.282 22.3487C283.26 21.9729 284.125 21.785 284.877 21.785C285.366 21.785 285.864 21.8602 286.372 22.0105C286.88 22.1608 287.331 22.3956 287.726 22.715C288.14 23.0344 288.469 23.4572 288.714 23.9833C288.977 24.5093 289.108 25.1387 289.108 25.8715C289.108 26.8673 288.873 27.8067 288.403 28.6897C287.952 29.554 287.341 30.3619 286.57 31.1134C285.799 31.8462 284.905 32.5131 283.89 33.1144C282.874 33.6968 281.812 34.1947 280.702 34.608C279.593 35.0214 278.474 35.3502 277.345 35.5944C276.217 35.8387 275.145 35.9702 274.129 35.989ZM274.355 34.7771C275.615 34.6456 276.8 34.3826 277.909 33.988C279.019 33.5935 280.035 33.1144 280.956 32.5507C281.878 31.9683 282.696 31.3389 283.41 30.6625C284.144 29.9861 284.755 29.3003 285.244 28.6052C285.733 27.91 286.109 27.243 286.372 26.6042C286.635 25.9654 286.767 25.3924 286.767 24.8851C286.767 24.3778 286.626 23.9739 286.344 23.6732C286.081 23.3726 285.761 23.2223 285.385 23.2223C284.557 23.2223 283.626 23.5229 282.592 24.1242C281.558 24.7066 280.523 25.5239 279.489 26.576C278.455 27.6094 277.477 28.8306 276.555 30.2398C275.653 31.6489 274.919 33.1613 274.355 34.7771Z" fill="url(#paint9_linear_180_777)"/>
<path d="M310.378 32.6916C310.096 33.105 309.757 33.6686 309.362 34.3826C308.986 35.0777 308.544 35.8387 308.037 36.6654C307.529 37.4732 306.965 38.2999 306.344 39.1454C305.742 39.9909 305.075 40.7518 304.341 41.4282C303.627 42.1046 302.846 42.6588 302 43.0909C301.154 43.5231 300.251 43.7391 299.292 43.7391C298.765 43.7391 298.267 43.6546 297.797 43.4855C297.327 43.3352 296.913 43.0909 296.556 42.7528C296.198 42.4146 295.916 42.0012 295.709 41.5127C295.502 41.0054 295.399 40.4136 295.399 39.7372C295.399 38.8166 295.578 37.8584 295.935 36.8626C296.311 35.8481 296.744 34.8711 297.233 33.9317C297.722 32.9922 298.21 32.1374 298.699 31.3671C299.188 30.5779 299.546 29.9485 299.771 29.4788C299.997 29.0091 300.11 28.6052 300.11 28.267C300.11 28.0227 300.025 27.8067 299.856 27.6188C299.706 27.4309 299.508 27.2524 299.264 27.0833C299.038 26.8954 298.793 26.7076 298.53 26.5197C298.286 26.313 298.079 26.0688 297.91 25.7869C297.439 26.5385 296.96 27.2994 296.471 28.0697C296.038 28.7273 295.568 29.4694 295.06 30.2961C294.553 31.104 294.064 31.9025 293.594 32.6916L292.578 31.9025L298.615 22.4614L299.433 22.8841C299.395 22.9969 299.329 23.1754 299.235 23.4196C299.16 23.6639 299.123 23.9269 299.123 24.2087C299.123 24.4154 299.151 24.6221 299.207 24.8287C299.282 25.0166 299.423 25.1951 299.63 25.3642C300.383 26.0406 300.975 26.5666 301.408 26.9424C301.84 27.2994 302.15 27.5906 302.338 27.8161C302.545 28.0227 302.667 28.2012 302.705 28.3515C302.762 28.483 302.79 28.6615 302.79 28.887C302.79 29.1125 302.752 29.3849 302.677 29.7043C302.602 30.0237 302.47 30.4088 302.282 30.8598C302.113 31.3107 301.868 31.8462 301.549 32.4662C301.248 33.0674 300.862 33.772 300.392 34.5798C300.11 35.0683 299.828 35.5662 299.546 36.0735C299.282 36.562 299.038 37.0599 298.812 37.5672C298.605 38.0745 298.436 38.5818 298.305 39.089C298.173 39.5963 298.107 40.0848 298.107 40.5545C298.107 40.9115 298.154 41.2027 298.248 41.4282C298.361 41.6349 298.502 41.7946 298.671 41.9073C298.84 42.02 299.019 42.0952 299.207 42.1327C299.414 42.1703 299.612 42.1891 299.8 42.1891C300.42 42.1891 301.031 42.0106 301.633 41.6536C302.254 41.2779 302.856 40.7988 303.439 40.2163C304.04 39.6339 304.614 38.9763 305.159 38.2436C305.723 37.492 306.259 36.7311 306.767 35.9608C307.275 35.1905 307.745 34.4577 308.178 33.7626C308.61 33.0486 308.996 32.4286 309.334 31.9025L310.378 32.6916Z" fill="url(#paint10_linear_180_777)"/>
<path d="M322 17.4167C322 17.7925 321.906 18.1871 321.718 18.6004C321.53 18.995 321.285 19.3519 320.984 19.6713C320.702 19.9907 320.383 20.2538 320.025 20.4604C319.668 20.6671 319.311 20.7705 318.953 20.7705C318.634 20.7705 318.389 20.6577 318.22 20.4323C318.051 20.188 317.966 19.8968 317.966 19.5586C317.966 19.258 318.023 18.901 318.135 18.4877C318.248 18.0743 318.417 17.6892 318.643 17.3322C318.869 16.9564 319.142 16.637 319.461 16.374C319.781 16.111 320.148 15.9794 320.561 15.9794C320.956 15.9794 321.295 16.1297 321.577 16.4304C321.859 16.731 322 17.0598 322 17.4167ZM316.725 23.6732C316.48 24.1617 316.133 24.8099 315.681 25.6178C315.249 26.4069 314.779 27.2806 314.271 28.2388C313.763 29.1782 313.246 30.174 312.719 31.2261C312.193 32.2595 311.713 33.2741 311.281 34.2698C310.867 35.2468 310.528 36.1675 310.265 37.0317C310.002 37.896 309.87 38.6287 309.87 39.23C309.87 39.7748 309.983 40.1506 310.209 40.3573C310.434 40.5451 310.754 40.6391 311.168 40.6391C311.939 40.6391 312.691 40.3854 313.424 39.8781C314.158 39.3709 314.882 38.7133 315.597 37.9054C316.33 37.0787 317.045 36.1393 317.74 35.0871C318.436 34.035 319.132 32.9734 319.828 31.9025L320.843 32.6916C320.298 33.6686 319.677 34.7114 318.982 35.8199C318.305 36.9284 317.543 37.9617 316.697 38.9199C315.85 39.8594 314.92 40.6391 313.904 41.2591C312.889 41.8791 311.779 42.1891 310.575 42.1891C309.447 42.1891 308.582 41.8509 307.98 41.1745C307.378 40.4982 307.077 39.6245 307.077 38.5536C307.077 37.2948 307.369 35.9796 307.952 34.608C308.535 33.2365 309.259 31.8837 310.124 30.5498C311.008 29.197 311.958 27.9006 312.973 26.6606C314.007 25.4206 314.957 24.2933 315.822 23.2787L316.725 23.6732Z" fill="url(#paint11_linear_180_777)"/>
<path d="M3.44736 58.8731H0V57.4264H8.54025V58.8731H5.09288V68.8685H3.44736V58.8731Z" fill="url(#paint12_linear_180_777)"/>
<path d="M10.482 57.4264H17.8786V58.8567H12.1275V62.2268H16.4799V63.6078H12.1275V67.4218H17.8786V68.8685H10.482V57.4264Z" fill="url(#paint13_linear_180_777)"/>
<path d="M28.1055 68.8027C27.5625 68.9014 26.8302 68.9507 25.9087 68.9507C24.9927 68.9507 24.1645 68.8246 23.424 68.5726C22.689 68.3205 22.0554 67.9479 21.5234 67.4547C20.3825 66.397 19.8121 64.9229 19.8121 63.0324C19.8121 61.7994 20.1055 60.7308 20.6924 59.8266C21.4877 58.6046 22.7082 57.8264 24.3537 57.4922C24.8583 57.3935 25.4589 57.3442 26.1555 57.3442C26.8576 57.3442 27.4198 57.3826 27.8422 57.4593V59.0293C27.4582 58.9087 26.8631 58.8484 26.0568 58.8484C25.256 58.8484 24.5758 58.9471 24.0164 59.1444C23.4569 59.3416 22.9934 59.6239 22.6259 59.991C21.8909 60.7089 21.5234 61.7227 21.5234 63.0324C21.5234 64.353 21.8854 65.3997 22.6094 66.1724C23.3938 67.0053 24.521 67.4218 25.991 67.4218C26.8521 67.4218 27.557 67.356 28.1055 67.2245V68.8027Z" fill="url(#paint14_linear_180_777)"/>
<path d="M30.1624 57.4264H31.8079V61.9473H37.2217V57.4264H38.8672V68.8685H37.2217V63.394H31.8079V68.8685H30.1624V57.4264Z" fill="url(#paint15_linear_180_777)"/>
<path d="M47.1441 57.4264H50.394C52.5606 57.4264 53.9566 58.0676 54.5819 59.3499C54.8068 59.8211 54.9192 60.3801 54.9192 61.0267C54.9192 61.6733 54.804 62.2268 54.5737 62.6871C54.3433 63.1474 54.0334 63.5256 53.6439 63.8215C52.887 64.3914 51.875 64.6763 50.608 64.6763H48.7897V68.8685H47.1441V57.4264ZM50.2871 63.3612C51.2799 63.3612 52.0149 63.1694 52.4921 62.7858C52.9693 62.4022 53.2079 61.8049 53.2079 60.9938C53.2079 59.9143 52.706 59.2183 51.7022 58.906C51.3512 58.7964 50.9261 58.7416 50.427 58.7416H48.7897V63.3612H50.2871Z" fill="url(#paint16_linear_180_777)"/>
<path d="M56.9843 57.4264H60.2342C62.4009 57.4264 63.7968 58.0676 64.4221 59.3499C64.647 59.8211 64.7594 60.3527 64.7594 60.9445C64.7594 61.5309 64.6799 62.0268 64.5208 62.4323C64.3672 62.8378 64.1506 63.1858 63.8708 63.4762C63.3333 64.0352 62.5928 64.4024 61.6494 64.5777C62.0388 65.7778 62.6998 66.6053 63.6322 67.0601C63.9394 67.2135 64.1972 67.2957 64.4056 67.3067C64.7567 67.3177 65.0035 67.3067 65.1461 67.2738V68.8685H64.7759C63.5417 68.8685 62.4914 68.4301 61.6247 67.5533C60.8623 66.7916 60.3494 65.8326 60.0862 64.6763H58.6299V68.8685H56.9843V57.4264ZM60.1273 63.3612C61.1201 63.3612 61.8551 63.1694 62.3323 62.7858C62.8095 62.4022 63.0481 61.8049 63.0481 60.9938C63.0481 59.9143 62.5462 59.2183 61.5424 58.906C61.1914 58.7964 60.7663 58.7416 60.2672 58.7416H58.6299V63.3612H60.1273Z" fill="url(#paint17_linear_180_777)"/>
<path d="M66.3227 63.1639C66.3227 62.2707 66.4571 61.4624 66.7258 60.739C66.9946 60.0157 67.3676 59.3992 67.8448 58.8895C68.8485 57.8264 70.1512 57.2949 71.7529 57.2949C73.36 57.2949 74.66 57.8264 75.6528 58.8895C76.662 59.9691 77.1666 61.3939 77.1666 63.1639C77.1666 64.9339 76.662 66.3532 75.6528 67.4218C74.6655 68.4739 73.3655 69 71.7529 69C70.1458 69 68.8431 68.4739 67.8448 67.4218C66.83 66.3477 66.3227 64.9284 66.3227 63.1639ZM67.9682 63.1557C67.9682 64.4051 68.2726 65.438 68.8815 66.2546C69.5671 67.1642 70.5242 67.6191 71.7529 67.6191C72.9815 67.6191 73.9359 67.1642 74.6161 66.2546C75.2195 65.449 75.5211 64.4215 75.5211 63.1721C75.5211 61.9117 75.2195 60.8733 74.6161 60.0568C73.9359 59.1361 72.9815 58.6758 71.7529 58.6758C70.5187 58.6758 69.5616 59.1361 68.8815 60.0568C68.2726 60.8733 67.9682 61.9062 67.9682 63.1557Z" fill="url(#paint18_linear_180_777)"/>
<path d="M79.3305 57.4346H82.1114C83.9873 57.4346 85.4738 57.8977 86.5708 58.8238C87.7556 59.8157 88.348 61.2624 88.348 63.1639C88.348 65.0654 87.772 66.5094 86.6202 67.4958C85.5451 68.4109 84.0696 68.8685 82.1937 68.8685H79.3305V57.4346ZM86.6613 63.1721C86.6613 60.2294 85.109 58.758 82.0045 58.758H80.976V67.5533H82.095C84.4645 67.5533 85.9071 66.6984 86.4227 64.9887C86.5818 64.4462 86.6613 63.8407 86.6613 63.1721Z" fill="url(#paint19_linear_180_777)"/>
<path d="M94.9218 67.5862C96.7209 67.5862 97.6205 66.482 97.6205 64.2736V57.4264H99.266V64.2736C99.266 65.8901 98.8573 67.1012 98.0401 67.9068C97.2996 68.6356 96.2602 69 94.9218 69C92.8539 69 91.5128 68.1479 90.8985 66.4436C90.6791 65.8463 90.5694 65.123 90.5694 64.2736V57.4264H92.2149V64.2736C92.2149 66.482 93.1172 67.5862 94.9218 67.5862Z" fill="url(#paint20_linear_180_777)"/>
<path d="M109.592 68.8027C109.049 68.9014 108.316 68.9507 107.395 68.9507C106.479 68.9507 105.651 68.8246 104.91 68.5726C104.175 68.3205 103.542 67.9479 103.01 67.4547C101.869 66.397 101.298 64.9229 101.298 63.0324C101.298 61.7994 101.592 60.7308 102.179 59.8266C102.974 58.6046 104.194 57.8264 105.84 57.4922C106.344 57.3935 106.945 57.3442 107.642 57.3442C108.344 57.3442 108.906 57.3826 109.328 57.4593V59.0293C108.944 58.9087 108.349 58.8484 107.543 58.8484C106.742 58.8484 106.062 58.9471 105.502 59.1444C104.943 59.3416 104.48 59.6239 104.112 59.991C103.377 60.7089 103.01 61.7227 103.01 63.0324C103.01 64.353 103.372 65.3997 104.096 66.1724C104.88 67.0053 106.007 67.4218 107.477 67.4218C108.338 67.4218 109.043 67.356 109.592 67.2245V68.8027Z" fill="url(#paint21_linear_180_777)"/>
<path d="M114.454 58.8731H111.007V57.4264H119.547V58.8731H116.1V68.8685H114.454V58.8731Z" fill="url(#paint22_linear_180_777)"/>
<path d="M127.026 57.4264H128.079L132.16 62.1117L136.224 57.4264H137.277V68.8685H135.632V60.1554L135.147 60.813L132.16 64.29L129.173 60.8212L128.671 60.1636V68.8685H127.026V57.4264Z" fill="url(#paint23_linear_180_777)"/>
<path d="M143.522 57.4264H144.649L149.479 68.8685H147.768L146.608 65.9915H141.523L140.371 68.8685H138.693L143.522 57.4264ZM146.081 64.6763L144.073 59.6622L142.058 64.6763H146.081Z" fill="url(#paint24_linear_180_777)"/>
<path d="M151.108 57.4264H154.358C156.525 57.4264 157.921 58.0676 158.546 59.3499C158.771 59.8211 158.883 60.3527 158.883 60.9445C158.883 61.5309 158.804 62.0268 158.645 62.4323C158.491 62.8378 158.274 63.1858 157.995 63.4762C157.457 64.0352 156.717 64.4024 155.773 64.5777C156.163 65.7778 156.824 66.6053 157.756 67.0601C158.063 67.2135 158.321 67.2957 158.529 67.3067C158.88 67.3177 159.127 67.3067 159.27 67.2738V68.8685H158.9C157.665 68.8685 156.615 68.4301 155.748 67.5533C154.986 66.7916 154.473 65.8326 154.21 64.6763H152.754V68.8685H151.108V57.4264ZM154.251 63.3612C155.244 63.3612 155.979 63.1694 156.456 62.7858C156.933 62.4022 157.172 61.8049 157.172 60.9938C157.172 59.9143 156.67 59.2183 155.666 58.906C155.315 58.7964 154.89 58.7416 154.391 58.7416H152.754V63.3612H154.251Z" fill="url(#paint25_linear_180_777)"/>
<path d="M160.817 57.4264H162.454V62.7858L166.864 57.4264H168.921L164.223 62.9337L169.283 68.8685H167.242L162.454 63.1639V68.8685H160.817V57.4264Z" fill="url(#paint26_linear_180_777)"/>
<path d="M170.657 57.4264H178.053V58.8567H172.302V62.2268H176.655V63.6078H172.302V67.4218H178.053V68.8685H170.657V57.4264Z" fill="url(#paint27_linear_180_777)"/>
<path d="M183.303 58.8731H179.855V57.4264H188.396V58.8731H184.948V68.8685H183.303V58.8731Z" fill="url(#paint28_linear_180_777)"/>
<path d="M190.354 57.4264H191.999V68.8685H190.354V57.4264Z" fill="url(#paint29_linear_180_777)"/>
<path d="M194.542 57.4264H195.726L201.708 65.8682L201.617 64.6846V57.4264H203.246V68.8685H202.07L197.076 61.8569L196.08 60.4267L196.171 61.8569V68.8685H194.542V57.4264Z" fill="url(#paint30_linear_180_777)"/>
<path d="M214.378 68.7534C213.748 68.9178 212.914 69 211.877 69C210.846 69 209.96 68.8712 209.22 68.6137C208.485 68.3561 207.851 67.9753 207.319 67.4711C206.178 66.408 205.608 64.9284 205.608 63.0324C205.608 61.7939 205.904 60.7253 206.496 59.8266C207.297 58.6046 208.528 57.8264 210.19 57.4922C210.701 57.3935 211.326 57.3442 212.066 57.3442C212.807 57.3442 213.446 57.3798 213.983 57.4511V59.0293C213.512 58.9087 212.837 58.8484 211.959 58.8484C211.087 58.8484 210.371 58.9471 209.812 59.1444C209.253 59.3416 208.789 59.6239 208.422 59.991C207.687 60.7089 207.319 61.7227 207.319 63.0324C207.319 64.364 207.681 65.4298 208.405 66.2299C209.195 67.1012 210.322 67.5369 211.787 67.5369C212.127 67.5369 212.442 67.5232 212.733 67.4958V63.279H214.378V68.7534Z" fill="url(#paint31_linear_180_777)"/>
<path d="M230.422 68.8027C229.879 68.9014 229.147 68.9507 228.225 68.9507C227.309 68.9507 226.481 68.8246 225.741 68.5726C225.006 68.3205 224.372 67.9479 223.84 67.4547C222.699 66.397 222.129 64.9229 222.129 63.0324C222.129 61.7994 222.422 60.7308 223.009 59.8266C223.804 58.6046 225.025 57.8264 226.67 57.4922C227.175 57.3935 227.776 57.3442 228.472 57.3442C229.174 57.3442 229.736 57.3826 230.159 57.4593V59.0293C229.775 58.9087 229.18 58.8484 228.373 58.8484C227.573 58.8484 226.892 58.9471 226.333 59.1444C225.774 59.3416 225.31 59.6239 224.943 59.991C224.208 60.7089 223.84 61.7227 223.84 63.0324C223.84 64.353 224.202 65.3997 224.926 66.1724C225.71 67.0053 226.838 67.4218 228.308 67.4218C229.169 67.4218 229.874 67.356 230.422 67.2245V68.8027Z" fill="url(#paint32_linear_180_777)"/>
<path d="M232.109 63.1639C232.109 62.2707 232.243 61.4624 232.512 60.739C232.781 60.0157 233.154 59.3992 233.631 58.8895C234.635 57.8264 235.937 57.2949 237.539 57.2949C239.146 57.2949 240.446 57.8264 241.439 58.8895C242.448 59.9691 242.953 61.3939 242.953 63.1639C242.953 64.9339 242.448 66.3532 241.439 67.4218C240.452 68.4739 239.152 69 237.539 69C235.932 69 234.629 68.4739 233.631 67.4218C232.616 66.3477 232.109 64.9284 232.109 63.1639ZM233.754 63.1557C233.754 64.4051 234.059 65.438 234.668 66.2546C235.353 67.1642 236.31 67.6191 237.539 67.6191C238.768 67.6191 239.722 67.1642 240.402 66.2546C241.006 65.449 241.307 64.4215 241.307 63.1721C241.307 61.9117 241.006 60.8733 240.402 60.0568C239.722 59.1361 238.768 58.6758 237.539 58.6758C236.305 58.6758 235.348 59.1361 234.668 60.0568C234.059 60.8733 233.754 61.9062 233.754 63.1557Z" fill="url(#paint33_linear_180_777)"/>
<path d="M245.108 57.4264H246.293L252.275 65.8682L252.184 64.6846V57.4264H253.813V68.8685H252.637L247.642 61.8569L246.647 60.4267L246.737 61.8569V68.8685H245.108V57.4264Z" fill="url(#paint34_linear_180_777)"/>
<path d="M262.88 68.0712C262.491 68.3451 261.991 68.5616 261.383 68.7205C260.774 68.874 260.028 68.9507 259.145 68.9507C258.267 68.9507 257.381 68.8986 256.487 68.7945V67.1998C257.288 67.3807 258.094 67.4711 258.906 67.4711C259.718 67.4711 260.327 67.4273 260.733 67.3396C261.138 67.2464 261.465 67.1259 261.712 66.9779C262.167 66.7039 262.395 66.3477 262.395 65.9093C262.395 65.5696 262.307 65.3065 262.131 65.1202C261.852 64.8298 261.448 64.564 260.922 64.3229L258.816 63.3612C258.092 63.0214 257.579 62.7063 257.277 62.4159C256.63 61.7912 256.306 61.0678 256.306 60.2458C256.306 59.4019 256.674 58.7197 257.409 58.1991C258.215 57.6292 259.361 57.3442 260.848 57.3442C261.808 57.3442 262.685 57.3826 263.481 57.4593V59.0293C262.806 58.8759 262.052 58.7991 261.218 58.7991C260.39 58.7991 259.786 58.843 259.408 58.9306C259.035 59.0128 258.742 59.1197 258.528 59.2512C258.138 59.4923 257.943 59.8102 257.943 60.2047C257.943 60.5883 258.067 60.9062 258.314 61.1582C258.533 61.372 258.934 61.6185 259.515 61.898L261.679 62.9255C262.397 63.2653 262.899 63.5858 263.184 63.8872C263.475 64.1886 263.689 64.4928 263.826 64.7996C263.963 65.101 264.032 65.4655 264.032 65.8929C264.032 66.3148 263.939 66.7149 263.752 67.093C263.566 67.4656 263.275 67.7917 262.88 68.0712Z" fill="url(#paint35_linear_180_777)"/>
<path d="M270.548 67.5862C272.347 67.5862 273.247 66.482 273.247 64.2736V57.4264H274.892V64.2736C274.892 65.8901 274.484 67.1012 273.666 67.9068C272.926 68.6356 271.886 69 270.548 69C268.48 69 267.139 68.1479 266.525 66.4436C266.305 65.8463 266.196 65.123 266.196 64.2736V57.4264H267.841V64.2736C267.841 66.482 268.744 67.5862 270.548 67.5862Z" fill="url(#paint36_linear_180_777)"/>
<path d="M277.435 57.4264H279.08V67.4218H283.984V68.8685H277.435V57.4264Z" fill="url(#paint37_linear_180_777)"/>
<path d="M288.682 58.8731H285.234V57.4264H293.775V58.8731H290.327V68.8685H288.682V58.8731Z" fill="url(#paint38_linear_180_777)"/>
<path d="M295.733 57.4264H297.378V68.8685H295.733V57.4264Z" fill="url(#paint39_linear_180_777)"/>
<path d="M299.921 57.4264H301.105L307.087 65.8682L306.996 64.6846V57.4264H308.625V68.8685H307.449L302.455 61.8569L301.459 60.4267L301.55 61.8569V68.8685H299.921V57.4264Z" fill="url(#paint40_linear_180_777)"/>
<path d="M319.757 68.7534C319.127 68.9178 318.293 69 317.256 69C316.225 69 315.339 68.8712 314.599 68.6137C313.864 68.3561 313.23 67.9753 312.698 67.4711C311.557 66.408 310.987 64.9284 310.987 63.0324C310.987 61.7939 311.283 60.7253 311.875 59.8266C312.676 58.6046 313.908 57.8264 315.57 57.4922C316.08 57.3935 316.705 57.3442 317.445 57.3442C318.186 57.3442 318.825 57.3798 319.362 57.4511V59.0293C318.891 58.9087 318.216 58.8484 317.338 58.8484C316.466 58.8484 315.751 58.9471 315.191 59.1444C314.632 59.3416 314.168 59.6239 313.801 59.991C313.066 60.7089 312.698 61.7227 312.698 63.0324C312.698 64.364 313.06 65.4298 313.784 66.2299C314.574 67.1012 315.701 67.5369 317.166 67.5369C317.506 67.5369 317.821 67.5232 318.112 67.4958V63.279H319.757V68.7534Z" fill="url(#paint41_linear_180_777)"/>
<defs>
<linearGradient id="paint0_linear_180_777" x1="0" y1="46.8846" x2="322" y2="46.8846" gradientUnits="userSpaceOnUse">
<stop stop-color="#EDC474"/>
<stop offset="0.609375" stop-color="#CB9D52"/>
<stop offset="1" stop-color="#B6853C"/>
</linearGradient>
<linearGradient id="paint1_linear_180_777" x1="0" y1="46.8846" x2="322" y2="46.8846" gradientUnits="userSpaceOnUse">
<stop stop-color="#EDC474"/>
<stop offset="0.609375" stop-color="#CB9D52"/>
<stop offset="1" stop-color="#B6853C"/>
</linearGradient>
<linearGradient id="paint2_linear_180_777" x1="0" y1="46.8846" x2="322" y2="46.8846" gradientUnits="userSpaceOnUse">
<stop stop-color="#EDC474"/>
<stop offset="0.609375" stop-color="#CB9D52"/>
<stop offset="1" stop-color="#B6853C"/>
</linearGradient>
<linearGradient id="paint3_linear_180_777" x1="0" y1="46.8846" x2="322" y2="46.8846" gradientUnits="userSpaceOnUse">
<stop stop-color="#EDC474"/>
<stop offset="0.609375" stop-color="#CB9D52"/>
<stop offset="1" stop-color="#B6853C"/>
</linearGradient>
<linearGradient id="paint4_linear_180_777" x1="0" y1="46.8846" x2="322" y2="46.8846" gradientUnits="userSpaceOnUse">
<stop stop-color="#EDC474"/>
<stop offset="0.609375" stop-color="#CB9D52"/>
<stop offset="1" stop-color="#B6853C"/>
</linearGradient>
<linearGradient id="paint5_linear_180_777" x1="0" y1="46.8846" x2="322" y2="46.8846" gradientUnits="userSpaceOnUse">
<stop stop-color="#EDC474"/>
<stop offset="0.609375" stop-color="#CB9D52"/>
<stop offset="1" stop-color="#B6853C"/>
</linearGradient>
<linearGradient id="paint6_linear_180_777" x1="0" y1="46.8846" x2="322" y2="46.8846" gradientUnits="userSpaceOnUse">
<stop stop-color="#EDC474"/>
<stop offset="0.609375" stop-color="#CB9D52"/>
<stop offset="1" stop-color="#B6853C"/>
</linearGradient>
<linearGradient id="paint7_linear_180_777" x1="0" y1="46.8846" x2="322" y2="46.8846" gradientUnits="userSpaceOnUse">
<stop stop-color="#EDC474"/>
<stop offset="0.609375" stop-color="#CB9D52"/>
<stop offset="1" stop-color="#B6853C"/>
</linearGradient>
<linearGradient id="paint8_linear_180_777" x1="0" y1="46.8846" x2="322" y2="46.8846" gradientUnits="userSpaceOnUse">
<stop stop-color="#EDC474"/>
<stop offset="0.609375" stop-color="#CB9D52"/>
<stop offset="1" stop-color="#B6853C"/>
</linearGradient>
<linearGradient id="paint9_linear_180_777" x1="0" y1="46.8846" x2="322" y2="46.8846" gradientUnits="userSpaceOnUse">
<stop stop-color="#EDC474"/>
<stop offset="0.609375" stop-color="#CB9D52"/>
<stop offset="1" stop-color="#B6853C"/>
</linearGradient>
<linearGradient id="paint10_linear_180_777" x1="0" y1="46.8846" x2="322" y2="46.8846" gradientUnits="userSpaceOnUse">
<stop stop-color="#EDC474"/>
<stop offset="0.609375" stop-color="#CB9D52"/>
<stop offset="1" stop-color="#B6853C"/>
</linearGradient>
<linearGradient id="paint11_linear_180_777" x1="0" y1="46.8846" x2="322" y2="46.8846" gradientUnits="userSpaceOnUse">
<stop stop-color="#EDC474"/>
<stop offset="0.609375" stop-color="#CB9D52"/>
<stop offset="1" stop-color="#B6853C"/>
</linearGradient>
<linearGradient id="paint12_linear_180_777" x1="0" y1="46.8846" x2="322" y2="46.8846" gradientUnits="userSpaceOnUse">
<stop stop-color="#EDC474"/>
<stop offset="0.609375" stop-color="#CB9D52"/>
<stop offset="1" stop-color="#B6853C"/>
</linearGradient>
<linearGradient id="paint13_linear_180_777" x1="0" y1="46.8846" x2="322" y2="46.8846" gradientUnits="userSpaceOnUse">
<stop stop-color="#EDC474"/>
<stop offset="0.609375" stop-color="#CB9D52"/>
<stop offset="1" stop-color="#B6853C"/>
</linearGradient>
<linearGradient id="paint14_linear_180_777" x1="0" y1="46.8846" x2="322" y2="46.8846" gradientUnits="userSpaceOnUse">
<stop stop-color="#EDC474"/>
<stop offset="0.609375" stop-color="#CB9D52"/>
<stop offset="1" stop-color="#B6853C"/>
</linearGradient>
<linearGradient id="paint15_linear_180_777" x1="0" y1="46.8846" x2="322" y2="46.8846" gradientUnits="userSpaceOnUse">
<stop stop-color="#EDC474"/>
<stop offset="0.609375" stop-color="#CB9D52"/>
<stop offset="1" stop-color="#B6853C"/>
</linearGradient>
<linearGradient id="paint16_linear_180_777" x1="0" y1="46.8846" x2="322" y2="46.8846" gradientUnits="userSpaceOnUse">
<stop stop-color="#EDC474"/>
<stop offset="0.609375" stop-color="#CB9D52"/>
<stop offset="1" stop-color="#B6853C"/>
</linearGradient>
<linearGradient id="paint17_linear_180_777" x1="0" y1="46.8846" x2="322" y2="46.8846" gradientUnits="userSpaceOnUse">
<stop stop-color="#EDC474"/>
<stop offset="0.609375" stop-color="#CB9D52"/>
<stop offset="1" stop-color="#B6853C"/>
</linearGradient>
<linearGradient id="paint18_linear_180_777" x1="0" y1="46.8846" x2="322" y2="46.8846" gradientUnits="userSpaceOnUse">
<stop stop-color="#EDC474"/>
<stop offset="0.609375" stop-color="#CB9D52"/>
<stop offset="1" stop-color="#B6853C"/>
</linearGradient>
<linearGradient id="paint19_linear_180_777" x1="0" y1="46.8846" x2="322" y2="46.8846" gradientUnits="userSpaceOnUse">
<stop stop-color="#EDC474"/>
<stop offset="0.609375" stop-color="#CB9D52"/>
<stop offset="1" stop-color="#B6853C"/>
</linearGradient>
<linearGradient id="paint20_linear_180_777" x1="0" y1="46.8846" x2="322" y2="46.8846" gradientUnits="userSpaceOnUse">
<stop stop-color="#EDC474"/>
<stop offset="0.609375" stop-color="#CB9D52"/>
<stop offset="1" stop-color="#B6853C"/>
</linearGradient>
<linearGradient id="paint21_linear_180_777" x1="0" y1="46.8846" x2="322" y2="46.8846" gradientUnits="userSpaceOnUse">
<stop stop-color="#EDC474"/>
<stop offset="0.609375" stop-color="#CB9D52"/>
<stop offset="1" stop-color="#B6853C"/>
</linearGradient>
<linearGradient id="paint22_linear_180_777" x1="0" y1="46.8846" x2="322" y2="46.8846" gradientUnits="userSpaceOnUse">
<stop stop-color="#EDC474"/>
<stop offset="0.609375" stop-color="#CB9D52"/>
<stop offset="1" stop-color="#B6853C"/>
</linearGradient>
<linearGradient id="paint23_linear_180_777" x1="0" y1="46.8846" x2="322" y2="46.8846" gradientUnits="userSpaceOnUse">
<stop stop-color="#EDC474"/>
<stop offset="0.609375" stop-color="#CB9D52"/>
<stop offset="1" stop-color="#B6853C"/>
</linearGradient>
<linearGradient id="paint24_linear_180_777" x1="0" y1="46.8846" x2="322" y2="46.8846" gradientUnits="userSpaceOnUse">
<stop stop-color="#EDC474"/>
<stop offset="0.609375" stop-color="#CB9D52"/>
<stop offset="1" stop-color="#B6853C"/>
</linearGradient>
<linearGradient id="paint25_linear_180_777" x1="0" y1="46.8846" x2="322" y2="46.8846" gradientUnits="userSpaceOnUse">
<stop stop-color="#EDC474"/>
<stop offset="0.609375" stop-color="#CB9D52"/>
<stop offset="1" stop-color="#B6853C"/>
</linearGradient>
<linearGradient id="paint26_linear_180_777" x1="0" y1="46.8846" x2="322" y2="46.8846" gradientUnits="userSpaceOnUse">
<stop stop-color="#EDC474"/>
<stop offset="0.609375" stop-color="#CB9D52"/>
<stop offset="1" stop-color="#B6853C"/>
</linearGradient>
<linearGradient id="paint27_linear_180_777" x1="0" y1="46.8846" x2="322" y2="46.8846" gradientUnits="userSpaceOnUse">
<stop stop-color="#EDC474"/>
<stop offset="0.609375" stop-color="#CB9D52"/>
<stop offset="1" stop-color="#B6853C"/>
</linearGradient>
<linearGradient id="paint28_linear_180_777" x1="0" y1="46.8846" x2="322" y2="46.8846" gradientUnits="userSpaceOnUse">
<stop stop-color="#EDC474"/>
<stop offset="0.609375" stop-color="#CB9D52"/>
<stop offset="1" stop-color="#B6853C"/>
</linearGradient>
<linearGradient id="paint29_linear_180_777" x1="0" y1="46.8846" x2="322" y2="46.8846" gradientUnits="userSpaceOnUse">
<stop stop-color="#EDC474"/>
<stop offset="0.609375" stop-color="#CB9D52"/>
<stop offset="1" stop-color="#B6853C"/>
</linearGradient>
<linearGradient id="paint30_linear_180_777" x1="0" y1="46.8846" x2="322" y2="46.8846" gradientUnits="userSpaceOnUse">
<stop stop-color="#EDC474"/>
<stop offset="0.609375" stop-color="#CB9D52"/>
<stop offset="1" stop-color="#B6853C"/>
</linearGradient>
<linearGradient id="paint31_linear_180_777" x1="0" y1="46.8846" x2="322" y2="46.8846" gradientUnits="userSpaceOnUse">
<stop stop-color="#EDC474"/>
<stop offset="0.609375" stop-color="#CB9D52"/>
<stop offset="1" stop-color="#B6853C"/>
</linearGradient>
<linearGradient id="paint32_linear_180_777" x1="0" y1="46.8846" x2="322" y2="46.8846" gradientUnits="userSpaceOnUse">
<stop stop-color="#EDC474"/>
<stop offset="0.609375" stop-color="#CB9D52"/>
<stop offset="1" stop-color="#B6853C"/>
</linearGradient>
<linearGradient id="paint33_linear_180_777" x1="0" y1="46.8846" x2="322" y2="46.8846" gradientUnits="userSpaceOnUse">
<stop stop-color="#EDC474"/>
<stop offset="0.609375" stop-color="#CB9D52"/>
<stop offset="1" stop-color="#B6853C"/>
</linearGradient>
<linearGradient id="paint34_linear_180_777" x1="0" y1="46.8846" x2="322" y2="46.8846" gradientUnits="userSpaceOnUse">
<stop stop-color="#EDC474"/>
<stop offset="0.609375" stop-color="#CB9D52"/>
<stop offset="1" stop-color="#B6853C"/>
</linearGradient>
<linearGradient id="paint35_linear_180_777" x1="0" y1="46.8846" x2="322" y2="46.8846" gradientUnits="userSpaceOnUse">
<stop stop-color="#EDC474"/>
<stop offset="0.609375" stop-color="#CB9D52"/>
<stop offset="1" stop-color="#B6853C"/>
</linearGradient>
<linearGradient id="paint36_linear_180_777" x1="0" y1="46.8846" x2="322" y2="46.8846" gradientUnits="userSpaceOnUse">
<stop stop-color="#EDC474"/>
<stop offset="0.609375" stop-color="#CB9D52"/>
<stop offset="1" stop-color="#B6853C"/>
</linearGradient>
<linearGradient id="paint37_linear_180_777" x1="0" y1="46.8846" x2="322" y2="46.8846" gradientUnits="userSpaceOnUse">
<stop stop-color="#EDC474"/>
<stop offset="0.609375" stop-color="#CB9D52"/>
<stop offset="1" stop-color="#B6853C"/>
</linearGradient>
<linearGradient id="paint38_linear_180_777" x1="0" y1="46.8846" x2="322" y2="46.8846" gradientUnits="userSpaceOnUse">
<stop stop-color="#EDC474"/>
<stop offset="0.609375" stop-color="#CB9D52"/>
<stop offset="1" stop-color="#B6853C"/>
</linearGradient>
<linearGradient id="paint39_linear_180_777" x1="0" y1="46.8846" x2="322" y2="46.8846" gradientUnits="userSpaceOnUse">
<stop stop-color="#EDC474"/>
<stop offset="0.609375" stop-color="#CB9D52"/>
<stop offset="1" stop-color="#B6853C"/>
</linearGradient>
<linearGradient id="paint40_linear_180_777" x1="0" y1="46.8846" x2="322" y2="46.8846" gradientUnits="userSpaceOnUse">
<stop stop-color="#EDC474"/>
<stop offset="0.609375" stop-color="#CB9D52"/>
<stop offset="1" stop-color="#B6853C"/>
</linearGradient>
<linearGradient id="paint41_linear_180_777" x1="0" y1="46.8846" x2="322" y2="46.8846" gradientUnits="userSpaceOnUse">
<stop stop-color="#EDC474"/>
<stop offset="0.609375" stop-color="#CB9D52"/>
<stop offset="1" stop-color="#B6853C"/>
</linearGradient>
</defs>
</svg>
