<svg width="28" height="28" viewBox="0 0 28 28" fill="none" xmlns="http://www.w3.org/2000/svg">
<path d="M13.9993 19.3334L19.3327 14.0001L13.9993 8.66675L12.1327 10.5334L14.266 12.6667H8.66602V15.3334H14.266L12.1327 17.4667L13.9993 19.3334ZM13.9993 27.3334C12.1549 27.3334 10.4216 26.9832 8.79935 26.2827C7.17713 25.5832 5.76602 24.6334 4.56602 23.4334C3.36602 22.2334 2.41624 20.8223 1.71668 19.2001C1.01624 17.5779 0.666016 15.8445 0.666016 14.0001C0.666016 12.1556 1.01624 10.4223 1.71668 8.80008C2.41624 7.17786 3.36602 5.76675 4.56602 4.56675C5.76602 3.36675 7.17713 2.41653 8.79935 1.71608C10.4216 1.01653 12.1549 0.666748 13.9993 0.666748C15.8438 0.666748 17.5771 1.01653 19.1993 1.71608C20.8216 2.41653 22.2327 3.36675 23.4327 4.56675C24.6327 5.76675 25.5825 7.17786 26.282 8.80008C26.9825 10.4223 27.3327 12.1556 27.3327 14.0001C27.3327 15.8445 26.9825 17.5779 26.282 19.2001C25.5825 20.8223 24.6327 22.2334 23.4327 23.4334C22.2327 24.6334 20.8216 25.5832 19.1993 26.2827C17.5771 26.9832 15.8438 27.3334 13.9993 27.3334ZM13.9993 24.6667C16.9771 24.6667 19.4993 23.6334 21.566 21.5667C23.6327 19.5001 24.666 16.9779 24.666 14.0001C24.666 11.0223 23.6327 8.50008 21.566 6.43341C19.4993 4.36675 16.9771 3.33341 13.9993 3.33341C11.0216 3.33341 8.49935 4.36675 6.43268 6.43341C4.36602 8.50008 3.33268 11.0223 3.33268 14.0001C3.33268 16.9779 4.36602 19.5001 6.43268 21.5667C8.49935 23.6334 11.0216 24.6667 13.9993 24.6667Z" fill="#264653"/>
</svg>
