<svg width="34" height="18" viewBox="0 0 34 18" fill="none" xmlns="http://www.w3.org/2000/svg">
<path fill-rule="evenodd" clip-rule="evenodd" d="M0.333313 1.91675C0.333313 1.22639 0.892957 0.666748 1.58331 0.666748H32.4166C33.107 0.666748 33.6666 1.22639 33.6666 1.91675C33.6666 2.6071 33.107 3.16675 32.4166 3.16675H1.58331C0.892957 3.16675 0.333313 2.6071 0.333313 1.91675ZM0.333313 9.00008C0.333313 8.30973 0.892957 7.75008 1.58331 7.75008H32.4166C33.107 7.75008 33.6666 8.30973 33.6666 9.00008C33.6666 9.69044 33.107 10.2501 32.4166 10.2501H1.58331C0.892957 10.2501 0.333313 9.69044 0.333313 9.00008ZM0.333313 16.0834C0.333313 15.3931 0.892957 14.8334 1.58331 14.8334H32.4166C33.107 14.8334 33.6666 15.3931 33.6666 16.0834C33.6666 16.7738 33.107 17.3334 32.4166 17.3334H1.58331C0.892957 17.3334 0.333313 16.7738 0.333313 16.0834Z" fill="white"/>
</svg>
