<svg width="35" height="34" viewBox="0 0 35 34" fill="none" xmlns="http://www.w3.org/2000/svg">
<path fill-rule="evenodd" clip-rule="evenodd" d="M17.5405 3.65088C22.0293 3.65088 22.5102 3.65088 24.2737 3.81099C25.8768 3.81099 26.8387 4.1312 27.3196 4.45141C28.1212 4.77162 28.6021 5.09183 29.2434 5.73225C29.8846 6.37267 30.2052 6.85298 30.5259 7.65351C30.5619 7.79744 30.606 7.94947 30.6546 8.11686C30.8222 8.69421 31.0429 9.4543 31.1671 10.6955C31.3274 12.4565 31.3274 12.9369 31.3274 17.4186V17.4199V17.4212C31.3274 21.9029 31.3274 22.3833 31.1671 24.1443C31.1671 25.7454 30.8465 26.706 30.5259 27.1863C30.2052 27.9868 29.8846 28.4672 29.2434 29.1076C28.6021 29.748 28.1212 30.0682 27.3196 30.3884C27.1755 30.4244 27.0233 30.4685 26.8557 30.517L26.8557 30.517C26.2776 30.6844 25.5165 30.9047 24.2737 31.0288C23.5942 31.0288 23.1052 31.0526 22.5039 31.0818C21.5447 31.1284 20.2998 31.1889 17.5405 31.1889C13.0518 31.1889 12.5708 31.1889 10.8074 31.0288C9.20425 31.0288 8.24238 30.7086 7.76144 30.3884C6.95988 30.0682 6.47894 29.748 5.83769 29.1076C5.19644 28.4672 4.87581 27.9868 4.55518 27.1863C4.51916 27.0424 4.47503 26.8904 4.42645 26.723C4.25886 26.1457 4.03823 25.3856 3.91394 24.1443C3.75363 22.3832 3.75362 21.9029 3.75362 17.4199C3.75362 12.937 3.75363 12.4567 3.91394 10.6955C3.91394 9.09445 4.23456 8.13382 4.55518 7.65351C4.87581 6.85298 5.19644 6.37267 5.83769 5.73225C6.47894 5.09183 6.95988 4.77162 7.76144 4.45141C7.90556 4.41542 8.05778 4.37135 8.22537 4.32283C8.80347 4.15546 9.56455 3.93511 10.8074 3.81099C12.5708 3.65088 13.0518 3.65088 17.5405 3.65088ZM17.5405 0.608887C13.0518 0.608887 12.4105 0.608887 10.6471 0.768991C8.88364 0.929096 7.60113 1.0892 6.63926 1.56952C5.51707 2.04983 4.55518 2.53015 3.75362 3.49078C2.79175 4.4514 2.31082 5.41201 1.82988 6.37263L1.82987 6.37267C1.34893 7.4934 1.18862 8.61413 1.0283 10.3753C0.867991 12.1364 0.867981 12.7769 0.867981 17.2598C0.867981 21.7427 0.867991 22.3832 1.0283 24.1443C1.18862 25.9055 1.34893 27.1863 1.82987 28.1469C2.31081 29.2677 2.79174 30.2283 3.75362 31.0288C4.71549 31.9895 5.67736 32.4698 6.63923 32.9501L6.63926 32.9501C7.76145 33.4304 8.88364 33.5905 10.6471 33.7506C12.4105 33.9107 13.0518 33.9107 17.5405 33.9107C22.0293 33.9107 22.6705 33.9107 24.434 33.7506C26.1974 33.5905 27.4799 33.4304 28.4418 32.9501C29.564 32.4698 30.5259 31.9895 31.3274 31.0288C32.2893 30.0682 32.7702 29.1076 33.2512 28.147L33.2512 28.1469C33.7321 27.0262 33.8924 25.9055 34.0528 24.1443C34.2131 22.3832 34.2131 21.7427 34.2131 17.2598C34.2131 12.7769 34.2131 12.1364 34.0528 10.3753C33.8924 8.61413 33.7321 7.3333 33.2512 6.37267C32.7702 5.25193 32.2893 4.2913 31.3274 3.49078C30.3656 2.53015 29.4037 2.04983 28.4418 1.56952C27.3196 1.0892 26.1974 0.929096 24.434 0.768991C22.6705 0.608887 22.0293 0.608887 17.5405 0.608887ZM17.5405 8.77441C12.7311 8.77441 8.88361 12.6169 8.88361 17.4201C8.88361 22.2232 12.7311 26.0658 17.5405 26.0658C22.3499 26.0658 26.1974 22.2232 26.1974 17.4201C26.1974 12.6169 22.3499 8.77441 17.5405 8.77441ZM17.5405 22.8637C14.4946 22.8637 11.9296 20.302 11.9296 17.26C11.9296 14.218 14.4946 11.6563 17.5405 11.6563C20.5865 11.6563 23.1515 14.218 23.1515 17.26C23.1515 20.4621 20.5865 22.8637 17.5405 22.8637ZM26.3578 10.5353C27.48 10.5353 28.4418 9.57466 28.4418 8.45392C28.4418 7.33319 27.6403 6.37256 26.3578 6.37256C25.2356 6.37256 24.2737 7.33319 24.2737 8.45392C24.2737 9.57466 25.2356 10.5353 26.3578 10.5353Z" fill="white"/>
</svg>
