<svg width="31" height="31" viewBox="0 0 31 31" fill="none" xmlns="http://www.w3.org/2000/svg">
<path fill-rule="evenodd" clip-rule="evenodd" d="M7.64904 4.13114C7.64904 6.0524 6.04591 7.81356 3.96184 7.81356C1.87778 7.81356 0.274658 6.0524 0.274658 4.13114C0.274658 2.20988 1.87778 0.44873 3.96184 0.44873C6.04591 0.44873 7.64904 2.20988 7.64904 4.13114ZM17.2678 20.1417C17.2678 17.2598 18.5503 15.4986 21.1153 15.4986C23.3597 15.4986 24.4819 17.0997 24.4819 20.1417V30.8687H30.7341V17.9002C30.7341 12.4566 27.6881 9.73486 23.3597 9.73486C19.0312 9.73486 17.2678 13.0971 17.2678 13.0971V10.3753H11.1759V30.7086H17.2678V20.1417ZM7.00782 10.5352H0.755615V30.8685H7.00782V10.5352Z" fill="white"/>
</svg>
