<svg width="1206" height="97" viewBox="0 0 1206 97" fill="none" xmlns="http://www.w3.org/2000/svg">
<path d="M436 63.1303C462.246 63.1303 471.087 60.5498 493.6 58.9376C519.607 57.0753 532.194 63.5933 548.8 65.267C577.926 68.2024 611.768 60.9534 642.4 60.9534C670.331 60.9534 681.605 64.8704 714.4 63.4932C733.511 62.6906 746.034 62.43 761.333 64.7429C774.672 66.7594 783.684 70.7932 806.933 69.8628C857.566 67.8366 932.113 51.2351 974.667 61.1146C1005.51 68.2752 1071.47 61.2503 1114.93 62.445C1145.9 63.2962 1171.1 64.3738 1204 63.1303" stroke="#F3EAE5" stroke-width="3" stroke-linecap="round"/>
<path d="M0.368 78.352C0.752 77.456 1.808 75.088 3.536 71.248C5.264 67.472 7.504 62.544 10.256 56.464C13.072 50.32 16.208 43.376 19.664 35.632C23.184 27.824 26.896 19.568 30.8 10.864C30.992 10.416 31.184 9.84 31.376 9.136C31.632 8.368 31.76 7.632 31.76 6.928C31.76 6.224 31.536 5.648 31.088 5.2C30.704 4.688 29.84 4.432 28.496 4.432C25.808 4.432 23.568 5.36 21.776 7.216C20.048 9.008 18.736 11.248 17.84 13.936C17.008 16.624 16.592 19.28 16.592 21.904C16.592 22.544 16.592 23.088 16.592 23.536C16.656 23.984 16.72 24.432 16.784 24.88C15.568 24.88 14.576 24.464 13.808 23.632C13.104 22.736 12.56 21.68 12.176 20.464C11.856 19.184 11.696 18.032 11.696 17.008C11.696 14.896 12.272 12.88 13.424 10.96C14.576 9.04 16.048 7.312 17.84 5.776C19.696 4.24 21.712 3.056 23.888 2.224C26.128 1.328 28.304 0.879997 30.416 0.879997C32.528 0.879997 34.288 1.488 35.696 2.704C37.168 3.856 38.256 5.968 38.96 9.04C39.728 12.112 40.112 16.56 40.112 22.384C40.112 26.352 39.952 30.576 39.632 35.056C39.376 39.536 39.088 43.952 38.768 48.304C38.448 52.656 38.224 56.624 38.096 60.208C39.12 56.304 40.56 52.144 42.416 47.728C44.336 43.312 46.416 38.928 48.656 34.576C50.96 30.16 53.232 26.032 55.472 22.192C57.712 18.352 59.728 15.024 61.52 12.208C63.312 9.392 64.624 7.344 65.456 6.064C66.352 4.784 67.12 3.824 67.76 3.184C68.4 2.48 69.232 2.128 70.256 2.128C71.152 2.128 72.176 2.352 73.328 2.8C72.88 3.952 72.24 5.68 71.408 7.984C70.64 10.224 69.84 12.976 69.008 16.24C67.984 20.144 66.96 24.592 65.936 29.584C64.912 34.512 63.952 39.536 63.056 44.656C62.224 49.776 61.552 54.608 61.04 59.152C60.528 63.632 60.272 67.408 60.272 70.48C60.272 71.888 60.336 72.976 60.464 73.744C60.592 74.512 60.752 75.184 60.944 75.76C61.2 76.4 61.456 77.264 61.712 78.352C59.536 78.352 57.872 78 56.72 77.296C55.568 76.592 54.8 75.44 54.416 73.84C54.032 72.304 53.84 70.224 53.84 67.6C53.84 59.984 54.8 51.824 56.72 43.12C58.704 34.352 60.944 25.264 63.44 15.856C61.584 18.224 59.632 21.232 57.584 24.88C55.6 28.464 53.584 32.368 51.536 36.592C49.552 40.752 47.632 44.944 45.776 49.168C43.984 53.328 42.384 57.2 40.976 60.784C39.568 64.368 38.48 67.344 37.712 69.712C37.328 69.84 37.072 69.936 36.944 70C36.816 70.064 36.592 70.096 36.272 70.096C34.544 70.096 33.392 69.072 32.816 67.024C32.304 64.976 32.048 62.096 32.048 58.384C32.048 55.76 32.112 52.656 32.24 49.072C32.432 45.424 32.624 41.68 32.816 37.84C33.008 34 33.168 30.32 33.296 26.8C33.488 23.216 33.584 20.144 33.584 17.584C33.584 16.304 33.552 15.248 33.488 14.416C33.488 13.584 33.456 12.848 33.392 12.208C28.272 24.112 23.984 34.288 20.528 42.736C17.072 51.12 14.16 57.936 11.792 63.184C9.488 68.432 7.44 72.272 5.648 74.704C3.856 77.136 2.096 78.352 0.368 78.352ZM76.4405 96.88C74.8405 96.88 73.4325 96.432 72.2165 95.536C71.0005 94.704 70.3925 93.456 70.3925 91.792C70.3925 89.744 70.9045 87.92 71.9285 86.32C72.9525 84.72 74.3285 83.248 76.0565 81.904C77.7845 80.56 79.7685 79.28 82.0085 78.064C84.2485 76.848 86.5845 75.632 89.0165 74.416C89.9125 72.048 90.8085 69.424 91.7045 66.544C92.6645 63.6 93.5605 60.368 94.3925 56.848C92.3445 60.176 90.1365 63.056 87.7685 65.488C85.4645 67.856 83.0005 69.04 80.3765 69.04C79.1605 69.04 77.9445 68.784 76.7285 68.272C75.5765 67.696 74.6165 66.832 73.8485 65.68C73.0805 64.528 72.6965 63.056 72.6965 61.264C72.6965 59.472 72.9845 57.392 73.5605 55.024C74.2005 52.656 74.9685 50.352 75.8645 48.112C76.7605 45.872 77.6885 44.016 78.6485 42.544C79.6085 41.072 80.4405 40.336 81.1445 40.336C81.4005 40.336 81.8485 40.432 82.4885 40.624C83.1925 40.816 83.8325 41.104 84.4085 41.488C85.0485 41.808 85.3685 42.16 85.3685 42.544C84.7925 43.376 84.1525 44.56 83.4485 46.096C82.7445 47.632 82.0405 49.36 81.3365 51.28C80.6965 53.136 80.1525 54.96 79.7045 56.752C79.2565 58.544 79.0325 60.08 79.0325 61.36C79.0325 62.512 79.2885 63.44 79.8005 64.144C80.3125 64.848 81.2085 65.2 82.4885 65.2C83.7045 65.2 85.0485 64.624 86.5205 63.472C88.0565 62.256 89.5605 60.72 91.0325 58.864C92.5685 57.008 93.9765 55.024 95.2565 52.912C95.4485 52.208 95.6085 51.504 95.7365 50.8C95.9285 50.032 96.0885 49.264 96.2165 48.496C96.4085 47.6 96.8565 46.576 97.5605 45.424C98.3285 44.208 99.5125 43.6 101.113 43.6C101.433 43.6 101.753 43.632 102.073 43.696C102.393 43.696 102.745 43.76 103.129 43.888C103.129 44.912 102.809 46.832 102.169 49.648C101.593 52.4 100.729 55.632 99.5765 59.344C98.4885 63.056 97.1765 66.864 95.6405 70.768C98.6485 69.616 101.593 67.728 104.473 65.104C107.353 62.416 109.689 58.864 111.481 54.448L112.729 55.408C111.769 58.48 110.297 61.168 108.313 63.472C106.393 65.712 104.217 67.664 101.785 69.328C99.3525 70.928 96.9525 72.272 94.5845 73.36C92.9205 77.456 91.0965 81.296 89.1125 84.88C87.1925 88.464 85.1445 91.344 82.9685 93.52C80.8565 95.76 78.6805 96.88 76.4405 96.88ZM75.9605 93.808C76.9205 93.808 78.5205 92.528 80.7605 89.968C83.0645 87.472 85.4965 83.056 88.0565 76.72C85.4325 78.128 83.0005 79.504 80.7605 80.848C78.5205 82.256 76.7285 83.76 75.3845 85.36C74.0405 86.96 73.3685 88.816 73.3685 90.928C73.3685 91.44 73.5605 92.048 73.9445 92.752C74.3285 93.456 75.0005 93.808 75.9605 93.808ZM142.915 78.352C141.315 78.352 139.811 77.904 138.403 77.008C136.995 76.112 136.291 74.96 136.291 73.552C136.291 72.848 136.451 71.984 136.771 70.96C137.091 70 137.379 69.104 137.635 68.272C139.683 62 141.603 56.144 143.395 50.704C145.187 45.264 146.979 39.984 148.771 34.864C150.563 29.744 152.451 24.624 154.435 19.504C156.483 14.384 158.755 9.04 161.251 3.472C158.819 3.92 156.643 4.592 154.723 5.488C152.867 6.32 151.363 7.088 150.211 7.792C149.059 8.432 148.291 8.752 147.907 8.752C147.651 8.752 147.267 8.624 146.755 8.368C146.307 8.048 145.891 7.696 145.507 7.31199C145.123 6.864 144.931 6.48 144.931 6.16C146.595 5.456 148.547 4.688 150.787 3.856C153.091 3.024 155.555 2.32 158.179 1.744C160.803 1.168 163.459 0.879997 166.147 0.879997C168.963 0.879997 171.811 1.264 174.691 2.032C177.635 2.8 180.323 3.984 182.755 5.584C185.187 7.12 187.139 9.04 188.611 11.344C190.083 13.648 190.819 16.336 190.819 19.408C190.819 22.736 190.083 25.616 188.611 28.048C187.139 30.416 185.187 32.432 182.755 34.096C180.323 35.696 177.699 37.008 174.883 38.032C172.067 38.992 169.251 39.76 166.435 40.336C163.683 40.848 161.219 41.2 159.043 41.392C156.867 41.52 155.267 41.584 154.243 41.584H153.283C151.363 48.176 149.507 54.672 147.715 61.072C145.987 67.472 144.387 73.232 142.915 78.352ZM153.667 40.048C157.187 39.856 160.739 39.28 164.323 38.32C167.971 37.36 171.299 35.984 174.307 34.192C177.315 32.336 179.747 30.064 181.603 27.376C183.459 24.624 184.387 21.424 184.387 17.776C184.387 14.32 183.555 11.504 181.891 9.328C180.291 7.152 178.147 5.552 175.459 4.528C172.835 3.43999 170.019 2.89599 167.011 2.89599C164.643 7.568 162.339 13.168 160.099 19.696C157.859 26.224 155.715 33.008 153.667 40.048ZM185.999 73.072C183.247 73.072 181.295 72.208 180.143 70.48C178.991 68.816 178.415 66.768 178.415 64.336C178.415 62.352 178.735 60.304 179.375 58.192C180.015 56.08 180.847 54.096 181.871 52.24C182.959 50.384 184.143 48.88 185.423 47.728C186.767 46.576 188.111 46 189.455 46C189.775 46 190.095 46.064 190.415 46.192C190.799 46.256 191.151 46.352 191.471 46.48C190.895 46.992 190.191 47.952 189.359 49.36C188.591 50.704 187.855 52.272 187.151 54.064C186.447 55.792 185.839 57.52 185.327 59.248C184.879 60.976 184.655 62.448 184.655 63.664C184.655 65.584 184.975 66.992 185.615 67.888C186.255 68.72 187.087 69.136 188.111 69.136C189.455 69.136 191.055 68.432 192.911 67.024C194.767 65.552 196.591 63.696 198.383 61.456C196.591 59.984 195.183 58.064 194.159 55.696C193.199 53.264 192.719 50.8 192.719 48.304C192.719 46.192 193.071 44.208 193.775 42.352C194.543 40.496 195.631 39.024 197.039 37.936C198.447 36.784 200.143 36.208 202.127 36.208C204.751 36.208 206.511 36.912 207.407 38.32C208.303 39.728 208.751 41.488 208.751 43.6C208.751 46.096 208.143 48.88 206.927 51.952C205.711 54.96 204.175 57.872 202.319 60.688C203.471 61.328 204.687 61.648 205.967 61.648C206.991 61.648 208.143 61.456 209.423 61.072C210.703 60.624 211.951 59.888 213.167 58.864C214.447 57.84 215.471 56.464 216.239 54.736L217.391 55.696C216.111 58.704 214.287 60.848 211.919 62.128C209.615 63.344 207.407 63.952 205.295 63.952C204.463 63.952 203.663 63.888 202.895 63.76C202.127 63.568 201.391 63.312 200.687 62.992C198.511 65.872 196.111 68.272 193.487 70.192C190.927 72.112 188.431 73.072 185.999 73.072ZM200.111 58.96C201.711 56.592 203.023 54.128 204.047 51.568C205.135 48.944 205.679 46.48 205.679 44.176C205.679 42.32 205.391 40.976 204.815 40.144C204.303 39.248 203.631 38.8 202.799 38.8C201.519 38.8 200.207 39.728 198.863 41.584C197.519 43.44 196.847 45.776 196.847 48.592C196.847 50.448 197.103 52.336 197.615 54.256C198.191 56.112 199.023 57.68 200.111 58.96ZM220.102 72.88C219.014 72.88 217.894 72.592 216.742 72.016C215.654 71.504 214.758 70.64 214.053 69.424C213.285 68.208 212.901 66.672 212.901 64.816C212.901 62.704 213.413 60.336 214.438 57.712C215.462 55.088 216.838 52.496 218.566 49.936C220.294 47.312 222.278 44.912 224.518 42.736C226.758 40.496 229.094 38.736 231.526 37.456C233.958 36.112 236.358 35.44 238.726 35.44C240.07 35.44 241.094 35.696 241.798 36.208C242.566 36.656 242.95 37.392 242.95 38.416C242.95 38.672 242.918 38.896 242.854 39.088C242.854 39.28 242.822 39.504 242.758 39.76C242.438 39.248 241.958 38.896 241.318 38.704C240.742 38.448 240.006 38.32 239.109 38.32C237.062 38.32 235.046 38.96 233.062 40.24C231.142 41.456 229.35 43.088 227.686 45.136C226.086 47.12 224.678 49.264 223.462 51.568C222.246 53.872 221.286 56.112 220.582 58.288C219.942 60.4 219.622 62.192 219.622 63.664C219.622 65.072 219.942 66.192 220.582 67.024C221.222 67.856 222.054 68.272 223.078 68.272C224.806 68.272 226.886 67.184 229.318 65.008C231.814 62.832 234.342 59.76 236.902 55.792C239.462 51.824 241.766 47.184 243.814 41.872C245.222 38.16 246.662 34.384 248.134 30.544C249.67 26.704 251.206 23.024 252.742 19.504C254.278 15.92 255.75 12.752 257.158 10C258.63 7.184 260.006 4.976 261.286 3.376C262.63 1.712 263.814 0.879997 264.838 0.879997C265.35 0.879997 265.798 1.104 266.182 1.55199C266.566 1.936 266.758 2.448 266.758 3.088C266.758 4.112 266.214 5.872 265.125 8.368C264.102 10.8 262.726 13.744 260.998 17.2C259.334 20.592 257.574 24.304 255.718 28.336C253.862 32.368 252.07 36.464 250.342 40.624C248.678 44.784 247.302 48.816 246.214 52.72C245.19 56.56 244.678 60.08 244.678 63.28C244.678 65.072 244.774 66.416 244.966 67.312C245.158 68.208 245.798 68.656 246.886 68.656C248.23 68.656 249.798 68.08 251.59 66.928C253.382 65.776 255.174 64.144 256.966 62.032C258.758 59.92 260.326 57.392 261.67 54.448L262.822 55.312C261.606 58.576 259.942 61.52 257.83 64.144C255.718 66.704 253.446 68.72 251.014 70.192C248.646 71.728 246.374 72.496 244.198 72.496C241.83 72.496 240.166 71.696 239.206 70.096C238.31 68.56 237.862 66.96 237.862 65.296C237.862 64.208 238.022 62.768 238.342 60.976C238.662 59.184 239.11 57.2 239.686 55.024C237.638 58.416 235.462 61.488 233.158 64.24C230.854 66.928 228.582 69.04 226.342 70.576C224.166 72.112 222.086 72.88 220.102 72.88ZM270.085 75.376C267.013 75.376 264.453 74.352 262.405 72.304C260.356 70.256 259.332 67.184 259.332 63.088C259.332 59.888 259.94 56.784 261.157 53.776C262.437 50.704 264.101 47.952 266.148 45.52C268.197 43.088 270.469 41.168 272.965 39.76C275.461 38.288 277.925 37.552 280.357 37.552C282.981 37.552 284.773 38.32 285.733 39.856C286.693 41.392 287.173 42.992 287.173 44.656C287.173 46.512 286.725 48.144 285.829 49.552C284.997 50.96 283.845 51.664 282.373 51.664C281.285 51.664 280.357 51.184 279.589 50.224C280.549 49.712 281.381 48.688 282.085 47.152C282.789 45.552 283.141 44.048 283.141 42.64C283.141 41.872 282.981 41.296 282.661 40.912C282.405 40.464 281.861 40.24 281.029 40.24C279.301 40.24 277.509 41.008 275.653 42.544C273.861 44.08 272.165 46.064 270.565 48.496C269.029 50.928 267.749 53.488 266.725 56.176C265.765 58.864 265.285 61.392 265.285 63.76C265.285 65.744 265.765 67.568 266.725 69.232C267.685 70.896 269.541 71.728 272.293 71.728C274.853 71.728 277.413 71.024 279.973 69.616C282.597 68.208 285.029 66.192 287.269 63.568C289.509 60.944 291.301 57.872 292.645 54.352L293.893 55.312C292.421 59.152 290.405 62.608 287.845 65.68C285.285 68.688 282.469 71.056 279.397 72.784C276.325 74.512 273.221 75.376 270.085 75.376ZM295.452 74.512C293.468 74.512 291.804 73.84 290.46 72.496C289.052 71.216 288.348 69.232 288.348 66.544C288.348 64.24 288.86 61.776 289.884 59.152C290.908 56.464 292.316 53.84 294.108 51.28C295.9 48.656 297.916 46.288 300.156 44.176C302.46 42 304.86 40.272 307.356 38.992C309.916 37.712 312.444 37.072 314.94 37.072C317.436 37.072 319.516 37.744 321.18 39.088C322.844 40.368 323.676 42.096 323.676 44.272C323.676 45.872 323.228 46.96 322.332 47.536C321.5 48.112 320.38 48.4 318.972 48.4C319.1 47.888 319.196 47.344 319.26 46.768C319.388 46.128 319.452 45.552 319.452 45.04C319.452 43.568 319.1 42.32 318.396 41.296C317.692 40.208 316.476 39.664 314.748 39.664C312.956 39.664 311.132 40.304 309.276 41.584C307.42 42.8 305.628 44.464 303.9 46.576C302.172 48.624 300.636 50.864 299.292 53.296C297.948 55.728 296.892 58.128 296.124 60.496C295.356 62.864 294.972 64.976 294.972 66.832C294.972 69.328 295.836 70.576 297.564 70.576C299.036 70.576 300.636 69.904 302.364 68.56C304.092 67.152 305.852 65.392 307.644 63.28C309.5 61.104 311.26 58.864 312.924 56.56C314.588 54.256 316.06 52.144 317.34 50.224C317.596 49.84 317.756 49.648 317.82 49.648C318.204 49.712 318.684 49.84 319.26 50.032C319.9 50.224 320.444 50.48 320.892 50.8C321.34 51.12 321.564 51.536 321.564 52.048C321.564 52.624 321.276 53.424 320.7 54.448C320.124 55.408 319.484 56.528 318.78 57.808C318.076 59.088 317.436 60.4 316.86 61.744C316.284 63.024 315.996 64.24 315.996 65.392C315.996 66.352 316.252 67.312 316.764 68.272C317.276 69.168 318.108 69.616 319.26 69.616C320.988 69.616 323.26 68.368 326.076 65.872C328.892 63.312 331.74 59.504 334.62 54.448L335.58 55.408C334.236 58.864 332.508 61.904 330.396 64.528C328.284 67.152 326.012 69.2 323.58 70.672C321.212 72.144 318.876 72.88 316.572 72.88C314.204 72.88 312.444 72.176 311.292 70.768C310.204 69.36 309.66 67.824 309.66 66.16C309.66 65.776 309.692 65.36 309.756 64.912C309.82 64.4 309.884 63.888 309.948 63.376C307.196 67.088 304.668 69.872 302.364 71.728C300.124 73.584 297.82 74.512 295.452 74.512ZM342.736 74.896C339.728 74.896 337.328 74.224 335.536 72.88C333.808 71.6 332.592 70 331.888 68.08C331.12 66.16 330.736 64.24 330.736 62.32C330.736 60.4 330.992 58.928 331.504 57.904C332.016 56.88 332.624 56.112 333.328 55.6C334.096 55.088 334.8 54.704 335.44 54.448C336.144 54.192 336.624 53.936 336.88 53.68C338.8 51.568 340.56 49.36 342.16 47.056C343.76 44.752 345.168 42.32 346.384 39.76V38.608C346.384 36.24 346.768 34.576 347.536 33.616C348.368 32.592 349.232 32.08 350.128 32.08C350.64 32.08 351.024 32.208 351.28 32.464C351.536 32.72 351.664 33.008 351.664 33.328C351.664 33.648 351.568 34.16 351.376 34.864C351.184 35.568 351.088 36.464 351.088 37.552C351.088 39.664 351.504 41.968 352.336 44.464C353.168 46.896 354 49.488 354.832 52.24C355.664 54.928 356.08 57.744 356.08 60.688C356.08 61.52 356.016 62.352 355.888 63.184C355.824 63.952 355.696 64.688 355.504 65.392C357.744 65.008 359.856 64.016 361.84 62.416C363.824 60.752 365.744 58.128 367.6 54.544L368.464 55.504C367.248 59.024 365.424 61.712 362.992 63.568C360.56 65.36 357.904 66.48 355.024 66.928C354 69.68 352.368 71.696 350.128 72.976C347.952 74.256 345.488 74.896 342.736 74.896ZM342.928 71.536C343.696 71.536 344.72 71.28 346 70.768C347.28 70.256 348.272 68.944 348.976 66.832C346.288 66.32 343.888 65.264 341.776 63.664C339.728 62.064 338.192 60.464 337.168 58.864C335.76 58.928 335.056 60.048 335.056 62.224C335.056 64.528 335.728 66.672 337.072 68.656C338.48 70.576 340.432 71.536 342.928 71.536ZM349.456 65.296C349.584 64.656 349.68 63.984 349.744 63.28C349.808 62.576 349.84 61.744 349.84 60.784C349.84 57.776 349.456 54.8 348.688 51.856C347.984 48.848 347.376 46.032 346.864 43.408C345.392 45.84 343.824 48.176 342.16 50.416C340.56 52.592 339.024 54.416 337.552 55.888C338.512 57.936 339.984 59.856 341.968 61.648C344.016 63.44 346.512 64.656 349.456 65.296ZM373.91 74.416C371.158 74.416 369.046 73.616 367.574 72.016C366.102 70.416 365.366 68.048 365.366 64.912C365.366 62.096 365.878 58.64 366.902 54.544C367.99 50.384 369.334 46.128 370.934 41.776C370.294 41.648 369.686 41.552 369.11 41.488C368.534 41.36 367.99 41.2 367.478 41.008V39.28C367.99 39.344 368.598 39.408 369.302 39.472C370.006 39.536 370.806 39.6 371.702 39.664C373.046 36.208 374.486 32.88 376.022 29.68C377.558 26.416 379.062 23.536 380.534 21.04C382.07 18.48 383.51 16.464 384.854 14.992C386.262 13.456 387.446 12.688 388.406 12.688C388.918 12.688 389.366 12.88 389.75 13.264C390.198 13.584 390.422 14.096 390.422 14.8C390.422 15.888 389.75 17.68 388.406 20.176C387.062 22.608 385.398 25.52 383.414 28.912C381.43 32.304 379.51 35.984 377.654 39.952C378.23 39.952 378.806 39.952 379.382 39.952C380.022 39.952 380.63 39.952 381.206 39.952C383.318 39.952 385.526 39.92 387.83 39.856C390.198 39.792 392.566 39.632 394.934 39.376V41.104C391.414 41.488 388.246 41.776 385.43 41.968C382.678 42.16 380.214 42.256 378.038 42.256C377.782 42.256 377.526 42.256 377.27 42.256C377.078 42.256 376.854 42.256 376.598 42.256C375.126 45.648 373.878 49.136 372.854 52.72C371.83 56.304 371.318 59.792 371.318 63.184C371.318 65.936 371.734 67.92 372.566 69.136C373.398 70.288 374.774 70.864 376.694 70.864C380.022 70.864 383.286 69.392 386.486 66.448C389.686 63.504 392.502 59.504 394.934 54.448L396.182 55.408C394.646 58.992 392.694 62.224 390.326 65.104C388.022 67.984 385.462 70.256 382.646 71.92C379.83 73.584 376.918 74.416 373.91 74.416ZM403.205 74.896C400.197 74.896 397.797 74.224 396.005 72.88C394.277 71.6 393.061 70 392.357 68.08C391.589 66.16 391.205 64.24 391.205 62.32C391.205 60.4 391.461 58.928 391.973 57.904C392.485 56.88 393.093 56.112 393.797 55.6C394.565 55.088 395.269 54.704 395.909 54.448C396.613 54.192 397.093 53.936 397.349 53.68C399.269 51.568 401.029 49.36 402.629 47.056C404.229 44.752 405.637 42.32 406.853 39.76V38.608C406.853 36.24 407.237 34.576 408.005 33.616C408.837 32.592 409.701 32.08 410.597 32.08C411.109 32.08 411.493 32.208 411.749 32.464C412.005 32.72 412.133 33.008 412.133 33.328C412.133 33.648 412.037 34.16 411.845 34.864C411.653 35.568 411.557 36.464 411.557 37.552C411.557 39.664 411.973 41.968 412.805 44.464C413.637 46.896 414.469 49.488 415.301 52.24C416.133 54.928 416.549 57.744 416.549 60.688C416.549 61.52 416.485 62.352 416.357 63.184C416.293 63.952 416.165 64.688 415.973 65.392C418.213 65.008 420.325 64.016 422.309 62.416C424.293 60.752 426.213 58.128 428.069 54.544L428.933 55.504C427.717 59.024 425.893 61.712 423.461 63.568C421.029 65.36 418.373 66.48 415.493 66.928C414.469 69.68 412.837 71.696 410.597 72.976C408.421 74.256 405.957 74.896 403.205 74.896ZM403.397 71.536C404.165 71.536 405.189 71.28 406.469 70.768C407.749 70.256 408.741 68.944 409.445 66.832C406.757 66.32 404.357 65.264 402.245 63.664C400.197 62.064 398.661 60.464 397.637 58.864C396.229 58.928 395.525 60.048 395.525 62.224C395.525 64.528 396.197 66.672 397.541 68.656C398.949 70.576 400.901 71.536 403.397 71.536ZM409.925 65.296C410.053 64.656 410.149 63.984 410.213 63.28C410.277 62.576 410.309 61.744 410.309 60.784C410.309 57.776 409.925 54.8 409.157 51.856C408.453 48.848 407.845 46.032 407.333 43.408C405.861 45.84 404.293 48.176 402.629 50.416C401.029 52.592 399.493 54.416 398.021 55.888C398.981 57.936 400.453 59.856 402.437 61.648C404.485 63.44 406.981 64.656 409.925 65.296Z" fill="#F3EAE5"/>
</svg>
