<svg width="506" height="88" viewBox="0 0 506 88" fill="none" xmlns="http://www.w3.org/2000/svg">
<path d="M21.6193 29.6973C21.6433 29.7458 21.8235 29.9156 22.1598 30.2068C22.4961 30.4737 22.9645 30.777 23.5651 31.1166C24.1896 31.4563 24.9463 31.7596 25.8351 32.0265C26.7239 32.2934 27.7328 32.4268 28.8618 32.4268C30.7595 32.4268 32.5491 32.0629 34.2306 31.335C35.9121 30.6071 37.4615 29.6487 38.8787 28.4599C40.32 27.271 41.6052 25.9123 42.7342 24.3838C43.8872 22.8553 44.8601 21.2903 45.6528 19.689C46.4455 18.0877 47.058 16.5106 47.4904 14.9578C47.9228 13.405 48.139 12.0099 48.139 10.7725C48.139 9.29253 47.9228 8.00662 47.4904 6.91481C47.058 5.82299 46.4695 4.92528 45.7248 4.22167C45.0042 3.51806 44.1394 2.99642 43.1305 2.65674C42.1456 2.31707 41.0767 2.14723 39.9237 2.14723C37.6416 2.14723 35.3716 2.55969 33.1136 3.38462C30.8796 4.18528 28.7056 5.28922 26.5918 6.69644C24.4779 8.10367 22.4481 9.76565 20.5023 11.6824C18.5566 13.5749 16.743 15.6129 15.0615 17.7965C13.38 19.9802 11.8546 22.2608 10.4854 24.6385C9.11614 26.992 7.93909 29.3333 6.95421 31.6625C5.99335 33.9917 5.24869 36.2603 4.72022 38.4682C4.19174 40.6518 3.92751 42.6656 3.92751 44.5095C3.92751 46.6446 4.22778 48.6584 4.82831 50.5509C5.45287 52.4433 6.3777 54.0932 7.60279 55.5004C8.82789 56.9076 10.3532 58.0116 12.1789 58.8122C14.0285 59.6372 16.1785 60.0496 18.6286 60.0496C20.8146 60.0496 23.0846 59.71 25.4387 59.0306C27.7928 58.3513 30.1349 57.2594 32.465 55.7552C34.8191 54.2509 37.1372 52.3099 39.4192 49.9322C41.7013 47.5302 43.8872 44.6187 45.9771 41.1977L47.2742 42.2167C45.0162 45.9289 42.6621 49.0466 40.2119 51.5699C37.7617 54.0932 35.3115 56.1191 32.8614 57.6476C30.4112 59.2004 27.997 60.3044 25.6189 60.9595C23.2408 61.6388 20.9827 61.9785 18.8448 61.9785C15.7701 61.9785 13.0557 61.4205 10.7016 60.3044C8.34746 59.2126 6.3777 57.769 4.79228 55.9735C3.20686 54.1781 2.00579 52.1401 1.18906 49.8594C0.396354 47.5545 0 45.2131 0 42.8354C0 40.7974 0.276247 38.6259 0.82874 36.3209C1.40526 34.016 2.20997 31.6747 3.2429 29.2969C4.27582 26.9192 5.51292 24.5415 6.95421 22.1638C8.41952 19.786 10.041 17.5175 11.8186 15.3581C13.6202 13.1745 15.5659 11.1486 17.6558 9.2804C19.7456 7.41219 21.9316 5.79873 24.2136 4.44003C26.5197 3.05707 28.8858 1.97739 31.312 1.20099C33.7622 0.400331 36.2484 0 38.7706 0C40.356 0 41.8694 0.230494 43.3107 0.691481C44.776 1.12821 46.0611 1.83182 47.1661 2.80232C48.2711 3.77282 49.1479 5.02233 49.7965 6.55087C50.4451 8.05514 50.7694 9.87483 50.7694 12.0099C50.7694 13.4414 50.5532 14.9942 50.1208 16.6683C49.6884 18.3424 49.0518 20.0287 48.2111 21.727C47.3943 23.4012 46.3854 25.0267 45.1844 26.6038C44.0073 28.1809 42.6621 29.576 41.1488 30.7891C39.6594 31.9779 38.0019 32.9363 36.1763 33.6642C34.3747 34.3921 32.453 34.756 30.4112 34.756C28.2252 34.756 26.3155 34.3921 24.682 33.6642C23.0726 32.912 21.6914 31.9901 20.5383 30.8983L21.6193 29.6973Z" fill="#CB9D52"/>
<path d="M74.6227 30.5707C74.3104 31.2015 73.866 32.0265 73.2895 33.0455C72.737 34.0645 72.1364 35.1927 71.4879 36.4301C70.8393 37.6432 70.1787 38.917 69.5061 40.2514C68.8575 41.5859 68.257 42.8961 67.7045 44.182C67.176 45.4436 66.7316 46.6446 66.3713 47.7849C66.035 48.901 65.8668 49.8473 65.8668 50.6237C65.8668 51.4001 66.011 51.9096 66.2992 52.1522C66.6115 52.3706 67.0079 52.4797 67.4883 52.4797C68.1849 52.4797 68.8935 52.2735 69.6142 51.861C70.3588 51.4486 71.0795 50.9148 71.7761 50.2597C72.4968 49.6046 73.1934 48.8646 73.866 48.0397C74.5386 47.2148 75.1631 46.3899 75.7397 45.5649C76.3402 44.7157 76.8807 43.9151 77.3611 43.1629C77.8415 42.3865 78.2499 41.7315 78.5862 41.1977L79.8834 42.2167C79.475 42.9931 78.9946 43.8302 78.4421 44.7279C77.8896 45.6256 77.277 46.5354 76.6044 47.4574C75.9558 48.3551 75.2472 49.2286 74.4785 50.0778C73.7098 50.9269 72.8931 51.6791 72.0283 52.3342C71.1876 52.9893 70.2988 53.5109 69.362 53.8991C68.4251 54.2873 67.4643 54.4814 66.4794 54.4814C65.0381 54.4814 63.9812 54.0447 63.3086 53.1712C62.636 52.2978 62.2997 51.1696 62.2997 49.7866C62.2997 49.6896 62.2997 49.4833 62.2997 49.1679C62.3237 48.8282 62.3597 48.5613 62.4077 48.3672C61.2067 49.8958 60.0536 51.1574 58.9487 52.1522C57.8677 53.147 56.8107 53.9355 55.7778 54.5178C54.7689 55.1001 53.784 55.5004 52.8232 55.7188C51.8863 55.9614 50.9855 56.0827 50.1208 56.0827C49.208 56.0827 48.3432 55.925 47.5265 55.6096C46.7337 55.3184 46.0371 54.8817 45.4366 54.2994C44.812 53.7171 44.3316 53.0014 43.9953 52.1522C43.635 51.303 43.4548 50.3204 43.4548 49.2043C43.4548 47.8213 43.7671 46.2443 44.3917 44.4731C44.9922 42.6777 46.0732 40.7488 47.6346 38.6865C48.9557 36.9154 50.325 35.4232 51.7422 34.2101C53.1835 32.997 54.5888 32.0265 55.958 31.2986C57.3512 30.5465 58.6724 30.0127 59.9215 29.6973C61.1706 29.3819 62.2876 29.2242 63.2725 29.2242C65.4825 29.2242 67.152 29.6002 68.281 30.3524C69.41 31.0802 70.0946 32.2084 70.3348 33.737C70.8153 33.1304 71.3197 32.5238 71.8482 31.9173C72.3767 31.3107 72.9171 30.692 73.4696 30.0612L74.6227 30.5707ZM63.5608 44.4003C63.8731 43.8908 64.2574 43.2479 64.7138 42.4715C65.1702 41.6708 65.6506 40.858 66.1551 40.0331C66.6595 39.1839 67.152 38.3711 67.6324 37.5947C68.1128 36.8183 68.5332 36.1632 68.8935 35.6294C68.8935 35.4111 68.8575 35.0593 68.7854 34.574C68.7374 34.0888 68.5813 33.6035 68.317 33.1183C68.0528 32.6088 67.6324 32.172 67.0559 31.8081C66.4794 31.4442 65.6747 31.2622 64.6417 31.2622C63.8971 31.2622 63.0563 31.3835 62.1195 31.6261C61.2067 31.8445 60.2218 32.2327 59.1649 32.7907C58.1319 33.3245 57.063 34.0403 55.958 34.938C54.853 35.8357 53.748 36.9518 52.643 38.2862C50.9855 40.3 49.7004 42.3259 48.7876 44.3639C47.8988 46.3777 47.4544 48.1974 47.4544 49.823C47.4544 51.206 47.7667 52.2735 48.3912 53.0256C49.0158 53.7778 49.9046 54.1538 51.0576 54.1538C52.3788 54.1538 53.6159 53.8627 54.7689 53.2804C55.922 52.6738 57.0029 51.8974 58.0118 50.9512C59.0207 50.005 59.9816 48.9617 60.8944 47.8213C61.8072 46.6567 62.696 45.5164 63.5608 44.4003Z" fill="#CB9D52"/>
<path d="M101.359 42.2167C100.998 42.7505 100.566 43.4784 100.061 44.4003C99.581 45.298 99.0164 46.2807 98.3679 47.3482C97.7193 48.3915 96.9986 49.4591 96.2059 50.5509C95.4373 51.6427 94.5845 52.6253 93.6477 53.4988C92.7348 54.3722 91.7379 55.088 90.657 55.646C89.576 56.204 88.423 56.483 87.1979 56.483C86.5253 56.483 85.8887 56.3739 85.2882 56.1555C84.6877 55.9614 84.1592 55.646 83.7028 55.2093C83.2464 54.7725 82.886 54.2388 82.6218 53.6079C82.3576 52.9529 82.2254 52.1886 82.2254 51.3151C82.2254 50.1263 82.4537 48.8889 82.9101 47.603C83.3905 46.2928 83.943 45.0312 84.5675 43.818C85.1921 42.6049 85.8167 41.501 86.4412 40.5062C87.0658 39.4872 87.5222 38.6744 87.8104 38.0678C88.0987 37.4613 88.2428 36.9396 88.2428 36.5029C88.2428 36.1875 88.1347 35.9085 87.9185 35.6658C87.7264 35.4232 87.4741 35.1927 87.1619 34.9744C86.8736 34.7317 86.5613 34.4891 86.225 34.2465C85.9127 33.9796 85.6485 33.6642 85.4323 33.3003C84.8318 34.2707 84.2192 35.2534 83.5947 36.2481C83.0422 37.0973 82.4416 38.0557 81.7931 39.1232C81.1445 40.1665 80.5199 41.1977 79.9194 42.2167L78.6222 41.1977L86.3331 29.0058L87.3781 29.5517C87.33 29.6973 87.2459 29.9278 87.1258 30.2432C87.0297 30.5586 86.9817 30.8983 86.9817 31.2622C86.9817 31.5291 87.0177 31.796 87.0898 32.0629C87.1859 32.3055 87.366 32.536 87.6303 32.7543C88.5911 33.6278 89.3478 34.3071 89.9003 34.7924C90.4528 35.2534 90.8492 35.6294 91.0894 35.9206C91.3536 36.1875 91.5097 36.418 91.5578 36.6121C91.6299 36.7819 91.6659 37.0124 91.6659 37.3036C91.6659 37.5947 91.6178 37.9465 91.5218 38.359C91.4257 38.7714 91.2575 39.2688 91.0173 39.8511C90.8011 40.4334 90.4888 41.1249 90.0805 41.9256C89.6961 42.702 89.2037 43.6118 88.6031 44.6551C88.2428 45.2859 87.8825 45.9289 87.5222 46.584C87.1859 47.2148 86.8736 47.8577 86.5853 48.5128C86.3211 49.1679 86.1049 49.823 85.9368 50.4781C85.7686 51.1332 85.6845 51.764 85.6845 52.3706C85.6845 52.8315 85.7446 53.2076 85.8647 53.4988C86.0088 53.7656 86.189 53.9719 86.4052 54.1175C86.6214 54.263 86.8496 54.3601 87.0898 54.4086C87.354 54.4571 87.6063 54.4814 87.8465 54.4814C88.6392 54.4814 89.4199 54.2509 90.1886 53.7899C90.9813 53.3047 91.75 52.686 92.4946 51.9338C93.2633 51.1817 93.996 50.3325 94.6926 49.3863C95.4132 48.4158 96.0978 47.4331 96.7464 46.4384C97.395 45.4436 97.9955 44.4974 98.548 43.5997C99.1005 42.6777 99.593 41.877 100.025 41.1977L101.359 42.2167Z" fill="#CB9D52"/>
<path d="M120.348 44.8735C120.444 44.8977 120.54 44.9098 120.636 44.9098C120.732 44.9098 120.84 44.9098 120.96 44.9098C121.633 44.9098 122.245 44.8492 122.798 44.7279C123.35 44.5823 123.855 44.3639 124.311 44.0728C124.791 43.7816 125.248 43.4056 125.68 42.9446C126.113 42.4593 126.533 41.877 126.941 41.1977L128.239 42.2167C127.086 43.8666 125.896 45.019 124.671 45.6741C123.446 46.3292 122.149 46.6567 120.78 46.6567C120.275 46.6567 119.831 46.6082 119.447 46.5112C118.414 48.2581 117.309 49.7502 116.132 50.9876C114.955 52.2007 113.754 53.1955 112.529 53.9719C111.303 54.7483 110.09 55.3063 108.889 55.646C107.688 56.0099 106.571 56.1919 105.538 56.1919C104.481 56.1919 103.496 55.9978 102.584 55.6096C101.695 55.2457 100.926 54.7119 100.278 54.0083C99.629 53.3047 99.1245 52.4676 98.7642 51.4971C98.4039 50.5266 98.2237 49.4348 98.2237 48.2217C98.2237 47.0085 98.4159 45.7712 98.8003 44.5095C99.1846 43.2479 99.7011 41.9983 100.35 40.761C101.022 39.5236 101.803 38.3347 102.692 37.1944C103.581 36.0298 104.541 34.9501 105.574 33.9553C106.607 32.9606 107.676 32.0629 108.781 31.2622C109.886 30.4615 110.991 29.8065 112.096 29.2969L113.249 30.8255C111.976 31.7474 110.679 32.912 109.358 34.3193C108.061 35.7265 106.871 37.2672 105.79 38.9413C104.734 40.6154 103.857 42.3623 103.16 44.182C102.488 45.9774 102.151 47.7243 102.151 49.4227C102.151 50.9512 102.488 52.1401 103.16 52.9893C103.833 53.8142 104.854 54.2266 106.223 54.2266C107.28 54.2266 108.325 54.0083 109.358 53.5715C110.391 53.1348 111.4 52.5404 112.384 51.7883C113.369 51.0361 114.318 50.1505 115.231 49.1315C116.144 48.0882 117.009 46.9843 117.825 45.8197C117.129 45.4072 116.516 44.8613 115.988 44.182C115.459 43.4784 115.015 42.6898 114.654 41.8164C114.294 40.9187 114.018 39.9603 113.826 38.9413C113.658 37.9223 113.573 36.879 113.573 35.8114C113.573 34.7439 113.706 33.737 113.97 32.7907C114.234 31.8445 114.594 31.0196 115.051 30.316C115.531 29.5881 116.084 29.0179 116.708 28.6055C117.333 28.193 118.017 27.9868 118.762 27.9868C119.435 27.9868 120.035 28.1687 120.564 28.5327C121.092 28.8723 121.537 29.3576 121.897 29.9884C122.257 30.595 122.533 31.3229 122.726 32.172C122.918 33.0212 123.014 33.9311 123.014 34.9016C123.014 35.6294 122.954 36.4301 122.834 37.3036C122.714 38.177 122.533 39.0626 122.293 39.9603C122.077 40.8337 121.801 41.7072 121.465 42.5806C121.152 43.4298 120.78 44.1941 120.348 44.8735ZM115.447 35.8114C115.447 36.515 115.507 37.2793 115.627 38.1042C115.747 38.9291 115.94 39.7298 116.204 40.5062C116.468 41.2826 116.804 42.0105 117.213 42.6898C117.621 43.3449 118.126 43.8666 118.726 44.2548C119.158 43.4056 119.519 42.5443 119.807 41.6708C120.119 40.7731 120.372 39.9118 120.564 39.0868C120.78 38.2619 120.924 37.4977 120.996 36.794C121.092 36.0662 121.14 35.4353 121.14 34.9016C121.14 34.1737 121.08 33.5065 120.96 32.8999C120.84 32.2934 120.672 31.7717 120.456 31.335C120.263 30.874 120.011 30.5222 119.699 30.2796C119.411 30.0127 119.086 29.8792 118.726 29.8792C118.246 29.8792 117.801 30.0491 117.393 30.3888C116.984 30.7042 116.636 31.1409 116.348 31.6989C116.06 32.2327 115.831 32.8635 115.663 33.5914C115.519 34.295 115.447 35.035 115.447 35.8114Z" fill="#CB9D52"/>
<path d="M153.065 1.81969C153.905 1.81969 154.602 2.02592 155.155 2.43838C155.731 2.85084 156.019 3.60298 156.019 4.69479C156.019 5.44693 155.863 6.34464 155.551 7.38792C155.263 8.43121 154.854 9.57155 154.326 10.8089C153.821 12.0221 153.221 13.308 152.524 14.6667C151.828 16.0011 151.071 17.3355 150.254 18.67C149.462 20.0044 148.621 21.3025 147.732 22.5641C146.867 23.8258 146.002 24.9904 145.138 26.0579C143.408 28.2173 141.907 30.0369 140.634 31.517C139.385 32.997 138.304 34.2586 137.391 35.3019C136.478 36.3209 135.709 37.158 135.085 37.8131C134.46 38.4439 133.908 38.9898 133.427 39.4508C132.947 39.9118 132.502 40.3364 132.094 40.7246C131.686 41.0885 131.265 41.501 130.833 41.962C130.641 42.8839 130.545 43.7695 130.545 44.6187C130.569 45.4436 130.581 46.2079 130.581 46.9115C130.581 49.0223 130.917 50.5873 131.59 51.6063C132.262 52.6253 133.211 53.1348 134.436 53.1348C135.253 53.1348 136.07 52.9286 136.886 52.5161C137.727 52.0794 138.556 51.5214 139.372 50.842C140.189 50.1627 140.982 49.3984 141.751 48.5492C142.519 47.6758 143.24 46.8023 143.913 45.9289C144.609 45.0312 145.234 44.1698 145.786 43.3449C146.339 42.52 146.819 41.8042 147.228 41.1977L148.561 42.2167C148.489 42.3138 148.248 42.702 147.84 43.3813C147.456 44.0364 146.939 44.8371 146.291 45.7833C145.642 46.7295 144.873 47.7486 143.985 48.8404C143.096 49.9079 142.135 50.9027 141.102 51.8246C140.069 52.7466 138.976 53.5109 137.823 54.1175C136.694 54.724 135.541 55.0273 134.364 55.0273C133.379 55.0273 132.43 54.8453 131.517 54.4814C130.629 54.0932 129.836 53.4988 129.139 52.6981C128.467 51.8732 127.914 50.8299 127.482 49.5682C127.074 48.3066 126.869 46.7902 126.869 45.019C126.869 42.8111 127.122 40.5062 127.626 38.1042C128.154 35.678 128.863 33.2517 129.752 30.8255C130.641 28.375 131.686 25.9608 132.887 23.5831C134.088 21.2054 135.361 18.949 136.706 16.8139C138.075 14.6545 139.493 12.665 140.958 10.8453C142.447 9.00138 143.901 7.41219 145.318 6.07775C146.759 4.74331 148.14 3.70003 149.462 2.94789C150.783 2.19575 151.984 1.81969 153.065 1.81969ZM131.481 38.7229C133.523 36.5878 135.493 34.4285 137.391 32.2448C139.312 30.0369 141.102 27.8655 142.76 25.7304C144.441 23.571 145.978 21.4844 147.372 19.4706C148.765 17.4326 149.954 15.5159 150.939 13.7204C151.924 11.925 152.692 10.2873 153.245 8.80728C153.797 7.32727 154.074 6.05349 154.074 4.98594C154.074 4.79184 153.978 4.53708 153.785 4.22167C153.593 3.882 153.365 3.71216 153.101 3.71216C152.356 3.71216 151.371 4.20954 150.146 5.2043C148.921 6.19906 147.588 7.55776 146.147 9.2804C144.729 10.9788 143.252 12.9683 141.715 15.249C140.201 17.5296 138.772 19.968 137.427 22.5641C136.082 25.1602 134.88 27.8412 133.824 30.6071C132.767 33.373 131.986 36.0783 131.481 38.7229Z" fill="#CB9D52"/>
<path d="M163.19 46.6567C162.253 47.7 161.304 48.6705 160.343 49.5682C159.382 50.4417 158.434 51.206 157.497 51.861C156.56 52.5161 155.635 53.0378 154.722 53.426C153.833 53.7899 152.969 53.9719 152.128 53.9719C151.191 53.9719 150.338 53.802 149.57 53.4624C148.825 53.0984 148.176 52.5889 147.624 51.9338C147.095 51.2787 146.687 50.5023 146.399 49.6046C146.111 48.7069 145.966 47.7122 145.966 46.6203C145.966 45.1646 146.267 43.6482 146.867 42.0711C147.468 40.4941 148.236 38.9655 149.173 37.4855C150.134 35.9813 151.191 34.5619 152.344 33.2275C153.521 31.893 154.662 30.7406 155.767 29.7701L157.317 30.8619C157.028 31.2743 156.632 31.8445 156.127 32.5724C155.623 33.3003 155.083 34.1494 154.506 35.1199C153.93 36.0662 153.341 37.0973 152.74 38.2134C152.164 39.3295 151.635 40.4698 151.155 41.6344C150.675 42.799 150.278 43.9636 149.966 45.1282C149.678 46.2928 149.534 47.3846 149.534 48.4036C149.534 48.8889 149.57 49.362 149.642 49.823C149.738 50.2597 149.882 50.6479 150.074 50.9876C150.29 51.3273 150.566 51.5942 150.903 51.7883C151.239 51.9824 151.671 52.0794 152.2 52.0794C153.041 52.0794 153.954 51.8246 154.938 51.3151C155.947 50.7814 156.98 50.0656 158.037 49.1679C159.118 48.2459 160.211 47.1784 161.316 45.9653C162.445 44.7521 163.55 43.4541 164.631 42.0711C165.712 40.6882 166.757 39.2688 167.766 37.8131C168.775 36.3331 169.712 34.8773 170.576 33.4458C171.345 32.1599 172.114 30.874 172.882 29.5881C173.651 28.2779 174.42 27.0041 175.188 25.7668L176.882 26.6402C176.858 26.6887 176.63 27.1497 176.197 28.0232C175.789 28.8723 175.237 30.0369 174.54 31.517C173.843 32.9727 173.027 34.6711 172.09 36.6121C171.177 38.5288 170.204 40.579 169.171 42.7626C168.138 44.922 167.081 47.142 166 49.4227C164.943 51.7033 163.91 53.9234 162.902 56.0827C166.289 54.1902 169.351 51.946 172.09 49.3499C174.852 46.7538 177.218 44.0364 179.188 41.1977L180.521 42.2167C178.431 45.4436 175.837 48.4279 172.738 51.1696C169.64 53.887 165.904 56.4952 161.532 58.9942C159.539 63.3129 157.581 67.2556 155.659 70.8222C153.761 74.3888 151.852 77.4458 149.93 79.9934C148.032 82.5409 146.135 84.5062 144.237 85.8892C142.315 87.2964 140.369 88 138.4 88C137.102 88 136.021 87.5633 135.157 86.6898C134.292 85.8164 133.86 84.5669 133.86 82.9413C133.86 81.5826 134.16 80.1875 134.76 78.756C135.361 77.3245 136.19 75.8809 137.247 74.4251C138.304 72.9937 139.565 71.5622 141.03 70.1307C142.471 68.7235 144.057 67.3648 145.786 66.0546C147.492 64.7444 149.281 63.4949 151.155 62.306C153.053 61.1172 154.974 60.0254 156.92 59.0306C157.425 57.9631 157.965 56.8349 158.542 55.646C159.118 54.4814 159.683 53.3532 160.235 52.2614C160.788 51.1453 161.316 50.102 161.821 49.1315C162.349 48.1368 162.805 47.3118 163.19 46.6567ZM155.263 62.5608C152.5 64.2834 149.93 66.1152 147.552 68.0562C145.198 70.0215 143.156 71.9504 141.426 73.8428C139.673 75.7596 138.304 77.555 137.319 79.2291C136.334 80.9032 135.841 82.3226 135.841 83.4872C135.841 84.2636 136.07 84.8823 136.526 85.3433C136.958 85.8043 137.523 86.0347 138.219 86.0347C139.156 86.0347 140.129 85.7072 141.138 85.0521C142.123 84.4213 143.12 83.5478 144.129 82.4318C145.114 81.3157 146.099 79.9934 147.083 78.4649C148.068 76.9606 149.029 75.335 149.966 73.5881C150.927 71.8655 151.852 70.0579 152.74 68.1654C153.629 66.2972 154.47 64.429 155.263 62.5608Z" fill="#CB9D52"/>
<path d="M209.311 35.8842C209.311 36.9275 209.131 37.995 208.77 39.0868C208.41 40.1544 207.954 41.2341 207.401 42.3259C206.849 43.3934 206.26 44.4489 205.636 45.4921C205.011 46.5354 204.423 47.5423 203.87 48.5128C203.318 49.4833 202.861 50.4174 202.501 51.3151C202.141 52.1886 201.96 52.9893 201.96 53.7171C201.96 54.2752 202.081 54.6512 202.321 54.8453C202.561 55.0394 202.825 55.1365 203.113 55.1365C204.026 55.1365 205.047 54.6876 206.176 53.7899C207.305 52.8679 208.446 51.7155 209.599 50.3325C210.776 48.9495 211.941 47.4453 213.094 45.8197C214.247 44.1941 215.292 42.6534 216.229 41.1977L217.526 42.2167C217.334 42.5079 216.986 43.0902 216.481 43.9636C215.977 44.8128 215.352 45.7954 214.608 46.9115C213.863 48.0033 213.022 49.1558 212.085 50.3689C211.173 51.5578 210.188 52.6617 209.131 53.6807C208.074 54.6755 206.981 55.5004 205.852 56.1555C204.747 56.8106 203.63 57.1381 202.501 57.1381C201.852 57.1381 201.264 57.0289 200.735 56.8106C200.207 56.5922 199.75 56.2889 199.366 55.9007C199.006 55.5125 198.718 55.0637 198.501 54.5542C198.285 54.0204 198.177 53.4624 198.177 52.8801C198.177 51.9338 198.381 50.9148 198.79 49.823C199.222 48.7069 199.75 47.5666 200.375 46.402C201 45.2374 201.684 44.0728 202.429 42.9082C203.173 41.7193 203.858 40.5911 204.483 39.5236C205.107 38.456 205.624 37.4734 206.032 36.5757C206.464 35.6537 206.681 34.8652 206.681 34.2101C206.681 33.458 206.476 32.8271 206.068 32.3176C205.684 31.8081 205.131 31.5534 204.411 31.5534C203.642 31.5534 202.753 31.8809 201.744 32.536C200.735 33.1668 199.606 34.1009 198.357 35.3383C197.108 36.5757 195.739 38.1042 194.25 39.9239C192.784 41.7193 191.187 43.7695 189.457 46.0744C188.472 47.4089 187.512 48.6948 186.575 49.9322C186.166 50.466 185.758 51.0119 185.35 51.5699C184.941 52.1279 184.533 52.686 184.124 53.244C183.716 53.7778 183.332 54.2873 182.971 54.7725C182.611 55.2821 182.287 55.7188 181.999 56.0827L178.828 54.7725L183.044 48.9132C183.644 48.0882 184.257 47.2026 184.881 46.2564C185.506 45.3102 186.118 44.3397 186.719 43.3449C187.343 42.3259 187.932 41.3069 188.484 40.2878C189.037 39.2688 189.553 38.2741 190.034 37.3036C190.73 35.8478 191.211 34.6468 191.475 33.7006C191.739 32.7301 191.871 31.9537 191.871 31.3714C191.871 30.7163 191.751 30.2917 191.511 30.0976C191.271 29.8792 190.935 29.7701 190.502 29.7701C190.046 29.7701 189.517 30.0127 188.917 30.4979C188.34 30.9589 187.74 31.5655 187.115 32.3176C186.491 33.0455 185.854 33.8825 185.205 34.8288C184.581 35.7508 183.98 36.6727 183.404 37.5947C182.827 38.5167 182.287 39.3901 181.782 40.2151C181.278 41.04 180.858 41.7072 180.521 42.2167L179.224 41.1977C180.449 39.2567 181.554 37.4855 182.539 35.8842C183.548 34.2586 184.509 32.8635 185.422 31.6989C186.358 30.5343 187.259 29.6366 188.124 29.0058C189.013 28.3507 189.95 28.0232 190.935 28.0232C191.463 28.0232 191.967 28.1323 192.448 28.3507C192.952 28.5691 193.385 28.8966 193.745 29.3333C194.129 29.7458 194.43 30.2553 194.646 30.8619C194.862 31.4684 194.97 32.172 194.97 32.9727C194.97 33.6035 194.898 34.2586 194.754 34.938C195.811 33.8947 196.796 33.0334 197.709 32.354C198.621 31.6747 199.462 31.1409 200.231 30.7527C201 30.3402 201.708 30.0491 202.357 29.8792C203.005 29.7094 203.594 29.6245 204.122 29.6245C204.579 29.6245 205.107 29.7094 205.708 29.8792C206.308 30.0491 206.873 30.3645 207.401 30.8255C207.93 31.2865 208.374 31.9294 208.734 32.7543C209.119 33.555 209.311 34.5983 209.311 35.8842Z" fill="#CB9D52"/>
<path d="M219.004 46.4748C218.956 46.7659 218.92 47.0571 218.896 47.3482C218.872 47.6394 218.859 47.9305 218.859 48.2217C218.859 49.0951 218.98 49.9322 219.22 50.7328C219.484 51.5092 219.856 52.2007 220.337 52.8073C220.841 53.3896 221.454 53.8506 222.174 54.1902C222.919 54.5299 223.76 54.6998 224.697 54.6998C227.844 54.6998 230.882 53.6201 233.813 51.4607C236.743 49.3014 239.662 45.8803 242.569 41.1977L243.794 42.2895C242.208 44.9584 240.599 47.2148 238.965 49.0587C237.332 50.8784 235.699 52.3584 234.065 53.4988C232.456 54.6391 230.87 55.464 229.309 55.9735C227.747 56.483 226.258 56.7378 224.841 56.7378C223.808 56.7378 222.715 56.5922 221.562 56.3011C220.409 56.0099 219.34 55.5247 218.355 54.8453C217.394 54.166 216.601 53.2561 215.977 52.1158C215.328 50.9755 215.004 49.5561 215.004 47.8577C215.004 46.038 215.316 44.2912 215.941 42.617C216.541 40.9187 217.334 39.3416 218.319 37.8859C219.304 36.4301 220.433 35.1078 221.706 33.9189C222.979 32.7058 224.264 31.6747 225.561 30.8255C226.883 29.9763 228.168 29.3212 229.417 28.8602C230.666 28.375 231.771 28.1323 232.732 28.1323C233.356 28.1323 233.993 28.2294 234.642 28.4235C235.29 28.6176 235.867 28.9209 236.371 29.3333C236.9 29.7458 237.32 30.2917 237.632 30.9711C237.969 31.6504 238.137 32.4632 238.137 33.4094C238.137 34.6953 237.836 35.9085 237.236 37.0488C236.659 38.1649 235.879 39.2082 234.894 40.1787C233.909 41.1249 232.768 41.9862 231.471 42.7626C230.174 43.5148 228.816 44.1577 227.399 44.6915C225.982 45.2253 224.553 45.6498 223.111 45.9653C221.67 46.2807 220.301 46.4505 219.004 46.4748ZM219.292 44.9098C220.901 44.74 222.415 44.4003 223.832 43.8908C225.249 43.3813 226.546 42.7626 227.723 42.0347C228.9 41.2826 229.945 40.4698 230.858 39.5964C231.795 38.7229 232.576 37.8373 233.2 36.9396C233.825 36.0419 234.305 35.1806 234.642 34.3557C234.978 33.5307 235.146 32.7907 235.146 32.1357C235.146 31.4806 234.966 30.9589 234.606 30.5707C234.269 30.1825 233.861 29.9884 233.38 29.9884C232.324 29.9884 231.134 30.3766 229.813 31.153C228.492 31.9052 227.171 32.9606 225.85 34.3193C224.529 35.6537 223.279 37.2308 222.102 39.0505C220.949 40.8701 220.013 42.8233 219.292 44.9098Z" fill="#CB9D52"/>
<path d="M359.493 67.3284C359.421 67.3769 359.097 67.5467 358.52 67.8379C357.944 68.129 357.187 68.4445 356.25 68.7841C355.313 69.1238 354.244 69.4271 353.043 69.694C351.842 69.9851 350.593 70.1307 349.296 70.1307C347.182 70.1307 345.284 69.7546 343.603 69.0025C341.921 68.2503 340.492 67.1828 339.315 65.7998C338.162 64.4411 337.273 62.7913 336.649 60.8503C336.024 58.9336 335.712 56.7985 335.712 54.445C335.712 52.1886 335.988 49.7138 336.541 47.0207C337.093 44.3033 337.814 41.5131 338.703 38.6501C339.591 35.7872 340.588 32.9242 341.693 30.0612C342.822 27.1982 343.951 24.4808 345.08 21.909C346.233 19.3129 347.326 16.9473 348.359 14.8122C349.392 12.6529 350.281 10.8575 351.026 9.42597C349.68 10.9788 348.143 12.7742 346.413 14.8122C344.684 16.826 342.834 19.046 340.865 21.4723C338.919 23.8743 336.889 26.4461 334.775 29.1878C332.661 31.9052 330.523 34.7439 328.361 37.7039C326.223 40.6396 324.098 43.6603 321.984 46.7659C319.87 49.8473 317.852 52.9529 315.93 56.0827L314.201 55.5004C314.561 51.5456 315.15 47.6272 315.966 43.7452C316.807 39.839 317.744 36.0904 318.777 32.4996C319.834 28.8845 320.939 25.4999 322.092 22.3457C323.269 19.1674 324.386 16.3286 325.443 13.8296C323.833 16.0618 322.224 18.488 320.614 21.1084C319.029 23.7044 317.42 26.3854 315.786 29.1514C314.153 31.893 312.471 34.6589 310.742 37.4491C309.012 40.2151 307.21 42.8839 305.337 45.4557C303.463 48.0033 301.481 50.3932 299.391 52.6253C297.326 54.8332 295.116 56.7499 292.762 58.3755C290.431 60.0254 287.933 61.3234 285.267 62.2696C282.624 63.2159 279.79 63.689 276.763 63.689C274.433 63.689 272.319 63.3372 270.422 62.6336C268.524 61.93 266.89 60.9595 265.521 59.7221C264.176 58.509 263.143 57.0775 262.422 55.4276C261.678 53.7778 261.305 51.9945 261.305 50.0778C261.305 48.2095 261.606 46.5233 262.206 45.019C262.783 43.4905 263.563 42.1439 264.548 40.9793C265.533 39.7905 266.674 38.7714 267.971 37.9223C269.293 37.0488 270.674 36.3331 272.115 35.775C273.556 35.217 275.01 34.8045 276.475 34.5376C277.964 34.2707 279.382 34.1373 280.727 34.1373C283.513 34.1373 286.18 34.477 288.726 35.1563C291.272 35.8114 293.722 36.9881 296.076 38.6865L294.815 40.1059C294.791 40.0816 294.479 39.8633 293.879 39.4508C293.278 39.0141 292.413 38.5409 291.284 38.0314C290.155 37.5219 288.75 37.0609 287.068 36.6485C285.411 36.236 283.513 36.0298 281.375 36.0298C279.31 36.0298 277.304 36.3088 275.358 36.8668C273.436 37.4249 271.731 38.2741 270.241 39.4144C268.776 40.5305 267.599 41.9498 266.71 43.6725C265.821 45.3708 265.377 47.3725 265.377 49.6774C265.377 51.3273 265.689 52.8558 266.314 54.263C266.962 55.6703 267.851 56.8834 268.98 57.9024C270.109 58.9457 271.466 59.7585 273.052 60.3408C274.637 60.9231 276.391 61.2142 278.313 61.2142C281.195 61.2142 283.958 60.5955 286.6 59.3582C289.242 58.1208 291.789 56.4467 294.239 54.3358C296.689 52.225 299.043 49.7623 301.301 46.9479C303.583 44.1334 305.769 41.1613 307.859 38.0314C309.973 34.9016 312.015 31.6868 313.984 28.3871C315.954 25.0874 317.864 21.909 319.714 18.8519C321.563 15.7706 323.365 12.8955 325.118 10.2266C326.872 7.5335 328.59 5.21643 330.271 3.27543L331.892 4.25806C330.836 7.50924 329.923 10.3722 329.154 12.847C328.385 15.2975 327.713 17.4569 327.136 19.3251C326.584 21.1933 326.103 22.8067 325.695 24.1654C325.311 25.5241 324.974 26.7372 324.686 27.8048C324.398 28.8723 324.134 29.8428 323.893 30.7163C323.677 31.5655 323.449 32.4147 323.209 33.2639C322.993 34.113 322.74 35.0108 322.452 35.957C322.164 36.9032 321.815 38.0072 321.407 39.2688C320.999 40.5062 320.518 41.9498 319.966 43.5997C319.413 45.2253 318.741 47.1541 317.948 49.3863C319.966 46.3049 322.032 43.2721 324.146 40.2878C326.283 37.3036 328.409 34.4163 330.523 31.6261C332.637 28.836 334.703 26.1671 336.721 23.6195C338.763 21.072 340.684 18.7064 342.486 16.5227C344.312 14.3391 345.981 12.3617 347.494 10.5906C349.032 8.79515 350.365 7.26661 351.494 6.00496C352.623 4.74331 353.5 3.76068 354.124 3.05707C354.773 2.35346 355.109 1.98952 355.133 1.96526L356.647 3.09347C355.229 6.63579 353.824 10.1902 352.431 13.7568C351.038 17.2991 349.692 20.7565 348.395 24.129C347.122 27.5015 345.933 30.7527 344.828 33.8825C343.723 37.0124 342.762 39.9482 341.945 42.6898C341.129 45.4072 340.48 47.8941 340 50.1505C339.543 52.3827 339.315 54.2994 339.315 55.9007C339.315 57.7932 339.531 59.5037 339.964 61.0323C340.42 62.5608 341.069 63.8588 341.909 64.9264C342.75 65.9939 343.783 66.8067 345.008 67.3648C346.257 67.9471 347.663 68.2382 349.224 68.2382C350.401 68.2382 351.542 68.1048 352.647 67.8379C353.776 67.571 354.773 67.2798 355.638 66.9644C356.502 66.649 357.199 66.3579 357.728 66.091C358.256 65.8241 358.532 65.6907 358.556 65.6907L359.493 67.3284Z" fill="#CB9D52"/>
<path d="M363.385 30.5707C362.015 32.6816 360.85 34.6953 359.889 36.6121C358.929 38.5046 358.136 40.2636 357.511 41.8892C356.887 43.5148 356.43 44.9948 356.142 46.3292C355.854 47.6636 355.71 48.8161 355.71 49.7866C355.71 52.0187 356.346 53.1348 357.619 53.1348C358.388 53.1348 359.265 52.7466 360.25 51.9702C361.259 51.1938 362.28 50.1627 363.313 48.8768C364.345 47.5908 365.354 46.1108 366.339 44.4367C367.324 42.7626 368.189 41.0278 368.934 39.2324L368.97 39.2688C369.666 37.5219 370.423 35.8114 371.24 34.1373C372.08 32.4632 372.933 30.9347 373.798 29.5517L375.419 30.5707C375.011 31.7111 374.519 33.094 373.942 34.7196C373.366 36.3452 372.813 38.0557 372.285 39.8511C371.78 41.6223 371.336 43.3934 370.951 45.1646C370.591 46.9358 370.411 48.5371 370.411 49.9686C370.411 50.381 370.423 50.7814 370.447 51.1696C370.495 51.5335 370.567 51.861 370.663 52.1522C370.759 52.4433 370.903 52.6738 371.095 52.8437C371.288 53.0135 371.528 53.0984 371.816 53.0984C372.633 53.0984 373.558 52.7345 374.591 52.0066C375.648 51.2787 376.693 50.3446 377.725 49.2043C378.782 48.0397 379.779 46.7659 380.716 45.383C381.677 43.9757 382.482 42.617 383.13 41.3069C382.169 39.5114 381.689 37.4734 381.689 35.1927C381.689 33.9311 381.797 32.8635 382.013 31.9901C382.253 31.1166 382.542 30.413 382.878 29.8792C383.214 29.3212 383.587 28.933 383.995 28.7146C384.403 28.472 384.776 28.3507 385.112 28.3507C385.737 28.3507 386.277 28.6661 386.733 29.2969C387.214 29.9278 387.454 31.056 387.454 32.6816C387.454 33.8462 387.25 35.1806 386.842 36.6849C386.433 38.1649 385.869 39.7055 385.148 41.3069C385.58 41.9377 386.109 42.4472 386.733 42.8354C387.358 43.2236 388.091 43.4298 388.931 43.4541L388.607 45.201C387.742 45.1525 386.95 44.9462 386.229 44.5823C385.508 44.1941 384.872 43.6846 384.319 43.0538C383.527 44.5823 382.602 46.0744 381.545 47.5302C380.512 48.9617 379.395 50.2355 378.194 51.3515C377.017 52.4676 375.78 53.3653 374.483 54.0447C373.185 54.724 371.876 55.0637 370.555 55.0637C370.003 55.0637 369.474 54.9545 368.97 54.7361C368.489 54.5178 368.057 54.1902 367.672 53.7535C367.288 53.3168 366.988 52.7588 366.772 52.0794C366.555 51.4001 366.447 50.5994 366.447 49.6774C366.447 49.3377 366.459 48.9738 366.483 48.5856C366.507 48.1974 366.555 47.7971 366.628 47.3846C365.931 48.4764 365.21 49.4955 364.466 50.4417C363.745 51.3879 363 52.2007 362.232 52.8801C361.463 53.5594 360.658 54.0932 359.817 54.4814C359.001 54.8696 358.16 55.0637 357.295 55.0637C356.358 55.0637 355.554 54.906 354.881 54.5906C354.208 54.2509 353.656 53.7899 353.224 53.2076C352.791 52.6011 352.479 51.8974 352.287 51.0968C352.07 50.2961 351.962 49.4227 351.962 48.4764C351.962 46.8023 352.239 45.0918 352.791 43.3449C353.32 41.598 354.04 39.8875 354.953 38.2134C355.866 36.5393 356.911 34.9622 358.088 33.4822C359.289 32.0022 360.538 30.692 361.835 29.5517L363.385 30.5707ZM384.139 39.0868C384.596 37.995 384.944 36.8911 385.184 35.775C385.424 34.6589 385.544 33.5671 385.544 32.4996C385.544 31.6989 385.484 31.1288 385.364 30.7891C385.244 30.4494 385.148 30.2553 385.076 30.2068C385.052 30.2068 384.956 30.2796 384.788 30.4251C384.644 30.5465 384.475 30.7891 384.283 31.153C384.091 31.517 383.911 32.0265 383.743 32.6816C383.599 33.3124 383.527 34.1373 383.527 35.1563C383.527 35.8599 383.575 36.5514 383.671 37.2308C383.791 37.9101 383.947 38.5288 384.139 39.0868Z" fill="#CB9D52"/>
<path d="M392.607 46.4748C392.559 46.7659 392.523 47.0571 392.499 47.3482C392.475 47.6394 392.463 47.9305 392.463 48.2217C392.463 49.0951 392.583 49.9322 392.823 50.7328C393.087 51.5092 393.459 52.2007 393.94 52.8073C394.444 53.3896 395.057 53.8506 395.778 54.1902C396.522 54.5299 397.363 54.6998 398.3 54.6998C401.447 54.6998 404.485 53.6201 407.416 51.4607C410.347 49.3014 413.265 45.8803 416.172 41.1977L417.397 42.2895C415.811 44.9584 414.202 47.2148 412.569 49.0587C410.935 50.8784 409.302 52.3584 407.668 53.4988C406.059 54.6391 404.473 55.464 402.912 55.9735C401.351 56.483 399.861 56.7378 398.444 56.7378C397.411 56.7378 396.318 56.5922 395.165 56.3011C394.012 56.0099 392.943 55.5247 391.958 54.8453C390.997 54.166 390.205 53.2561 389.58 52.1158C388.931 50.9755 388.607 49.5561 388.607 47.8577C388.607 46.038 388.919 44.2912 389.544 42.617C390.145 40.9187 390.937 39.3416 391.922 37.8859C392.907 36.4301 394.036 35.1078 395.309 33.9189C396.582 32.7058 397.867 31.6747 399.165 30.8255C400.486 29.9763 401.771 29.3212 403.02 28.8602C404.269 28.375 405.374 28.1323 406.335 28.1323C406.96 28.1323 407.596 28.2294 408.245 28.4235C408.893 28.6176 409.47 28.9209 409.974 29.3333C410.503 29.7458 410.923 30.2917 411.235 30.9711C411.572 31.6504 411.74 32.4632 411.74 33.4094C411.74 34.6953 411.44 35.9085 410.839 37.0488C410.262 38.1649 409.482 39.2082 408.497 40.1787C407.512 41.1249 406.371 41.9862 405.074 42.7626C403.777 43.5148 402.419 44.1577 401.002 44.6915C399.585 45.2253 398.156 45.6498 396.714 45.9653C395.273 46.2807 393.904 46.4505 392.607 46.4748ZM392.895 44.9098C394.504 44.74 396.018 44.4003 397.435 43.8908C398.852 43.3813 400.149 42.7626 401.327 42.0347C402.504 41.2826 403.548 40.4698 404.461 39.5964C405.398 38.7229 406.179 37.8373 406.803 36.9396C407.428 36.0419 407.908 35.1806 408.245 34.3557C408.581 33.5307 408.749 32.7907 408.749 32.1357C408.749 31.4806 408.569 30.9589 408.209 30.5707C407.872 30.1825 407.464 29.9884 406.984 29.9884C405.927 29.9884 404.738 30.3766 403.416 31.153C402.095 31.9052 400.774 32.9606 399.453 34.3193C398.132 35.6537 396.883 37.2308 395.705 39.0505C394.552 40.8701 393.616 42.8233 392.895 44.9098Z" fill="#CB9D52"/>
<path d="M436.71 38.2498C435.797 38.0314 435.005 37.7281 434.332 37.34C433.683 36.9275 433.155 36.4665 432.747 35.957C432.338 35.4475 432.038 34.9137 431.846 34.3557C431.654 33.7734 431.557 33.2032 431.557 32.6452C431.557 31.432 431.894 30.4979 432.566 29.8428C433.239 29.1635 434.08 28.8238 435.089 28.8238C435.761 28.8238 436.338 29.0058 436.818 29.3697C437.299 29.7094 437.695 30.1704 438.007 30.7527C438.32 31.335 438.548 32.0143 438.692 32.7907C438.836 33.5429 438.908 34.3314 438.908 35.1563C438.908 35.7144 438.884 36.2724 438.836 36.8304C438.788 37.3642 438.704 37.9101 438.584 38.4682C438.007 41.0885 437.155 43.4662 436.025 45.6013C434.921 47.7122 433.659 49.5318 432.242 51.0604C430.849 52.5647 429.36 53.7293 427.774 54.5542C426.189 55.3548 424.639 55.7552 423.126 55.7552C422.093 55.7552 421.108 55.6096 420.171 55.3184C419.259 55.0273 418.442 54.542 417.721 53.8627C417.025 53.1833 416.472 52.2978 416.064 51.206C415.655 50.0899 415.451 48.7191 415.451 47.0935C415.451 45.0797 415.835 42.6777 416.604 39.8875C417.397 37.0973 418.73 33.8219 420.604 30.0612C423.294 24.7963 425.997 20.0772 428.711 15.9041C429.864 14.1329 431.077 12.3981 432.35 10.6998C433.623 9.00138 434.896 7.48497 436.17 6.15054C437.467 4.8161 438.74 3.74855 439.989 2.94789C441.262 2.12297 442.463 1.7105 443.592 1.7105C443.736 1.7105 443.989 1.73477 444.349 1.78329C444.733 1.83182 445.118 1.96526 445.502 2.18362C445.886 2.37772 446.223 2.69314 446.511 3.12986C446.823 3.54232 446.979 4.12462 446.979 4.87676C446.979 5.77447 446.739 6.91481 446.259 8.29777C445.802 9.65647 445.106 11.1729 444.169 12.847C443.256 14.4968 442.115 16.268 440.746 18.1605C439.401 20.0287 437.839 21.909 436.062 23.8015C434.308 25.694 432.35 27.55 430.188 29.3697C428.05 31.1894 425.72 32.8878 423.198 34.4648C422.357 36.3088 421.649 37.9829 421.072 39.4872C420.52 40.9672 420.075 42.3138 419.739 43.5269C419.403 44.7157 419.162 45.7712 419.018 46.6931C418.874 47.6151 418.802 48.4158 418.802 49.0951C418.802 50.0414 418.922 50.8299 419.162 51.4607C419.427 52.0673 419.775 52.5525 420.207 52.9165C420.64 53.2561 421.132 53.4988 421.685 53.6443C422.237 53.7899 422.814 53.8627 423.414 53.8627C424.543 53.8627 425.636 53.5715 426.693 52.9893C427.774 52.4069 428.795 51.6548 429.756 50.7328C430.717 49.7866 431.594 48.7312 432.386 47.5666C433.203 46.402 433.912 45.2495 434.512 44.1092C435.113 42.9446 435.605 41.8528 435.989 40.8337C436.374 39.7905 436.614 38.9291 436.71 38.2498ZM424.711 31.153C426.921 29.6245 428.951 28.011 430.801 26.3127C432.674 24.6143 434.368 22.9159 435.881 21.2175C437.395 19.4949 438.728 17.8208 439.881 16.1952C441.034 14.5454 441.995 13.0047 442.764 11.5732C443.532 10.1417 444.109 8.86794 444.493 7.75186C444.901 6.61153 445.106 5.68955 445.106 4.98594C445.106 4.35511 444.877 4.0397 444.421 4.0397C443.556 4.0397 442.511 4.51282 441.286 5.45906C440.085 6.40529 438.68 7.94596 437.07 10.0811C435.485 12.2162 433.659 15.0063 431.594 18.4516C429.552 21.8969 427.258 26.1307 424.711 31.153ZM436.962 36.3573C436.986 36.139 436.998 35.9206 436.998 35.7022C437.022 35.4839 437.034 35.2776 437.034 35.0835C437.034 33.7734 436.866 32.7179 436.53 31.9173C436.194 31.1166 435.713 30.7163 435.089 30.7163C434.945 30.7163 434.776 30.7406 434.584 30.7891C434.416 30.8133 434.236 30.8983 434.044 31.0438C433.876 31.1652 433.731 31.3471 433.611 31.5897C433.491 31.8324 433.431 32.1478 433.431 32.536C433.431 33.5307 433.767 34.3557 434.44 35.0108C435.137 35.6416 435.977 36.0904 436.962 36.3573Z" fill="#CB9D52"/>
<path d="M444.853 46.4748C444.805 46.7659 444.769 47.0571 444.745 47.3482C444.721 47.6394 444.709 47.9305 444.709 48.2217C444.709 49.0951 444.829 49.9322 445.07 50.7328C445.334 51.5092 445.706 52.2007 446.187 52.8073C446.691 53.3896 447.304 53.8506 448.024 54.1902C448.769 54.5299 449.61 54.6998 450.546 54.6998C453.693 54.6998 456.732 53.6201 459.663 51.4607C462.593 49.3014 465.512 45.8803 468.418 41.1977L469.644 42.2895C468.058 44.9584 466.449 47.2148 464.815 49.0587C463.182 50.8784 461.548 52.3584 459.915 53.4988C458.305 54.6391 456.72 55.464 455.159 55.9735C453.597 56.483 452.108 56.7378 450.691 56.7378C449.658 56.7378 448.565 56.5922 447.412 56.3011C446.259 56.0099 445.19 55.5247 444.205 54.8453C443.244 54.166 442.451 53.2561 441.827 52.1158C441.178 50.9755 440.854 49.5561 440.854 47.8577C440.854 46.038 441.166 44.2912 441.791 42.617C442.391 40.9187 443.184 39.3416 444.169 37.8859C445.154 36.4301 446.283 35.1078 447.556 33.9189C448.829 32.7058 450.114 31.6747 451.411 30.8255C452.732 29.9763 454.018 29.3212 455.267 28.8602C456.516 28.375 457.621 28.1323 458.582 28.1323C459.206 28.1323 459.843 28.2294 460.491 28.4235C461.14 28.6176 461.716 28.9209 462.221 29.3333C462.749 29.7458 463.17 30.2917 463.482 30.9711C463.818 31.6504 463.986 32.4632 463.986 33.4094C463.986 34.6953 463.686 35.9085 463.086 37.0488C462.509 38.1649 461.728 39.2082 460.744 40.1787C459.759 41.1249 458.618 41.9862 457.321 42.7626C456.023 43.5148 454.666 44.1577 453.249 44.6915C451.832 45.2253 450.402 45.6498 448.961 45.9653C447.52 46.2807 446.151 46.4505 444.853 46.4748ZM445.142 44.9098C446.751 44.74 448.264 44.4003 449.682 43.8908C451.099 43.3813 452.396 42.7626 453.573 42.0347C454.75 41.2826 455.795 40.4698 456.708 39.5964C457.645 38.7229 458.426 37.8373 459.05 36.9396C459.675 36.0419 460.155 35.1806 460.491 34.3557C460.828 33.5307 460.996 32.7907 460.996 32.1357C460.996 31.4806 460.816 30.9589 460.455 30.5707C460.119 30.1825 459.711 29.9884 459.23 29.9884C458.173 29.9884 456.984 30.3766 455.663 31.153C454.342 31.9052 453.021 32.9606 451.699 34.3193C450.378 35.6537 449.129 37.2308 447.952 39.0505C446.799 40.8701 445.862 42.8233 445.142 44.9098Z" fill="#CB9D52"/>
<path d="M491.155 42.2167C490.794 42.7505 490.362 43.4784 489.858 44.4003C489.377 45.298 488.813 46.2807 488.164 47.3482C487.516 48.3915 486.795 49.4591 486.002 50.5509C485.233 51.6427 484.381 52.6253 483.444 53.4988C482.531 54.3722 481.534 55.088 480.453 55.646C479.372 56.204 478.219 56.483 476.994 56.483C476.322 56.483 475.685 56.3739 475.084 56.1555C474.484 55.9614 473.955 55.646 473.499 55.2093C473.043 54.7725 472.682 54.2388 472.418 53.6079C472.154 52.9529 472.022 52.1886 472.022 51.3151C472.022 50.1263 472.25 48.8889 472.706 47.603C473.187 46.2928 473.739 45.0312 474.364 43.818C474.988 42.6049 475.613 41.501 476.237 40.5062C476.862 39.4872 477.318 38.6744 477.607 38.0678C477.895 37.4613 478.039 36.9396 478.039 36.5029C478.039 36.1875 477.931 35.9085 477.715 35.6658C477.523 35.4232 477.27 35.1927 476.958 34.9744C476.67 34.7317 476.358 34.4891 476.021 34.2465C475.709 33.9796 475.445 33.6642 475.229 33.3003C474.628 34.2707 474.015 35.2534 473.391 36.2481C472.838 37.0973 472.238 38.0557 471.589 39.1232C470.941 40.1665 470.316 41.1977 469.716 42.2167L468.418 41.1977L476.129 29.0058L477.174 29.5517C477.126 29.6973 477.042 29.9278 476.922 30.2432C476.826 30.5586 476.778 30.8983 476.778 31.2622C476.778 31.5291 476.814 31.796 476.886 32.0629C476.982 32.3055 477.162 32.536 477.426 32.7543C478.387 33.6278 479.144 34.3071 479.697 34.7924C480.249 35.2534 480.645 35.6294 480.886 35.9206C481.15 36.1875 481.306 36.418 481.354 36.6121C481.426 36.7819 481.462 37.0124 481.462 37.3036C481.462 37.5947 481.414 37.9465 481.318 38.359C481.222 38.7714 481.054 39.2688 480.814 39.8511C480.597 40.4334 480.285 41.1249 479.877 41.9256C479.492 42.702 479 43.6118 478.399 44.6551C478.039 45.2859 477.679 45.9289 477.318 46.584C476.982 47.2148 476.67 47.8577 476.382 48.5128C476.117 49.1679 475.901 49.823 475.733 50.4781C475.565 51.1332 475.481 51.764 475.481 52.3706C475.481 52.8315 475.541 53.2076 475.661 53.4988C475.805 53.7656 475.985 53.9719 476.201 54.1175C476.418 54.263 476.646 54.3601 476.886 54.4086C477.15 54.4571 477.402 54.4814 477.643 54.4814C478.435 54.4814 479.216 54.2509 479.985 53.7899C480.777 53.3047 481.546 52.686 482.291 51.9338C483.06 51.1817 483.792 50.3325 484.489 49.3863C485.209 48.4158 485.894 47.4331 486.543 46.4384C487.191 45.4436 487.792 44.4974 488.344 43.5997C488.897 42.6777 489.389 41.877 489.822 41.1977L491.155 42.2167Z" fill="#CB9D52"/>
<path d="M506 22.4913C506 22.9766 505.88 23.4861 505.64 24.0199C505.399 24.5294 505.087 24.9904 504.703 25.4028C504.343 25.8153 503.934 26.1549 503.478 26.4218C503.021 26.6887 502.565 26.8222 502.109 26.8222C501.7 26.8222 501.388 26.6766 501.172 26.3854C500.956 26.07 500.847 25.694 500.847 25.2572C500.847 24.869 500.919 24.4081 501.064 23.8743C501.208 23.3405 501.424 22.8431 501.712 22.3821C502 21.8969 502.349 21.4844 502.757 21.1447C503.165 20.8051 503.634 20.6352 504.162 20.6352C504.667 20.6352 505.099 20.8293 505.46 21.2175C505.82 21.6057 506 22.0303 506 22.4913ZM499.262 30.5707C498.95 31.2015 498.505 32.0386 497.929 33.0819C497.376 34.1009 496.776 35.2291 496.127 36.4665C495.479 37.6796 494.818 38.9655 494.145 40.3242C493.473 41.6587 492.86 42.9688 492.308 44.2548C491.779 45.5164 491.347 46.7053 491.011 47.8213C490.674 48.9374 490.506 49.8837 490.506 50.6601C490.506 51.3637 490.65 51.8489 490.939 52.1158C491.227 52.3584 491.635 52.4797 492.164 52.4797C493.149 52.4797 494.109 52.1522 495.046 51.4971C495.983 50.842 496.908 49.9928 497.821 48.9495C498.758 47.882 499.67 46.6689 500.559 45.3102C501.448 43.9515 502.337 42.5806 503.226 41.1977L504.523 42.2167C503.826 43.4784 503.033 44.8249 502.145 46.2564C501.28 47.6879 500.307 49.0223 499.226 50.2597C498.145 51.4728 496.956 52.4797 495.659 53.2804C494.362 54.0811 492.944 54.4814 491.407 54.4814C489.966 54.4814 488.861 54.0447 488.092 53.1712C487.323 52.2978 486.939 51.1696 486.939 49.7866C486.939 48.161 487.311 46.4626 488.056 44.6915C488.801 42.9203 489.725 41.1734 490.83 39.4508C491.959 37.7039 493.173 36.0298 494.47 34.4285C495.791 32.8271 497.004 31.3714 498.109 30.0612L499.262 30.5707Z" fill="#CB9D52"/>
</svg>
