<svg width="1166" height="97" viewBox="0 0 1166 97" fill="none" xmlns="http://www.w3.org/2000/svg">
<path d="M396 63.1303C422.246 63.1303 431.087 60.5498 453.6 58.9376C479.607 57.0753 492.194 63.5933 508.8 65.267C537.926 68.2024 571.768 60.9534 602.4 60.9534C630.331 60.9534 641.605 64.8704 674.4 63.4932C693.511 62.6906 706.034 62.43 721.333 64.7429C734.672 66.7594 743.684 70.7932 766.933 69.8628C817.566 67.8366 892.113 51.2351 934.667 61.1146C965.509 68.2752 1031.47 61.2503 1074.93 62.445C1105.9 63.2962 1131.1 64.3738 1164 63.1303" stroke="#F3EAE5" stroke-width="3" stroke-linecap="round"/>
<path d="M0.368 78.352C0.752 77.456 1.808 75.088 3.536 71.248C5.264 67.472 7.504 62.544 10.256 56.464C13.072 50.32 16.208 43.376 19.664 35.632C23.184 27.824 26.896 19.568 30.8 10.864C30.992 10.416 31.184 9.84 31.376 9.136C31.632 8.368 31.76 7.632 31.76 6.928C31.76 6.224 31.536 5.648 31.088 5.2C30.704 4.688 29.84 4.432 28.496 4.432C25.808 4.432 23.568 5.36 21.776 7.216C20.048 9.008 18.736 11.248 17.84 13.936C17.008 16.624 16.592 19.28 16.592 21.904C16.592 22.544 16.592 23.088 16.592 23.536C16.656 23.984 16.72 24.432 16.784 24.88C15.568 24.88 14.576 24.464 13.808 23.632C13.104 22.736 12.56 21.68 12.176 20.464C11.856 19.184 11.696 18.032 11.696 17.008C11.696 14.896 12.272 12.88 13.424 10.96C14.576 9.04 16.048 7.312 17.84 5.776C19.696 4.24 21.712 3.056 23.888 2.224C26.128 1.328 28.304 0.879997 30.416 0.879997C32.528 0.879997 34.288 1.488 35.696 2.704C37.168 3.856 38.256 5.968 38.96 9.04C39.728 12.112 40.112 16.56 40.112 22.384C40.112 26.352 39.952 30.576 39.632 35.056C39.376 39.536 39.088 43.952 38.768 48.304C38.448 52.656 38.224 56.624 38.096 60.208C39.12 56.304 40.56 52.144 42.416 47.728C44.336 43.312 46.416 38.928 48.656 34.576C50.96 30.16 53.232 26.032 55.472 22.192C57.712 18.352 59.728 15.024 61.52 12.208C63.312 9.392 64.624 7.344 65.456 6.064C66.352 4.784 67.12 3.824 67.76 3.184C68.4 2.48 69.232 2.128 70.256 2.128C71.152 2.128 72.176 2.352 73.328 2.8C72.88 3.952 72.24 5.68 71.408 7.984C70.64 10.224 69.84 12.976 69.008 16.24C67.984 20.144 66.96 24.592 65.936 29.584C64.912 34.512 63.952 39.536 63.056 44.656C62.224 49.776 61.552 54.608 61.04 59.152C60.528 63.632 60.272 67.408 60.272 70.48C60.272 71.888 60.336 72.976 60.464 73.744C60.592 74.512 60.752 75.184 60.944 75.76C61.2 76.4 61.456 77.264 61.712 78.352C59.536 78.352 57.872 78 56.72 77.296C55.568 76.592 54.8 75.44 54.416 73.84C54.032 72.304 53.84 70.224 53.84 67.6C53.84 59.984 54.8 51.824 56.72 43.12C58.704 34.352 60.944 25.264 63.44 15.856C61.584 18.224 59.632 21.232 57.584 24.88C55.6 28.464 53.584 32.368 51.536 36.592C49.552 40.752 47.632 44.944 45.776 49.168C43.984 53.328 42.384 57.2 40.976 60.784C39.568 64.368 38.48 67.344 37.712 69.712C37.328 69.84 37.072 69.936 36.944 70C36.816 70.064 36.592 70.096 36.272 70.096C34.544 70.096 33.392 69.072 32.816 67.024C32.304 64.976 32.048 62.096 32.048 58.384C32.048 55.76 32.112 52.656 32.24 49.072C32.432 45.424 32.624 41.68 32.816 37.84C33.008 34 33.168 30.32 33.296 26.8C33.488 23.216 33.584 20.144 33.584 17.584C33.584 16.304 33.552 15.248 33.488 14.416C33.488 13.584 33.456 12.848 33.392 12.208C28.272 24.112 23.984 34.288 20.528 42.736C17.072 51.12 14.16 57.936 11.792 63.184C9.488 68.432 7.44 72.272 5.648 74.704C3.856 77.136 2.096 78.352 0.368 78.352ZM76.4405 96.88C74.8405 96.88 73.4325 96.432 72.2165 95.536C71.0005 94.704 70.3925 93.456 70.3925 91.792C70.3925 89.744 70.9045 87.92 71.9285 86.32C72.9525 84.72 74.3285 83.248 76.0565 81.904C77.7845 80.56 79.7685 79.28 82.0085 78.064C84.2485 76.848 86.5845 75.632 89.0165 74.416C89.9125 72.048 90.8085 69.424 91.7045 66.544C92.6645 63.6 93.5605 60.368 94.3925 56.848C92.3445 60.176 90.1365 63.056 87.7685 65.488C85.4645 67.856 83.0005 69.04 80.3765 69.04C79.1605 69.04 77.9445 68.784 76.7285 68.272C75.5765 67.696 74.6165 66.832 73.8485 65.68C73.0805 64.528 72.6965 63.056 72.6965 61.264C72.6965 59.472 72.9845 57.392 73.5605 55.024C74.2005 52.656 74.9685 50.352 75.8645 48.112C76.7605 45.872 77.6885 44.016 78.6485 42.544C79.6085 41.072 80.4405 40.336 81.1445 40.336C81.4005 40.336 81.8485 40.432 82.4885 40.624C83.1925 40.816 83.8325 41.104 84.4085 41.488C85.0485 41.808 85.3685 42.16 85.3685 42.544C84.7925 43.376 84.1525 44.56 83.4485 46.096C82.7445 47.632 82.0405 49.36 81.3365 51.28C80.6965 53.136 80.1525 54.96 79.7045 56.752C79.2565 58.544 79.0325 60.08 79.0325 61.36C79.0325 62.512 79.2885 63.44 79.8005 64.144C80.3125 64.848 81.2085 65.2 82.4885 65.2C83.7045 65.2 85.0485 64.624 86.5205 63.472C88.0565 62.256 89.5605 60.72 91.0325 58.864C92.5685 57.008 93.9765 55.024 95.2565 52.912C95.4485 52.208 95.6085 51.504 95.7365 50.8C95.9285 50.032 96.0885 49.264 96.2165 48.496C96.4085 47.6 96.8565 46.576 97.5605 45.424C98.3285 44.208 99.5125 43.6 101.113 43.6C101.433 43.6 101.753 43.632 102.073 43.696C102.393 43.696 102.745 43.76 103.129 43.888C103.129 44.912 102.809 46.832 102.169 49.648C101.593 52.4 100.729 55.632 99.5765 59.344C98.4885 63.056 97.1765 66.864 95.6405 70.768C98.6485 69.616 101.593 67.728 104.473 65.104C107.353 62.416 109.689 58.864 111.481 54.448L112.729 55.408C111.769 58.48 110.297 61.168 108.313 63.472C106.393 65.712 104.217 67.664 101.785 69.328C99.3525 70.928 96.9525 72.272 94.5845 73.36C92.9205 77.456 91.0965 81.296 89.1125 84.88C87.1925 88.464 85.1445 91.344 82.9685 93.52C80.8565 95.76 78.6805 96.88 76.4405 96.88ZM75.9605 93.808C76.9205 93.808 78.5205 92.528 80.7605 89.968C83.0645 87.472 85.4965 83.056 88.0565 76.72C85.4325 78.128 83.0005 79.504 80.7605 80.848C78.5205 82.256 76.7285 83.76 75.3845 85.36C74.0405 86.96 73.3685 88.816 73.3685 90.928C73.3685 91.44 73.5605 92.048 73.9445 92.752C74.3285 93.456 75.0005 93.808 75.9605 93.808ZM136.195 78.352C134.787 77.52 133.89 76.624 133.506 75.664C133.122 74.768 132.93 74 132.93 73.36C132.93 71.568 133.57 69.136 134.851 66.064C136.195 62.992 137.955 59.504 140.131 55.6C142.371 51.632 144.835 47.536 147.523 43.312C145.155 43.12 143.139 42.992 141.475 42.928C139.811 42.864 138.371 42.832 137.155 42.832H133.794C134.498 40.976 135.715 39.696 137.443 38.992C139.235 38.224 141.347 37.84 143.779 37.84C144.867 37.84 145.987 37.904 147.139 38.032C148.291 38.16 149.475 38.32 150.691 38.512C153.955 33.584 157.283 28.816 160.675 24.208C164.131 19.536 167.331 15.408 170.275 11.824C173.283 8.176 175.779 5.424 177.763 3.568C179.619 1.776 181.155 0.879997 182.371 0.879997C183.075 0.879997 183.843 1.168 184.675 1.744C185.571 2.256 186.499 2.992 187.458 3.952C186.819 4.464 185.987 5.84 184.963 8.08C184.003 10.256 182.947 13.008 181.795 16.336C180.707 19.664 179.619 23.312 178.531 27.28C177.443 31.248 176.419 35.312 175.459 39.472C174.563 43.568 173.827 47.472 173.251 51.184C172.739 54.896 172.483 58.16 172.483 60.976C172.483 63.408 172.739 65.296 173.251 66.64C173.827 67.984 174.755 68.656 176.035 68.656C177.699 68.656 179.587 67.504 181.699 65.2C183.811 62.896 186.115 59.312 188.611 54.448L189.571 55.408C187.651 60.528 185.187 64.72 182.179 67.984C179.235 71.248 176.163 72.88 172.963 72.88C170.339 72.88 168.419 71.728 167.203 69.424C166.051 67.056 165.475 63.92 165.475 60.016C165.475 57.968 165.603 55.728 165.859 53.296C166.179 50.864 166.595 48.336 167.107 45.712C164.291 45.264 161.699 44.912 159.331 44.656C157.027 44.336 154.883 44.048 152.899 43.792C149.891 49.36 146.947 55.088 144.067 60.976C141.251 66.864 138.627 72.656 136.195 78.352ZM167.779 42.352C168.739 38.128 169.859 33.872 171.139 29.584C172.419 25.232 173.763 21.104 175.171 17.2C176.643 13.296 178.019 9.872 179.299 6.928C177.315 8.144 175.011 10.32 172.387 13.456C169.827 16.528 167.107 20.304 164.227 24.784C161.347 29.2 158.403 34.064 155.395 39.376C157.571 39.824 159.715 40.336 161.827 40.912C164.003 41.424 165.987 41.904 167.779 42.352ZM203.296 72.496C201.12 72.496 199.392 71.92 198.112 70.768C196.896 69.616 196.288 68.112 196.288 66.256C196.288 64.336 196.736 62.32 197.632 60.208C198.528 58.096 199.392 56.016 200.224 53.968C201.12 51.856 201.568 49.968 201.568 48.304C201.568 46.256 200.96 44.752 199.744 43.792C198.592 42.768 197.408 41.84 196.192 41.008C194.72 44.784 193.184 48.368 191.584 51.76C189.984 55.152 188.672 57.712 187.648 59.44L186.784 57.808C187.68 56.144 188.832 53.712 190.24 50.512C191.712 47.312 193.152 43.664 194.56 39.568C193.92 38.928 193.6 38.16 193.6 37.264C193.6 35.344 194.144 33.776 195.232 32.56C196.32 31.344 197.12 30.736 197.632 30.736C198.336 30.736 198.72 31.056 198.784 31.696C198.912 32.272 198.976 32.72 198.976 33.04C198.976 33.36 198.784 34 198.4 34.96C198.08 35.856 197.92 36.4 197.92 36.592C197.92 37.488 198.4 38.32 199.359 39.088C200.384 39.792 201.536 40.624 202.816 41.584C204.096 42.48 205.216 43.6 206.176 44.944C207.2 46.224 207.712 47.888 207.712 49.936C207.712 51.856 207.296 53.808 206.464 55.792C205.696 57.776 204.896 59.664 204.064 61.456C203.296 63.248 202.912 64.816 202.912 66.16C202.912 67.312 203.2 68.08 203.776 68.464C204.352 68.848 205.024 69.04 205.792 69.04C207.328 69.04 208.896 68.56 210.496 67.6C212.16 66.64 213.76 65.424 215.296 63.952C216.832 62.48 218.208 60.944 219.424 59.344C220.64 57.68 221.536 56.144 222.112 54.736L223.36 55.696C222.144 58.384 220.48 61.04 218.368 63.664C216.256 66.224 213.888 68.336 211.264 70C208.704 71.664 206.048 72.496 203.296 72.496ZM228.223 74.416C225.471 74.416 223.359 73.616 221.887 72.016C220.415 70.416 219.678 68.048 219.678 64.912C219.678 62.096 220.19 58.64 221.215 54.544C222.303 50.384 223.647 46.128 225.247 41.776C224.607 41.648 223.999 41.552 223.423 41.488C222.847 41.36 222.303 41.2 221.791 41.008V39.28C222.303 39.344 222.911 39.408 223.615 39.472C224.319 39.536 225.119 39.6 226.015 39.664C227.359 36.208 228.799 32.88 230.335 29.68C231.871 26.416 233.375 23.536 234.847 21.04C236.383 18.48 237.823 16.464 239.167 14.992C240.575 13.456 241.759 12.688 242.719 12.688C243.231 12.688 243.679 12.88 244.062 13.264C244.51 13.584 244.734 14.096 244.734 14.8C244.734 15.888 244.063 17.68 242.719 20.176C241.375 22.608 239.711 25.52 237.727 28.912C235.743 32.304 233.823 35.984 231.967 39.952C232.543 39.952 233.119 39.952 233.695 39.952C234.335 39.952 234.943 39.952 235.519 39.952C237.631 39.952 239.839 39.92 242.143 39.856C244.511 39.792 246.879 39.632 249.247 39.376V41.104C245.727 41.488 242.559 41.776 239.743 41.968C236.991 42.16 234.527 42.256 232.351 42.256C232.095 42.256 231.839 42.256 231.583 42.256C231.391 42.256 231.167 42.256 230.911 42.256C229.439 45.648 228.191 49.136 227.167 52.72C226.143 56.304 225.631 59.792 225.631 63.184C225.631 65.936 226.047 67.92 226.879 69.136C227.711 70.288 229.087 70.864 231.007 70.864C234.335 70.864 237.599 69.392 240.799 66.448C243.999 63.504 246.815 59.504 249.247 54.448L250.495 55.408C248.959 58.992 247.007 62.224 244.639 65.104C242.335 67.984 239.775 70.256 236.959 71.92C234.143 73.584 231.23 74.416 228.223 74.416ZM254.35 72.496C251.854 72.496 249.998 71.696 248.782 70.096C247.565 68.56 246.957 66.672 246.957 64.432C246.957 62.96 247.213 61.104 247.726 58.864C248.302 56.624 249.038 54.288 249.934 51.856C250.83 49.36 251.854 47.024 253.006 44.848C254.222 42.672 255.502 40.912 256.846 39.568C258.19 38.16 259.502 37.456 260.782 37.456C261.358 37.456 261.838 37.648 262.222 38.032C262.67 38.352 262.894 38.864 262.894 39.568C262.894 40.336 262.382 41.584 261.358 43.312C260.398 45.04 259.246 47.024 257.902 49.264C256.558 51.504 255.374 53.872 254.35 56.368C253.39 58.8 252.91 61.136 252.91 63.376C252.91 65.68 253.294 67.216 254.062 67.984C254.83 68.752 256.014 69.136 257.614 69.136C259.79 69.136 262.094 68.048 264.526 65.872C267.022 63.696 269.646 59.888 272.398 54.448L273.262 55.408C271.406 60.912 268.718 65.136 265.198 68.08C261.742 71.024 258.126 72.496 254.35 72.496ZM265.87 28.528C264.846 28.528 263.918 28.272 263.086 27.76C262.318 27.248 261.934 26.448 261.934 25.36C261.934 24.016 262.702 22.864 264.238 21.904C265.838 20.88 267.406 20.368 268.942 20.368C269.902 20.368 270.67 20.592 271.246 21.04C271.822 21.488 272.109 22.256 272.109 23.344C272.109 24.56 271.438 25.744 270.094 26.896C268.814 27.984 267.406 28.528 265.87 28.528ZM280.866 75.376C277.794 75.376 275.234 74.352 273.186 72.304C271.138 70.256 270.114 67.184 270.114 63.088C270.114 59.888 270.722 56.784 271.938 53.776C273.218 50.704 274.882 47.952 276.93 45.52C278.978 43.088 281.25 41.168 283.746 39.76C286.242 38.288 288.706 37.552 291.138 37.552C293.762 37.552 295.554 38.32 296.514 39.856C297.474 41.392 297.954 42.992 297.954 44.656C297.954 46.512 297.506 48.144 296.61 49.552C295.778 50.96 294.626 51.664 293.154 51.664C292.066 51.664 291.138 51.184 290.37 50.224C291.33 49.712 292.162 48.688 292.866 47.152C293.57 45.552 293.922 44.048 293.922 42.64C293.922 41.872 293.762 41.296 293.442 40.912C293.186 40.464 292.642 40.24 291.81 40.24C290.082 40.24 288.29 41.008 286.434 42.544C284.642 44.08 282.946 46.064 281.346 48.496C279.81 50.928 278.53 53.488 277.506 56.176C276.546 58.864 276.066 61.392 276.066 63.76C276.066 65.744 276.546 67.568 277.506 69.232C278.466 70.896 280.322 71.728 283.074 71.728C285.634 71.728 288.194 71.024 290.754 69.616C293.378 68.208 295.81 66.192 298.05 63.568C300.29 60.944 302.082 57.872 303.426 54.352L304.674 55.312C303.202 59.152 301.186 62.608 298.626 65.68C296.066 68.688 293.25 71.056 290.178 72.784C287.106 74.512 284.002 75.376 280.866 75.376ZM309.593 72.88C306.841 72.88 304.857 71.92 303.641 70C302.489 68.144 301.913 65.808 301.913 62.992C301.913 59.92 302.489 56.272 303.641 52.048C304.793 47.824 306.297 43.376 308.153 38.704C310.073 34.032 312.153 29.488 314.393 25.072C316.633 20.592 318.873 16.528 321.113 12.88C323.353 9.232 325.401 6.32 327.257 4.144C329.177 1.968 330.681 0.879997 331.769 0.879997C332.473 0.879997 333.049 1.296 333.497 2.128C333.945 2.896 334.297 3.856 334.553 5.008C334.809 6.096 334.937 7.088 334.937 7.984C334.937 9.712 334.489 11.984 333.593 14.8C332.761 17.552 331.545 20.656 329.945 24.112C328.409 27.504 326.553 30.96 324.377 34.48C322.265 37.936 319.929 41.264 317.369 44.464C314.873 47.664 312.217 50.416 309.401 52.72C309.017 54.448 308.697 56.144 308.441 57.808C308.249 59.408 308.153 60.944 308.153 62.416C308.153 64.912 308.505 66.768 309.209 67.984C309.913 69.2 310.969 69.808 312.377 69.808C314.105 69.808 315.801 69.04 317.465 67.504C319.193 65.968 320.793 64.048 322.265 61.744C323.801 59.376 325.113 56.944 326.201 54.448L327.641 55.216C325.081 60.656 322.297 64.976 319.289 68.176C316.281 71.312 313.049 72.88 309.593 72.88ZM310.265 49.456C312.505 47.216 314.681 44.656 316.793 41.776C318.905 38.832 320.857 35.792 322.649 32.656C324.505 29.52 326.137 26.48 327.545 23.536C328.953 20.592 330.041 17.968 330.809 15.664C331.577 13.296 331.961 11.472 331.961 10.192C331.961 9.552 331.865 9.136 331.673 8.944C331.545 8.752 331.417 8.65599 331.289 8.65599C330.777 8.65599 329.881 9.488 328.601 11.152C327.385 12.752 325.945 14.928 324.281 17.68C322.617 20.432 320.921 23.568 319.193 27.088C317.465 30.608 315.801 34.288 314.201 38.128C312.665 41.968 311.353 45.744 310.265 49.456ZM334.681 74.224C330.777 74.224 327.833 73.136 325.849 70.96C323.928 68.848 322.968 66.224 322.968 63.088C322.968 60.208 323.672 57.168 325.081 53.968C326.553 50.768 328.473 47.76 330.841 44.944C333.273 42.128 335.929 39.856 338.809 38.128C341.689 36.336 344.537 35.44 347.353 35.44C348.825 35.44 350.169 35.824 351.385 36.592C352.665 37.36 353.305 38.928 353.305 41.296C353.305 43.728 352.569 46.032 351.097 48.208C349.689 50.32 347.801 52.208 345.433 53.872C343.129 55.536 340.569 56.912 337.753 58C335.001 59.024 332.249 59.664 329.497 59.92C329.369 60.56 329.273 61.168 329.209 61.744C329.145 62.32 329.113 62.864 329.113 63.376C329.113 64.336 329.209 65.296 329.401 66.256C329.657 67.216 330.073 68.112 330.648 68.944C331.225 69.712 331.993 70.32 332.953 70.768C333.977 71.216 335.225 71.44 336.697 71.44C339.449 71.44 342.169 70.672 344.857 69.136C347.545 67.536 350.041 65.456 352.345 62.896C354.649 60.336 356.601 57.52 358.201 54.448L359.353 55.312C357.625 59.152 355.417 62.48 352.729 65.296C350.105 68.112 347.225 70.288 344.089 71.824C341.017 73.424 337.881 74.224 334.681 74.224ZM329.977 58.096C331.705 57.52 333.657 56.688 335.833 55.6C338.009 54.448 340.089 53.104 342.073 51.568C344.121 50.032 345.785 48.336 347.065 46.48C348.409 44.624 349.081 42.672 349.081 40.624C349.081 39.92 348.953 39.376 348.697 38.992C348.441 38.608 347.897 38.416 347.065 38.416C345.529 38.416 343.897 39.024 342.169 40.24C340.441 41.392 338.777 42.928 337.177 44.848C335.577 46.768 334.137 48.88 332.857 51.184C331.577 53.488 330.617 55.792 329.977 58.096ZM366.361 74.896C363.353 74.896 360.953 74.224 359.161 72.88C357.433 71.6 356.217 70 355.513 68.08C354.745 66.16 354.361 64.24 354.361 62.32C354.361 60.4 354.617 58.928 355.129 57.904C355.641 56.88 356.249 56.112 356.953 55.6C357.721 55.088 358.425 54.704 359.065 54.448C359.769 54.192 360.249 53.936 360.505 53.68C362.425 51.568 364.185 49.36 365.785 47.056C367.385 44.752 368.793 42.32 370.009 39.76V38.608C370.009 36.24 370.393 34.576 371.161 33.616C371.993 32.592 372.857 32.08 373.753 32.08C374.265 32.08 374.649 32.208 374.905 32.464C375.161 32.72 375.289 33.008 375.289 33.328C375.289 33.648 375.193 34.16 375.001 34.864C374.809 35.568 374.713 36.464 374.713 37.552C374.713 39.664 375.129 41.968 375.961 44.464C376.793 46.896 377.625 49.488 378.457 52.24C379.289 54.928 379.705 57.744 379.705 60.688C379.705 61.52 379.641 62.352 379.513 63.184C379.449 63.952 379.321 64.688 379.129 65.392C381.369 65.008 383.481 64.016 385.465 62.416C387.449 60.752 389.369 58.128 391.225 54.544L392.089 55.504C390.873 59.024 389.049 61.712 386.617 63.568C384.185 65.36 381.529 66.48 378.649 66.928C377.625 69.68 375.993 71.696 373.753 72.976C371.577 74.256 369.113 74.896 366.361 74.896ZM366.553 71.536C367.321 71.536 368.345 71.28 369.625 70.768C370.905 70.256 371.897 68.944 372.601 66.832C369.913 66.32 367.513 65.264 365.401 63.664C363.353 62.064 361.817 60.464 360.793 58.864C359.385 58.928 358.681 60.048 358.681 62.224C358.681 64.528 359.353 66.672 360.697 68.656C362.105 70.576 364.057 71.536 366.553 71.536ZM373.081 65.296C373.209 64.656 373.305 63.984 373.369 63.28C373.433 62.576 373.465 61.744 373.465 60.784C373.465 57.776 373.081 54.8 372.313 51.856C371.609 48.848 371.001 46.032 370.489 43.408C369.017 45.84 367.449 48.176 365.785 50.416C364.185 52.592 362.649 54.416 361.177 55.888C362.137 57.936 363.609 59.856 365.593 61.648C367.641 63.44 370.137 64.656 373.081 65.296Z" fill="#F3EAE5"/>
</svg>
