<svg width="74" height="74" viewBox="0 0 74 74" fill="none" xmlns="http://www.w3.org/2000/svg">
<path d="M27.834 53.5002L53.5007 37.0002L27.834 20.5002V53.5002ZM37.0007 73.6668C31.9284 73.6668 27.1618 72.7037 22.7007 70.7775C18.2395 68.8537 14.359 66.2418 11.059 62.9418C7.75899 59.6418 5.1471 55.7613 3.22332 51.3002C1.2971 46.8391 0.333984 42.0724 0.333984 37.0002C0.333984 31.9279 1.2971 27.1613 3.22332 22.7002C5.1471 18.2391 7.75899 14.3585 11.059 11.0585C14.359 7.7585 18.2395 5.14539 22.7007 3.21916C27.1618 1.29538 31.9284 0.333496 37.0007 0.333496C42.0729 0.333496 46.8395 1.29538 51.3007 3.21916C55.7618 5.14539 59.6423 7.7585 62.9423 11.0585C66.2423 14.3585 68.8542 18.2391 70.778 22.7002C72.7042 27.1613 73.6673 31.9279 73.6673 37.0002C73.6673 42.0724 72.7042 46.8391 70.778 51.3002C68.8542 55.7613 66.2423 59.6418 62.9423 62.9418C59.6423 66.2418 55.7618 68.8537 51.3007 70.7775C46.8395 72.7037 42.0729 73.6668 37.0007 73.6668Z" fill="url(#paint0_linear_314_599)"/>
<defs>
<linearGradient id="paint0_linear_314_599" x1="0.333984" y1="50.1626" x2="73.6673" y2="50.1626" gradientUnits="userSpaceOnUse">
<stop stop-color="#EDC474"/>
<stop offset="0.609375" stop-color="#CB9D52"/>
<stop offset="1" stop-color="#B6853C"/>
</linearGradient>
</defs>
</svg>
