<svg width="34" height="27" viewBox="0 0 34 27" fill="none" xmlns="http://www.w3.org/2000/svg">
<path d="M0.591003 23.6668C3.47663 25.5881 7.00352 26.7088 10.851 26.7088C23.1951 26.7088 30.2489 16.302 29.7679 6.85581C31.0504 5.89518 32.1726 4.77444 33.1345 3.3335C32.0123 3.81381 30.7298 4.29413 29.287 4.45423C30.7298 3.65371 31.6917 2.37287 32.1726 0.771819C30.8901 1.57234 29.4473 2.05266 28.0045 2.37287C26.722 1.09203 25.1189 0.291504 23.1951 0.291504C18.8667 0.291504 15.6604 4.29413 16.6223 8.45686C11.0113 8.13665 6.20195 5.57497 2.83538 1.57234C1.07194 4.61434 1.87351 8.45686 4.91945 10.5382C3.79726 10.5382 2.83538 10.218 1.87351 9.7377C1.87351 12.7797 3.95757 15.6616 7.16383 16.302C6.20195 16.6222 5.24008 16.6222 4.11789 16.4621C4.91945 19.1839 7.48445 21.1051 10.3701 21.1051C7.64477 23.0264 4.11789 24.1471 0.591003 23.6668Z" fill="white"/>
</svg>
